<svg width="57" height="57" viewBox="0 0 57 57" fill="none" xmlns="http://www.w3.org/2000/svg">
<g filter="url(#filter0_f_1_1210)">
<path d="M37.7479 29.2211C37.7479 27.2987 39.3063 25.7402 41.2287 25.7402C43.1512 25.7402 44.7096 27.2987 44.7096 29.2211V31.2101C44.7096 33.1326 43.1512 34.691 41.2287 34.691C39.3063 34.691 37.7479 33.1326 37.7479 31.2101V29.2211Z" fill="#FFFFE7"/>
</g>
<path d="M39.0601 28.1893C39.7104 26.3524 41.7318 25.3761 43.5749 26.0087C45.418 26.6413 46.3849 28.6433 45.7345 30.4802L44.8183 33.0683C44.6349 33.5861 44.0652 33.8612 43.5457 33.6829L38.7525 32.0378C38.233 31.8595 37.9604 31.2952 38.1438 30.7774L39.0601 28.1893Z" fill="url(#paint0_linear_1_1210)"/>
<g filter="url(#filter1_f_1_1210)">
<path d="M34.8853 29.8706C35.4263 27.7081 37.6215 26.3787 39.7885 26.9013C41.9555 27.4239 43.2736 29.6006 42.7326 31.763L41.8004 35.489C41.2594 37.6514 39.0642 38.9808 36.8972 38.4582C34.7302 37.9356 33.4121 35.759 33.9531 33.5965L34.8853 29.8706Z" fill="url(#paint1_linear_1_1210)"/>
</g>
<g style="mix-blend-mode:luminosity">
<path d="M35.6354 29.1538C36.6567 27.1791 39.0976 26.3825 41.0871 27.3745C43.0767 28.3664 43.8616 30.7714 42.8402 32.746L41.0507 36.2059C40.0293 38.1805 37.5885 38.9771 35.599 37.9851C33.6094 36.9932 32.8245 34.5883 33.8459 32.6136L35.6354 29.1538Z" fill="url(#paint2_linear_1_1210)"/>
</g>
<g filter="url(#filter2_f_1_1210)">
<path d="M39.7258 27.7469C40.3097 27.2528 41.1835 27.3256 41.6776 27.9094L43.1311 29.6271C43.6248 30.2104 43.5521 31.0834 42.9688 31.577C42.5105 31.9648 41.8543 32.0128 41.3444 31.6958L39.9524 30.8304L39.3385 29.328C39.1115 28.7727 39.2679 28.1344 39.7258 27.7469Z" fill="white"/>
</g>
<g filter="url(#filter3_f_1_1210)">
<path d="M34.7644 16.7894C34.7644 14.867 36.3228 13.3086 38.2452 13.3086C40.1676 13.3086 41.7261 14.867 41.7261 16.7894V18.7785C41.7261 20.7009 40.1676 22.2593 38.2452 22.2593C36.3228 22.2593 34.7644 20.7009 34.7644 18.7785V16.7894Z" fill="#FFFFE7"/>
</g>
<path d="M36.0765 15.7577C36.7269 13.9208 38.7482 12.9445 40.5914 13.5771C42.4345 14.2097 43.4014 16.2116 42.751 18.0486L41.8347 20.6366C41.6514 21.1544 41.0817 21.4296 40.5622 21.2513L35.769 19.6061C35.2495 19.4278 34.9769 18.8635 35.1602 18.3458L36.0765 15.7577Z" fill="url(#paint3_linear_1_1210)"/>
<g filter="url(#filter4_f_1_1210)">
<path d="M31.9017 17.4389C32.4427 15.2765 34.638 13.9471 36.805 14.4697C38.972 14.9923 40.2901 17.1689 39.7491 19.3314L38.8169 23.0573C38.2759 25.2198 36.0807 26.5492 33.9137 26.0266C31.7467 25.504 30.4286 23.3273 30.9696 21.1649L31.9017 17.4389Z" fill="url(#paint4_linear_1_1210)"/>
</g>
<g style="mix-blend-mode:luminosity">
<path d="M32.6519 16.7221C33.6732 14.7475 36.114 13.9509 38.1036 14.9428C40.0932 15.9348 40.878 18.3397 39.8567 20.3143L38.0672 23.7742C37.0458 25.7489 34.605 26.5455 32.6154 25.5535C30.6259 24.5615 29.841 22.1566 30.8623 20.182L32.6519 16.7221Z" fill="url(#paint5_linear_1_1210)"/>
</g>
<g filter="url(#filter5_f_1_1210)">
<path d="M36.7423 15.3153C37.3261 14.8212 38.2 14.894 38.6941 15.4778L40.1476 17.1954C40.6412 17.7787 40.5685 18.6517 39.9852 19.1454C39.5269 19.5332 38.8708 19.5812 38.3609 19.2642L36.9689 18.3988L36.3549 16.8963C36.128 16.341 36.2844 15.7028 36.7423 15.3153Z" fill="white"/>
</g>
<g filter="url(#filter6_f_1_1210)">
<path d="M23.2942 35.3053C24.194 34.7055 29.3759 32.3172 33.3469 30.5161C35.8587 29.3769 38.7935 30.6814 39.6501 33.3031C40.5105 35.9365 38.893 38.7321 36.1751 39.2691C32.1606 40.0622 27.0348 41.0239 25.7805 41.0239C23.646 41.0239 21.5538 40.3281 21.0565 39.2834C20.5593 38.2387 21.8024 36.2998 23.2942 35.3053Z" fill="#FFE4DB"/>
</g>
<g filter="url(#filter7_f_1_1210)">
<path d="M30.5501 31.1565C31.339 29.6031 33.2378 28.9833 34.7912 29.7721C36.3446 30.561 36.9644 32.4598 36.1755 34.0132L32.9561 40.353C32.1672 41.9064 30.2684 42.5262 28.715 41.7373C27.1615 40.9485 26.5418 39.0497 27.3306 37.4962L30.5501 31.1565Z" fill="#C5EDFE"/>
</g>
<g filter="url(#filter8_f_1_1210)">
<path d="M33.0429 32.6958C33.4964 32.049 34.3883 31.8923 35.0352 32.3457C35.682 32.7992 35.8387 33.6911 35.3853 34.3379L32.553 38.3779C32.0996 39.0247 31.2076 39.1815 30.5608 38.728C29.914 38.2745 29.7572 37.3826 30.2107 36.7358L33.0429 32.6958Z" fill="#D4FFFF"/>
</g>
<rect x="27.521" y="28.344" width="5.94173" height="5.94173" rx="2.97087" fill="#ED392D"/>
<path d="M43.7498 23.6379C43.2357 24.1508 42.9787 25.1765 42.9787 26.715V27.4843H38.352V26.715C38.352 25.1765 38.095 24.1508 37.5809 23.6379C35.7873 21.8485 35.587 19.0995 37.3938 17.297C39.2006 15.4944 42.13 15.4944 43.9369 17.297C45.7437 19.0995 45.6057 21.7864 43.7498 23.6379ZM39.1231 30.5615H42.2075H39.1231Z" fill="#2329D6"/>
<path d="M39.1231 30.5615H42.2075M43.7498 23.6379C43.2357 24.1508 42.9787 25.1765 42.9787 26.715V27.4843H38.352V26.715C38.352 25.1765 38.095 24.1508 37.5809 23.6379C35.7873 21.8485 35.587 19.0995 37.3938 17.297C39.2006 15.4944 42.13 15.4944 43.9369 17.297C45.7437 19.0995 45.6057 21.7864 43.7498 23.6379Z" stroke="#2329D6" stroke-width="1.13062" stroke-linecap="round" stroke-linejoin="round"/>
<g filter="url(#filter9_biiii_1_1210)">
<path d="M39.1888 21.1599H28.7322L26.6494 18.7149C26.5873 18.6411 26.4941 18.5997 26.397 18.6027H17.9827C16.7232 18.615 15.7091 19.6273 15.7106 20.8708V35.8254C15.7105 37.068 16.7242 38.0788 17.9827 38.0911H39.1888C40.4473 38.0788 41.461 37.068 41.4609 35.8254V23.4256C41.461 22.183 40.4473 21.1723 39.1888 21.1599Z" fill="white" fill-opacity="0.2"/>
</g>
<ellipse cx="24.812" cy="26.7968" rx="1.5539" ry="1.55022" fill="#ED392D"/>
<rect x="24.4753" y="30.271" width="3.1079" height="3.1079" stroke="#050121" stroke-width="1.86474" stroke-dasharray="1.86 1.86"/>
<g filter="url(#filter10_f_1_1210)">
<path d="M13.5575 20.6414L13.2854 22.4367C13.2558 22.6319 13.3387 22.8271 13.4989 22.9397C13.6594 23.0525 13.8691 23.0625 14.0391 22.9664L15.5281 22.1245L17.0379 22.9249C17.4096 23.1249 17.8545 22.7942 17.7773 22.3755L17.461 20.5959L18.7004 19.0863C18.9764 18.7539 18.7364 18.2366 18.3077 18.239H16.6746L15.9201 16.6779C15.8337 16.4988 15.6527 16.386 15.4561 16.3882C15.2592 16.3903 15.081 16.5068 14.9982 16.6876L14.2876 18.239H12.6694C12.4713 18.239 12.291 18.355 12.207 18.5367C12.1229 18.7183 12.1503 18.9328 12.2772 19.0869L13.5575 20.6414Z" fill="#A9CFFF"/>
</g>
<g filter="url(#filter11_biii_1_1210)">
<path d="M13.5575 19.3126L13.2854 21.1078C13.2558 21.303 13.3387 21.4982 13.4989 21.6108C13.6594 21.7237 13.8691 21.7337 14.0391 21.6375L15.5281 20.7956L17.0379 21.5961C17.4096 21.796 17.8545 21.4654 17.7773 21.0466L17.461 19.267L18.7004 17.7574C18.9764 17.425 18.7364 16.9077 18.3077 16.9101H16.6746L15.9201 15.349C15.8337 15.17 15.6527 15.0572 15.4561 15.0594C15.2592 15.0615 15.081 15.1779 14.9982 15.3587L14.2876 16.9101H12.6694C12.4713 16.9101 12.291 17.0261 12.207 17.2079C12.1229 17.3895 12.1503 17.604 12.2772 17.758L13.5575 19.3126Z" fill="white" fill-opacity="0.2"/>
</g>
<path d="M16.6367 39.946H14.2954V37.5929C14.2954 37.4018 14.1401 37.2469 13.9485 37.2469C13.757 37.2469 13.6017 37.4018 13.6017 37.5929V39.946H12.8483C12.8868 39.8376 12.908 39.7212 12.908 39.5999C12.908 39.0275 12.4412 38.5618 11.8674 38.5618C11.2936 38.5618 10.8269 39.0275 10.8269 39.5999C10.8269 40.1724 11.2936 40.638 11.8674 40.638H13.6017V42.3855H13.6021C13.6114 42.9499 14.0743 43.4063 14.6423 43.4063C14.8338 43.4063 14.9891 43.2514 14.9891 43.0602C14.9891 42.8691 14.8338 42.7142 14.6423 42.7142C14.451 42.7142 14.2954 42.559 14.2954 42.3682C14.2954 42.1774 14.451 42.0221 14.6423 42.0221C14.8335 42.0221 14.9891 42.1774 14.9891 42.3682C14.9891 42.5593 15.1444 42.7142 15.336 42.7142C15.5275 42.7142 15.6828 42.5593 15.6828 42.3682C15.6828 41.7957 15.216 41.3301 14.6423 41.3301C14.5206 41.3301 14.404 41.3512 14.2954 41.3896V40.638H16.6367C16.8282 40.638 16.9835 40.4831 16.9835 40.292C16.9835 40.1009 16.8282 39.946 16.6367 39.946ZM11.5206 39.5999C11.5206 39.4091 11.6762 39.2539 11.8674 39.2539C12.0587 39.2539 12.2143 39.4091 12.2143 39.5999C12.2143 39.7907 12.0587 39.946 11.8674 39.946C11.6762 39.946 11.5206 39.7907 11.5206 39.5999ZM19.7063 38.9425C19.7063 39.1336 19.551 39.2885 19.3595 39.2885C19.1679 39.2885 19.0126 39.1336 19.0126 38.9425C19.0126 38.7513 19.1679 38.5964 19.3595 38.5964C19.551 38.5964 19.7063 38.7513 19.7063 38.9425ZM19.7063 40.2747C19.7063 40.4658 19.551 40.6207 19.3595 40.6207C19.1679 40.6207 19.0126 40.4658 19.0126 40.2747C19.0126 40.0836 19.1679 39.9287 19.3595 39.9287C19.551 39.9287 19.7063 40.0836 19.7063 40.2747ZM18.3362 40.2747C18.3362 40.4658 18.181 40.6207 17.9894 40.6207C17.7978 40.6207 17.6425 40.4658 17.6425 40.2747C17.6425 40.0836 17.7978 39.9287 17.9894 39.9287C18.181 39.9287 18.3362 40.0836 18.3362 40.2747ZM14.9371 34.8939C14.9371 34.7028 15.0923 34.5479 15.2839 34.5479C15.4755 34.5479 15.6308 34.7028 15.6308 34.8939C15.6308 35.085 15.4755 35.2399 15.2839 35.2399C15.0923 35.2399 14.9371 35.085 14.9371 34.8939ZM18.3362 34.8939C18.3362 35.085 18.181 35.2399 17.9894 35.2399C17.7978 35.2399 17.6425 35.085 17.6425 34.8939C17.6425 34.7028 17.7978 34.5479 17.9894 34.5479C18.181 34.5479 18.3362 34.7028 18.3362 34.8939ZM19.7063 34.8939C19.7063 35.085 19.551 35.2399 19.3595 35.2399C19.1679 35.2399 19.0126 35.085 19.0126 34.8939C19.0126 34.7028 19.1679 34.5479 19.3595 34.5479C19.551 34.5479 19.7063 34.7028 19.7063 34.8939ZM16.9835 34.8939C16.9835 35.085 16.8282 35.2399 16.6367 35.2399C16.4451 35.2399 16.2898 35.085 16.2898 34.8939C16.2898 34.7028 16.4451 34.5479 16.6367 34.5479C16.8282 34.5479 16.9835 34.7028 16.9835 34.8939ZM13.6017 34.8939C13.6017 34.7028 13.757 34.5479 13.9485 34.5479C14.1401 34.5479 14.2954 34.7028 14.2954 34.8939C14.2954 35.085 14.1401 35.2399 13.9485 35.2399C13.757 35.2399 13.6017 35.085 13.6017 34.8939ZM19.7063 37.5929C19.7063 37.7841 19.551 37.939 19.3595 37.939C19.1679 37.939 19.0126 37.7841 19.0126 37.5929C19.0126 37.4018 19.1679 37.2469 19.3595 37.2469C19.551 37.2469 19.7063 37.4018 19.7063 37.5929ZM19.7063 36.278C19.7063 36.4691 19.551 36.624 19.3595 36.624C19.1679 36.624 19.0126 36.4691 19.0126 36.278C19.0126 36.0869 19.1679 35.932 19.3595 35.932C19.551 35.932 19.7063 36.0869 19.7063 36.278ZM13.6017 36.278C13.6017 36.0869 13.757 35.932 13.9485 35.932C14.1401 35.932 14.2954 36.0869 14.2954 36.278C14.2954 36.4691 14.1401 36.624 13.9485 36.624C13.757 36.624 13.6017 36.4691 13.6017 36.278Z" fill="#2329D6"/>
<path d="M32.4936 29.3386H36.4717" stroke="white" stroke-width="0.994528" stroke-dasharray="1.99 1.99"/>
<path d="M40.4499 36.7976H44.428" stroke="white" stroke-width="0.994528" stroke-dasharray="1.99 1.99"/>
<defs>
<filter id="filter0_f_1_1210" x="33.7698" y="21.7621" width="14.9179" height="16.9069" filterUnits="userSpaceOnUse" color-interpolation-filters="sRGB">
<feFlood flood-opacity="0" result="BackgroundImageFix"/>
<feBlend mode="normal" in="SourceGraphic" in2="BackgroundImageFix" result="shape"/>
<feGaussianBlur stdDeviation="1.98905" result="effect1_foregroundBlur_1_1210"/>
</filter>
<filter id="filter1_f_1_1210" x="30.8481" y="23.804" width="14.9894" height="17.7513" filterUnits="userSpaceOnUse" color-interpolation-filters="sRGB">
<feFlood flood-opacity="0" result="BackgroundImageFix"/>
<feBlend mode="normal" in="SourceGraphic" in2="BackgroundImageFix" result="shape"/>
<feGaussianBlur stdDeviation="1.49179" result="effect1_foregroundBlur_1_1210"/>
</filter>
<filter id="filter2_f_1_1210" x="38.7382" y="26.9219" width="5.21765" height="5.47988" filterUnits="userSpaceOnUse" color-interpolation-filters="sRGB">
<feFlood flood-opacity="0" result="BackgroundImageFix"/>
<feBlend mode="normal" in="SourceGraphic" in2="BackgroundImageFix" result="shape"/>
<feGaussianBlur stdDeviation="0.248632" result="effect1_foregroundBlur_1_1210"/>
</filter>
<filter id="filter3_f_1_1210" x="30.7863" y="9.33049" width="14.9179" height="16.9069" filterUnits="userSpaceOnUse" color-interpolation-filters="sRGB">
<feFlood flood-opacity="0" result="BackgroundImageFix"/>
<feBlend mode="normal" in="SourceGraphic" in2="BackgroundImageFix" result="shape"/>
<feGaussianBlur stdDeviation="1.98905" result="effect1_foregroundBlur_1_1210"/>
</filter>
<filter id="filter4_f_1_1210" x="27.8646" y="11.3724" width="14.9894" height="17.7513" filterUnits="userSpaceOnUse" color-interpolation-filters="sRGB">
<feFlood flood-opacity="0" result="BackgroundImageFix"/>
<feBlend mode="normal" in="SourceGraphic" in2="BackgroundImageFix" result="shape"/>
<feGaussianBlur stdDeviation="1.49179" result="effect1_foregroundBlur_1_1210"/>
</filter>
<filter id="filter5_f_1_1210" x="35.7547" y="14.4903" width="5.21765" height="5.47988" filterUnits="userSpaceOnUse" color-interpolation-filters="sRGB">
<feFlood flood-opacity="0" result="BackgroundImageFix"/>
<feBlend mode="normal" in="SourceGraphic" in2="BackgroundImageFix" result="shape"/>
<feGaussianBlur stdDeviation="0.248632" result="effect1_foregroundBlur_1_1210"/>
</filter>
<filter id="filter6_f_1_1210" x="19.4534" y="28.6105" width="21.9203" height="13.9052" filterUnits="userSpaceOnUse" color-interpolation-filters="sRGB">
<feFlood flood-opacity="0" result="BackgroundImageFix"/>
<feBlend mode="normal" in="SourceGraphic" in2="BackgroundImageFix" result="shape"/>
<feGaussianBlur stdDeviation="0.745895" result="effect1_foregroundBlur_1_1210"/>
</filter>
<filter id="filter7_f_1_1210" x="24.5017" y="26.9431" width="14.5027" height="17.623" filterUnits="userSpaceOnUse" color-interpolation-filters="sRGB">
<feFlood flood-opacity="0" result="BackgroundImageFix"/>
<feBlend mode="normal" in="SourceGraphic" in2="BackgroundImageFix" result="shape"/>
<feGaussianBlur stdDeviation="1.24316" result="effect1_foregroundBlur_1_1210"/>
</filter>
<filter id="filter8_f_1_1210" x="28.9569" y="31.0919" width="7.68215" height="8.88993" filterUnits="userSpaceOnUse" color-interpolation-filters="sRGB">
<feFlood flood-opacity="0" result="BackgroundImageFix"/>
<feBlend mode="normal" in="SourceGraphic" in2="BackgroundImageFix" result="shape"/>
<feGaussianBlur stdDeviation="0.497264" result="effect1_foregroundBlur_1_1210"/>
</filter>
<filter id="filter9_biiii_1_1210" x="13.7215" y="16.6135" width="29.7285" height="23.4666" filterUnits="userSpaceOnUse" color-interpolation-filters="sRGB">
<feFlood flood-opacity="0" result="BackgroundImageFix"/>
<feGaussianBlur in="BackgroundImageFix" stdDeviation="0.994528"/>
<feComposite in2="SourceAlpha" operator="in" result="effect1_backgroundBlur_1_1210"/>
<feBlend mode="normal" in="SourceGraphic" in2="effect1_backgroundBlur_1_1210" result="shape"/>
<feColorMatrix in="SourceAlpha" type="matrix" values="0 0 0 0 0 0 0 0 0 0 0 0 0 0 0 0 0 0 127 0" result="hardAlpha"/>
<feOffset dy="0.497264"/>
<feGaussianBlur stdDeviation="0.994528"/>
<feComposite in2="hardAlpha" operator="arithmetic" k2="-1" k3="1"/>
<feColorMatrix type="matrix" values="0 0 0 0 1 0 0 0 0 1 0 0 0 0 1 0 0 0 0.3 0"/>
<feBlend mode="normal" in2="shape" result="effect2_innerShadow_1_1210"/>
<feColorMatrix in="SourceAlpha" type="matrix" values="0 0 0 0 0 0 0 0 0 0 0 0 0 0 0 0 0 0 127 0" result="hardAlpha"/>
<feOffset dy="-0.497264"/>
<feGaussianBlur stdDeviation="0.994528"/>
<feComposite in2="hardAlpha" operator="arithmetic" k2="-1" k3="1"/>
<feColorMatrix type="matrix" values="0 0 0 0 1 0 0 0 0 1 0 0 0 0 1 0 0 0 0.5 0"/>
<feBlend mode="normal" in2="effect2_innerShadow_1_1210" result="effect3_innerShadow_1_1210"/>
<feColorMatrix in="SourceAlpha" type="matrix" values="0 0 0 0 0 0 0 0 0 0 0 0 0 0 0 0 0 0 127 0" result="hardAlpha"/>
<feOffset dy="0.497264"/>
<feGaussianBlur stdDeviation="10.9398"/>
<feComposite in2="hardAlpha" operator="arithmetic" k2="-1" k3="1"/>
<feColorMatrix type="matrix" values="0 0 0 0 1 0 0 0 0 1 0 0 0 0 1 0 0 0 0.45 0"/>
<feBlend mode="normal" in2="effect3_innerShadow_1_1210" result="effect4_innerShadow_1_1210"/>
<feColorMatrix in="SourceAlpha" type="matrix" values="0 0 0 0 0 0 0 0 0 0 0 0 0 0 0 0 0 0 127 0" result="hardAlpha"/>
<feOffset dx="0.497264" dy="0.497264"/>
<feGaussianBlur stdDeviation="0.497264"/>
<feComposite in2="hardAlpha" operator="arithmetic" k2="-1" k3="1"/>
<feColorMatrix type="matrix" values="0 0 0 0 1 0 0 0 0 1 0 0 0 0 1 0 0 0 1 0"/>
<feBlend mode="normal" in2="effect4_innerShadow_1_1210" result="effect5_innerShadow_1_1210"/>
</filter>
<filter id="filter10_f_1_1210" x="10.1697" y="14.3991" width="10.6377" height="10.6219" filterUnits="userSpaceOnUse" color-interpolation-filters="sRGB">
<feFlood flood-opacity="0" result="BackgroundImageFix"/>
<feBlend mode="normal" in="SourceGraphic" in2="BackgroundImageFix" result="shape"/>
<feGaussianBlur stdDeviation="0.994528" result="effect1_foregroundBlur_1_1210"/>
</filter>
<filter id="filter11_biii_1_1210" x="9.66443" y="12.565" width="11.6483" height="11.6325" filterUnits="userSpaceOnUse" color-interpolation-filters="sRGB">
<feFlood flood-opacity="0" result="BackgroundImageFix"/>
<feGaussianBlur in="BackgroundImageFix" stdDeviation="1.24718"/>
<feComposite in2="SourceAlpha" operator="in" result="effect1_backgroundBlur_1_1210"/>
<feBlend mode="normal" in="SourceGraphic" in2="effect1_backgroundBlur_1_1210" result="shape"/>
<feColorMatrix in="SourceAlpha" type="matrix" values="0 0 0 0 0 0 0 0 0 0 0 0 0 0 0 0 0 0 127 0" result="hardAlpha"/>
<feOffset dy="0.623588"/>
<feGaussianBlur stdDeviation="1.24718"/>
<feComposite in2="hardAlpha" operator="arithmetic" k2="-1" k3="1"/>
<feColorMatrix type="matrix" values="0 0 0 0 1 0 0 0 0 1 0 0 0 0 1 0 0 0 0.3 0"/>
<feBlend mode="normal" in2="shape" result="effect2_innerShadow_1_1210"/>
<feColorMatrix in="SourceAlpha" type="matrix" values="0 0 0 0 0 0 0 0 0 0 0 0 0 0 0 0 0 0 127 0" result="hardAlpha"/>
<feOffset dy="-0.623588"/>
<feGaussianBlur stdDeviation="1.24718"/>
<feComposite in2="hardAlpha" operator="arithmetic" k2="-1" k3="1"/>
<feColorMatrix type="matrix" values="0 0 0 0 1 0 0 0 0 1 0 0 0 0 1 0 0 0 0.5 0"/>
<feBlend mode="normal" in2="effect2_innerShadow_1_1210" result="effect3_innerShadow_1_1210"/>
<feColorMatrix in="SourceAlpha" type="matrix" values="0 0 0 0 0 0 0 0 0 0 0 0 0 0 0 0 0 0 127 0" result="hardAlpha"/>
<feOffset dy="0.623588"/>
<feGaussianBlur stdDeviation="0.311794"/>
<feComposite in2="hardAlpha" operator="arithmetic" k2="-1" k3="1"/>
<feColorMatrix type="matrix" values="0 0 0 0 1 0 0 0 0 1 0 0 0 0 1 0 0 0 0.95 0"/>
<feBlend mode="normal" in2="effect3_innerShadow_1_1210" result="effect4_innerShadow_1_1210"/>
</filter>
<linearGradient id="paint0_linear_1_1210" x1="46.0339" y1="26.8527" x2="33.7941" y2="34.1458" gradientUnits="userSpaceOnUse">
<stop offset="0.0941878" stop-color="#FFE5DC"/>
<stop offset="0.230705" stop-color="#FFFFE7" stop-opacity="0"/>
</linearGradient>
<linearGradient id="paint1_linear_1_1210" x1="43.0496" y1="30.496" x2="33.3146" y2="28.8543" gradientUnits="userSpaceOnUse">
<stop stop-color="#FFFFE6"/>
<stop offset="0.360807" stop-color="#D5FFFF"/>
<stop offset="0.977083" stop-color="#D5FFFF" stop-opacity="0"/>
</linearGradient>
<linearGradient id="paint2_linear_1_1210" x1="43.4169" y1="32.0591" x2="33.8899" y2="37.7915" gradientUnits="userSpaceOnUse">
<stop offset="0.0153056" stop-color="#D4FFE7"/>
<stop offset="0.312156" stop-color="#D5FFFF" stop-opacity="0"/>
</linearGradient>
<linearGradient id="paint3_linear_1_1210" x1="43.0504" y1="14.4211" x2="30.8106" y2="21.7142" gradientUnits="userSpaceOnUse">
<stop offset="0.0941878" stop-color="#FFE5DC"/>
<stop offset="0.230705" stop-color="#FFFFE7" stop-opacity="0"/>
</linearGradient>
<linearGradient id="paint4_linear_1_1210" x1="40.0661" y1="18.0644" x2="30.3311" y2="16.4226" gradientUnits="userSpaceOnUse">
<stop stop-color="#FFFFE6"/>
<stop offset="0.360807" stop-color="#D5FFFF"/>
<stop offset="0.977083" stop-color="#D5FFFF" stop-opacity="0"/>
</linearGradient>
<linearGradient id="paint5_linear_1_1210" x1="40.4334" y1="19.6274" x2="30.9063" y2="25.3598" gradientUnits="userSpaceOnUse">
<stop offset="0.0153056" stop-color="#D4FFE7"/>
<stop offset="0.312156" stop-color="#D5FFFF" stop-opacity="0"/>
</linearGradient>
</defs>
</svg>
