<svg width="57" height="58" viewBox="0 0 57 58" fill="none" xmlns="http://www.w3.org/2000/svg">
<ellipse cx="24.5331" cy="24.7959" rx="11.0993" ry="11.073" fill="#2329D6"/>
<g filter="url(#filter0_f_1_1263)">
<ellipse cx="35.6325" cy="33.6545" rx="3.99575" ry="3.98629" fill="#2329D6"/>
</g>
<ellipse cx="31.1926" cy="33.2115" rx="11.0993" ry="11.073" fill="#A9CFFF"/>
<path d="M20.5374 19.1858V25.0914" stroke="white" stroke-width="0.895075" stroke-linecap="round" stroke-linejoin="round"/>
<path d="M22.3132 20.9573V23.3195" stroke="white" stroke-width="0.895075" stroke-linecap="round" stroke-linejoin="round"/>
<path d="M24.0891 19.7764V24.5009" stroke="white" stroke-width="0.895075" stroke-linecap="round" stroke-linejoin="round"/>
<path d="M25.865 22.729V21.5479" stroke="white" stroke-width="0.895075" stroke-linecap="round" stroke-linejoin="round"/>
<path d="M18.7614 17.4141V26.8631" stroke="white" stroke-width="0.895075" stroke-linecap="round" stroke-linejoin="round"/>
<path d="M16.9856 20.3669V23.9103" stroke="white" stroke-width="0.895075" stroke-linecap="round" stroke-linejoin="round"/>
<path d="M15.2097 22.729V21.5479" stroke="white" stroke-width="0.895075" stroke-linecap="round" stroke-linejoin="round"/>
<rect x="31.9395" y="41.2109" width="3.97811" height="3.97811" fill="#ED392D"/>
<g filter="url(#filter1_biiii_1_1263)">
<ellipse cx="28.5289" cy="28.7824" rx="11.9872" ry="11.9589" fill="white" fill-opacity="0.2"/>
</g>
<g filter="url(#filter2_f_1_1263)">
<path d="M33.3874 27.2417L31.5346 33.0764C31.4659 33.3157 31.2715 33.5094 31.0313 33.579L25.1983 35.4011C24.8094 35.5276 24.432 35.1504 24.5578 34.763L26.3878 28.9169C26.4564 28.6776 26.6508 28.4953 26.891 28.4155L32.7469 26.5922C33.1472 26.4668 33.5132 26.8429 33.3874 27.2417Z" fill="#A9CFFF"/>
</g>
<g filter="url(#filter3_biii_1_1263)">
<path d="M32.9434 25.0271L31.0906 30.8618C31.022 31.1011 30.8275 31.2948 30.5874 31.3644L24.7543 33.1865C24.3655 33.313 23.988 32.9358 24.1138 32.5484L25.9438 26.7023C26.0124 26.463 26.2069 26.2807 26.447 26.2009L32.3029 24.3776C32.7033 24.2522 33.0692 24.6283 32.9434 25.0271Z" fill="white" fill-opacity="0.2"/>
</g>
<path d="M37.1065 33.7619V31.3191H34.658V33.7619H37.1065Z" stroke="#050121" stroke-width="0.607608" stroke-linecap="round" stroke-linejoin="round"/>
<path d="M35.7072 32.366H36.057V32.7158H35.7072V32.366Z" stroke="#050121" stroke-width="0.607608" stroke-linecap="round" stroke-linejoin="round"/>
<path d="M37.1065 37.6005V35.1577H34.658V37.6005H37.1065Z" stroke="#050121" stroke-width="0.607608" stroke-linecap="round" stroke-linejoin="round"/>
<path d="M36.0568 36.2046H35.707V36.5544H36.0568V36.2046Z" stroke="#050121" stroke-width="0.607608" stroke-linecap="round" stroke-linejoin="round"/>
<path d="M38.8551 37.2515H38.5053V37.6013H38.8551V37.2515Z" stroke="#050121" stroke-width="0.607608" stroke-linecap="round" stroke-linejoin="round"/>
<path d="M39.9043 36.2046H39.5545V36.5544H39.9043V36.2046Z" stroke="#050121" stroke-width="0.607608" stroke-linecap="round" stroke-linejoin="round"/>
<path d="M38.8551 35.1577H38.5053V35.5075H38.8551V35.1577Z" stroke="#050121" stroke-width="0.607608" stroke-linecap="round" stroke-linejoin="round"/>
<path d="M40.9534 36.2046H40.6036V36.5544H40.9534V36.2046Z" stroke="#050121" stroke-width="0.607608" stroke-linecap="round" stroke-linejoin="round"/>
<path d="M40.9534 35.1577H40.6036V35.5075H40.9534V35.1577Z" stroke="#050121" stroke-width="0.607608" stroke-linecap="round" stroke-linejoin="round"/>
<path d="M40.9534 37.2515H40.6036V37.6013H40.9534V37.2515Z" stroke="#050121" stroke-width="0.607608" stroke-linecap="round" stroke-linejoin="round"/>
<path d="M40.9537 33.7619V31.3191H38.5051V33.7619H40.9537Z" stroke="#050121" stroke-width="0.607608" stroke-linecap="round" stroke-linejoin="round"/>
<path d="M39.9043 32.366H39.5545V32.7158H39.9043V32.366Z" stroke="#050121" stroke-width="0.607608" stroke-linecap="round" stroke-linejoin="round"/>
<circle cx="44.1226" cy="20.0773" r="6.21579" stroke="white" stroke-width="1.98906" stroke-dasharray="1.3 1.3"/>
<g filter="url(#filter4_f_1_1263)">
<path d="M44.0893 18.2189C44.0893 16.2965 42.5309 14.738 40.6084 14.738C38.686 14.738 37.1276 16.2965 37.1276 18.2189V20.2079C37.1276 22.1304 38.686 23.6888 40.6084 23.6888C42.5309 23.6888 44.0893 22.1304 44.0893 20.2079V18.2189Z" fill="#FFFFE7"/>
</g>
<path d="M42.7771 17.1871C42.1268 15.3502 40.1054 14.3739 38.2623 15.0065C36.4192 15.6391 35.4523 17.6411 36.1026 19.478L37.0189 22.0661C37.2022 22.5839 37.772 22.859 38.2915 22.6807L43.0847 21.0356C43.6042 20.8573 43.8767 20.293 43.6934 19.7752L42.7771 17.1871Z" fill="url(#paint0_linear_1_1263)"/>
<g filter="url(#filter5_f_1_1263)">
<path d="M46.9519 18.8684C46.4109 16.7059 44.2157 15.3765 42.0487 15.8991C39.8817 16.4217 38.5636 18.5984 39.1046 20.7608L40.0368 24.4868C40.5778 26.6492 42.773 27.9786 44.94 27.456C47.107 26.9334 48.4251 24.7568 47.8841 22.5943L46.9519 18.8684Z" fill="url(#paint1_linear_1_1263)"/>
</g>
<g style="mix-blend-mode:luminosity">
<path d="M46.2018 18.1516C45.1804 16.1769 42.7396 15.3803 40.7501 16.3723C38.7605 17.3643 37.9756 19.7692 38.997 21.7438L40.7865 25.2037C41.8079 27.1783 44.2487 27.9749 46.2382 26.9829C48.2278 25.991 49.0127 23.5861 47.9913 21.6114L46.2018 18.1516Z" fill="url(#paint2_linear_1_1263)"/>
</g>
<g filter="url(#filter6_f_1_1263)">
<path d="M42.1114 16.7447C41.5275 16.2506 40.6537 16.3234 40.1596 16.9073L38.706 18.6249C38.2124 19.2082 38.2851 20.0812 38.8684 20.5748C39.3267 20.9626 39.9829 21.0107 40.4927 20.6937L41.8847 19.8282L42.4987 18.3258C42.7256 17.7705 42.5693 17.1322 42.1114 16.7447Z" fill="white"/>
</g>
<rect x="34.4259" y="41.2109" width="1.98905" height="1.98905" fill="#ED392D"/>
<defs>
<filter id="filter0_f_1_1263" x="17.2161" y="15.2476" width="36.8328" height="36.814" filterUnits="userSpaceOnUse" color-interpolation-filters="sRGB">
<feFlood flood-opacity="0" result="BackgroundImageFix"/>
<feBlend mode="normal" in="SourceGraphic" in2="BackgroundImageFix" result="shape"/>
<feGaussianBlur stdDeviation="7.21033" result="effect1_foregroundBlur_1_1263"/>
</filter>
<filter id="filter1_biiii_1_1263" x="14.5526" y="14.8344" width="27.9526" height="27.8958" filterUnits="userSpaceOnUse" color-interpolation-filters="sRGB">
<feFlood flood-opacity="0" result="BackgroundImageFix"/>
<feGaussianBlur in="BackgroundImageFix" stdDeviation="0.994528"/>
<feComposite in2="SourceAlpha" operator="in" result="effect1_backgroundBlur_1_1263"/>
<feBlend mode="normal" in="SourceGraphic" in2="effect1_backgroundBlur_1_1263" result="shape"/>
<feColorMatrix in="SourceAlpha" type="matrix" values="0 0 0 0 0 0 0 0 0 0 0 0 0 0 0 0 0 0 127 0" result="hardAlpha"/>
<feOffset dy="0.497264"/>
<feGaussianBlur stdDeviation="0.994528"/>
<feComposite in2="hardAlpha" operator="arithmetic" k2="-1" k3="1"/>
<feColorMatrix type="matrix" values="0 0 0 0 1 0 0 0 0 1 0 0 0 0 1 0 0 0 0.3 0"/>
<feBlend mode="normal" in2="shape" result="effect2_innerShadow_1_1263"/>
<feColorMatrix in="SourceAlpha" type="matrix" values="0 0 0 0 0 0 0 0 0 0 0 0 0 0 0 0 0 0 127 0" result="hardAlpha"/>
<feOffset dy="-0.497264"/>
<feGaussianBlur stdDeviation="0.994528"/>
<feComposite in2="hardAlpha" operator="arithmetic" k2="-1" k3="1"/>
<feColorMatrix type="matrix" values="0 0 0 0 1 0 0 0 0 1 0 0 0 0 1 0 0 0 0.5 0"/>
<feBlend mode="normal" in2="effect2_innerShadow_1_1263" result="effect3_innerShadow_1_1263"/>
<feColorMatrix in="SourceAlpha" type="matrix" values="0 0 0 0 0 0 0 0 0 0 0 0 0 0 0 0 0 0 127 0" result="hardAlpha"/>
<feOffset dy="0.497264"/>
<feGaussianBlur stdDeviation="10.9398"/>
<feComposite in2="hardAlpha" operator="arithmetic" k2="-1" k3="1"/>
<feColorMatrix type="matrix" values="0 0 0 0 1 0 0 0 0 1 0 0 0 0 1 0 0 0 0.45 0"/>
<feBlend mode="normal" in2="effect3_innerShadow_1_1263" result="effect4_innerShadow_1_1263"/>
<feColorMatrix in="SourceAlpha" type="matrix" values="0 0 0 0 0 0 0 0 0 0 0 0 0 0 0 0 0 0 127 0" result="hardAlpha"/>
<feOffset dx="0.497264" dy="0.497264"/>
<feGaussianBlur stdDeviation="0.497264"/>
<feComposite in2="hardAlpha" operator="arithmetic" k2="-1" k3="1"/>
<feColorMatrix type="matrix" values="0 0 0 0 1 0 0 0 0 1 0 0 0 0 1 0 0 0 1 0"/>
<feBlend mode="normal" in2="effect4_innerShadow_1_1263" result="effect5_innerShadow_1_1263"/>
</filter>
<filter id="filter2_f_1_1263" x="22.5441" y="24.5786" width="12.8576" height="12.8365" filterUnits="userSpaceOnUse" color-interpolation-filters="sRGB">
<feFlood flood-opacity="0" result="BackgroundImageFix"/>
<feBlend mode="normal" in="SourceGraphic" in2="BackgroundImageFix" result="shape"/>
<feGaussianBlur stdDeviation="0.994528" result="effect1_foregroundBlur_1_1263"/>
</filter>
<filter id="filter3_biii_1_1263" x="21.5948" y="21.8587" width="13.8681" height="13.8471" filterUnits="userSpaceOnUse" color-interpolation-filters="sRGB">
<feFlood flood-opacity="0" result="BackgroundImageFix"/>
<feGaussianBlur in="BackgroundImageFix" stdDeviation="1.24718"/>
<feComposite in2="SourceAlpha" operator="in" result="effect1_backgroundBlur_1_1263"/>
<feBlend mode="normal" in="SourceGraphic" in2="effect1_backgroundBlur_1_1263" result="shape"/>
<feColorMatrix in="SourceAlpha" type="matrix" values="0 0 0 0 0 0 0 0 0 0 0 0 0 0 0 0 0 0 127 0" result="hardAlpha"/>
<feOffset dy="0.623588"/>
<feGaussianBlur stdDeviation="1.24718"/>
<feComposite in2="hardAlpha" operator="arithmetic" k2="-1" k3="1"/>
<feColorMatrix type="matrix" values="0 0 0 0 1 0 0 0 0 1 0 0 0 0 1 0 0 0 0.3 0"/>
<feBlend mode="normal" in2="shape" result="effect2_innerShadow_1_1263"/>
<feColorMatrix in="SourceAlpha" type="matrix" values="0 0 0 0 0 0 0 0 0 0 0 0 0 0 0 0 0 0 127 0" result="hardAlpha"/>
<feOffset dy="-0.623588"/>
<feGaussianBlur stdDeviation="1.24718"/>
<feComposite in2="hardAlpha" operator="arithmetic" k2="-1" k3="1"/>
<feColorMatrix type="matrix" values="0 0 0 0 1 0 0 0 0 1 0 0 0 0 1 0 0 0 0.5 0"/>
<feBlend mode="normal" in2="effect2_innerShadow_1_1263" result="effect3_innerShadow_1_1263"/>
<feColorMatrix in="SourceAlpha" type="matrix" values="0 0 0 0 0 0 0 0 0 0 0 0 0 0 0 0 0 0 127 0" result="hardAlpha"/>
<feOffset dy="0.623588"/>
<feGaussianBlur stdDeviation="0.311794"/>
<feComposite in2="hardAlpha" operator="arithmetic" k2="-1" k3="1"/>
<feColorMatrix type="matrix" values="0 0 0 0 1 0 0 0 0 1 0 0 0 0 1 0 0 0 0.95 0"/>
<feBlend mode="normal" in2="effect3_innerShadow_1_1263" result="effect4_innerShadow_1_1263"/>
</filter>
<filter id="filter4_f_1_1263" x="33.1495" y="10.7599" width="14.9179" height="16.9069" filterUnits="userSpaceOnUse" color-interpolation-filters="sRGB">
<feFlood flood-opacity="0" result="BackgroundImageFix"/>
<feBlend mode="normal" in="SourceGraphic" in2="BackgroundImageFix" result="shape"/>
<feGaussianBlur stdDeviation="1.98905" result="effect1_foregroundBlur_1_1263"/>
</filter>
<filter id="filter5_f_1_1263" x="35.9996" y="12.8018" width="14.9894" height="17.7513" filterUnits="userSpaceOnUse" color-interpolation-filters="sRGB">
<feFlood flood-opacity="0" result="BackgroundImageFix"/>
<feBlend mode="normal" in="SourceGraphic" in2="BackgroundImageFix" result="shape"/>
<feGaussianBlur stdDeviation="1.49179" result="effect1_foregroundBlur_1_1263"/>
</filter>
<filter id="filter6_f_1_1263" x="37.8813" y="15.9197" width="5.21765" height="5.47988" filterUnits="userSpaceOnUse" color-interpolation-filters="sRGB">
<feFlood flood-opacity="0" result="BackgroundImageFix"/>
<feBlend mode="normal" in="SourceGraphic" in2="BackgroundImageFix" result="shape"/>
<feGaussianBlur stdDeviation="0.248632" result="effect1_foregroundBlur_1_1263"/>
</filter>
<linearGradient id="paint0_linear_1_1263" x1="35.8033" y1="15.8505" x2="48.0431" y2="23.1436" gradientUnits="userSpaceOnUse">
<stop offset="0.0941878" stop-color="#FFE5DC"/>
<stop offset="0.230705" stop-color="#FFFFE7" stop-opacity="0"/>
</linearGradient>
<linearGradient id="paint1_linear_1_1263" x1="38.7876" y1="19.4938" x2="48.5225" y2="17.8521" gradientUnits="userSpaceOnUse">
<stop stop-color="#FFFFE6"/>
<stop offset="0.360807" stop-color="#D5FFFF"/>
<stop offset="0.977083" stop-color="#D5FFFF" stop-opacity="0"/>
</linearGradient>
<linearGradient id="paint2_linear_1_1263" x1="38.4203" y1="21.0569" x2="47.9473" y2="26.7893" gradientUnits="userSpaceOnUse">
<stop offset="0.0153056" stop-color="#D4FFE7"/>
<stop offset="0.312156" stop-color="#D5FFFF" stop-opacity="0"/>
</linearGradient>
</defs>
</svg>
