<svg width="57" height="58" viewBox="0 0 57 58" fill="none" xmlns="http://www.w3.org/2000/svg">
<path d="M37.2936 33.4063V33.0793C37.2936 32.7048 36.9893 32.4011 36.6138 32.4011H31.7579C31.3824 32.4011 31.078 32.7048 31.078 33.0793V33.4063C31.078 33.4398 31.1052 33.4669 31.1387 33.4669H37.2329C37.2665 33.4669 37.2936 33.4398 37.2936 33.4063Z" fill="#F84031"/>
<path d="M31.0781 33.915V35.986C31.0781 36.3606 31.3824 36.6643 31.7579 36.6643H36.6138C36.9893 36.6643 37.2937 36.3606 37.2937 35.986V33.915C37.2937 33.8816 37.2665 33.8545 37.233 33.8545H31.1388C31.1052 33.8545 31.0781 33.8816 31.0781 33.915ZM32.632 35.5016C32.632 35.6086 32.545 35.6954 32.4377 35.6954H32.2435C32.1362 35.6954 32.0493 35.6086 32.0493 35.5016V35.3078C32.0493 35.2008 32.1362 35.114 32.2435 35.114H32.4377C32.545 35.114 32.632 35.2008 32.632 35.3078V35.5016Z" fill="#F84031"/>
<path d="M27.7431 33.2039C28.6047 33.2039 29.3022 33.8997 29.3022 34.7592C29.3022 35.6085 28.6047 36.3043 27.7431 36.3043C26.8918 36.3043 26.1944 35.6085 26.1944 34.7592C26.1944 33.8997 26.8918 33.2039 27.7431 33.2039Z" fill="#2329D6"/>
<path d="M17.9757 33.2039C18.8373 33.2039 19.5348 33.8997 19.5348 34.7592C19.5348 35.6085 18.8373 36.3043 17.9757 36.3043C17.1244 36.3043 16.427 35.6085 16.427 34.7592C16.427 33.8997 17.1244 33.2039 17.9757 33.2039Z" fill="#2329D6"/>
<path fill-rule="evenodd" clip-rule="evenodd" d="M32.4008 19.7201C31.9639 19.2055 31.527 18.9706 30.8607 18.9706H17.2396C15.5308 18.9706 15.9074 15.4871 13.3192 15.4871L14.324 28.8155C14.4442 30.2922 15.6456 31.4322 17.0983 31.4322H29.0148C30.402 31.4322 31.5816 30.3929 31.7782 28.9822L32.8159 21.6432C32.9142 20.9731 32.8377 20.2347 32.4008 19.7201Z" fill="#2329D6"/>
<g filter="url(#filter0_biii_1_1453)">
<path fill-rule="evenodd" clip-rule="evenodd" d="M18.7726 24.3454H22.5168C23.0845 24.3454 23.5305 23.9438 23.5305 23.4596C23.5305 22.9635 23.0845 22.5737 22.5168 22.5737H18.7726C18.2049 22.5737 17.7589 22.9635 17.7589 23.4596C17.7589 23.9438 18.2049 24.3454 18.7726 24.3454Z" fill="white"/>
</g>
<g filter="url(#filter1_biiii_1_1453)">
<path fill-rule="evenodd" clip-rule="evenodd" d="M16.57 24.4392C17.136 23.7816 17.702 23.4814 18.5651 23.4814H36.2106C38.4243 23.4814 37.9365 19.0303 41.2894 19.0303L39.9876 36.061C39.832 37.948 38.2755 39.4047 36.3936 39.4047H20.9564C19.1594 39.4047 17.6312 38.0766 17.3765 36.274L16.0323 26.8965C15.905 26.0402 16.004 25.0968 16.57 24.4392Z" fill="white" fill-opacity="0.2"/>
</g>
<g filter="url(#filter2_f_1_1453)">
<path fill-rule="evenodd" clip-rule="evenodd" d="M29.0079 29.6605H34.4801C35.3098 29.6605 35.9617 29.0581 35.9617 28.3317C35.9617 27.5876 35.3098 27.0029 34.4801 27.0029H29.0079C28.1782 27.0029 27.5263 27.5876 27.5263 28.3317C27.5263 29.0581 28.1782 29.6605 29.0079 29.6605Z" fill="#A9CFFF"/>
</g>
<g filter="url(#filter3_biii_1_1453)">
<path fill-rule="evenodd" clip-rule="evenodd" d="M29.0079 28.7747H34.4801C35.3098 28.7747 35.9617 28.1723 35.9617 27.446C35.9617 26.7018 35.3098 26.1172 34.4801 26.1172H29.0079C28.1782 26.1172 27.5263 26.7018 27.5263 27.446C27.5263 28.1723 28.1782 28.7747 29.0079 28.7747Z" fill="white" fill-opacity="0.2"/>
</g>
<g filter="url(#filter4_f_1_1453)">
<path d="M44.538 36.0585C44.538 34.1361 46.0965 32.5776 48.0189 32.5776C49.9413 32.5776 51.4997 34.1361 51.4997 36.0585V38.0475C51.4997 39.97 49.9413 41.5284 48.0189 41.5284C46.0965 41.5284 44.538 39.97 44.538 38.0475V36.0585Z" fill="#FFFFE7"/>
</g>
<path d="M45.8502 35.0267C46.5006 33.1898 48.5219 32.2135 50.365 32.8461C52.2081 33.4787 53.175 35.4807 52.5247 37.3176L51.6084 39.9057C51.4251 40.4235 50.8553 40.6986 50.3358 40.5203L45.5427 38.8752C45.0231 38.6969 44.7506 38.1326 44.9339 37.6148L45.8502 35.0267Z" fill="url(#paint0_linear_1_1453)"/>
<g filter="url(#filter5_f_1_1453)">
<path d="M41.6754 36.708C42.2164 34.5455 44.4117 33.2161 46.5786 33.7387C48.7456 34.2613 50.0637 36.438 49.5227 38.6004L48.5906 42.3264C48.0496 44.4888 45.8543 45.8182 43.6873 45.2956C41.5203 44.773 40.2022 42.5964 40.7432 40.4339L41.6754 36.708Z" fill="url(#paint1_linear_1_1453)"/>
</g>
<g style="mix-blend-mode:luminosity">
<path d="M42.4255 35.9912C43.4469 34.0165 45.8877 33.2199 47.8772 34.2119C49.8668 35.2039 50.6517 37.6088 49.6304 39.5834L47.8408 43.0433C46.8195 45.0179 44.3786 45.8145 42.3891 44.8225C40.3995 43.8306 39.6146 41.4257 40.636 39.451L42.4255 35.9912Z" fill="url(#paint2_linear_1_1453)"/>
</g>
<g filter="url(#filter6_f_1_1453)">
<path d="M46.516 34.5843C47.0998 34.0902 47.9737 34.163 48.4677 34.7469L49.9213 36.4645C50.4149 37.0478 50.3422 37.9208 49.7589 38.4144C49.3006 38.8022 48.6445 38.8503 48.1346 38.5333L46.7426 37.6678L46.1286 36.1654C45.9017 35.6101 46.0581 34.9718 46.516 34.5843Z" fill="white"/>
</g>
<path d="M43.9532 37.4937V37.0032C43.9532 36.4413 43.4967 35.9858 42.9335 35.9858H35.6496C35.0864 35.9858 34.6298 36.4413 34.6298 37.0032V37.4937C34.6298 37.5438 34.6706 37.5845 34.7209 37.5845H43.8622C43.9125 37.5845 43.9532 37.5438 43.9532 37.4937Z" fill="#E9E74C"/>
<path d="M34.6299 38.2566V41.3631C34.6299 41.925 35.0864 42.3804 35.6496 42.3804H42.9335C43.4967 42.3804 43.9533 41.925 43.9533 41.3631V38.2566C43.9533 38.2064 43.9125 38.1658 43.8622 38.1658H34.7209C34.6707 38.1658 34.6299 38.2064 34.6299 38.2566ZM36.9607 40.6364C36.9607 40.797 36.8303 40.9271 36.6694 40.9271H36.378C36.2171 40.9271 36.0867 40.797 36.0867 40.6364V40.3458C36.0867 40.1853 36.2171 40.0551 36.378 40.0551H36.6694C36.8303 40.0551 36.9607 40.1853 36.9607 40.3458V40.6364Z" fill="#E9E74C"/>
<g filter="url(#filter7_biii_1_1453)">
<rect x="36.7975" y="38.6626" width="14.4206" height="10.4425" rx="1.49179" fill="white" fill-opacity="0.2"/>
</g>
<path d="M29.3386 24.2419H33.3167" stroke="url(#paint3_linear_1_1453)" stroke-width="0.994528" stroke-dasharray="1.99 1.99"/>
<path d="M31.8248 40.6516H35.8029" stroke="url(#paint4_linear_1_1453)" stroke-width="0.994528" stroke-dasharray="1.99 1.99"/>
<rect x="44.2565" y="31.2038" width="2.98358" height="3.48084" stroke="#050121" stroke-width="0.994528" stroke-dasharray="1.99 1.99"/>
<circle cx="20.3062" cy="39.0783" r="3.81112" transform="rotate(7.45291 20.3062 39.0783)" stroke="#050121" stroke-width="1.98906" stroke-dasharray="1.3 1.3"/>
<defs>
<filter id="filter0_biii_1_1453" x="15.2645" y="20.0794" width="10.7603" height="6.76043" filterUnits="userSpaceOnUse" color-interpolation-filters="sRGB">
<feFlood flood-opacity="0" result="BackgroundImageFix"/>
<feGaussianBlur in="BackgroundImageFix" stdDeviation="1.24718"/>
<feComposite in2="SourceAlpha" operator="in" result="effect1_backgroundBlur_1_1453"/>
<feBlend mode="normal" in="SourceGraphic" in2="effect1_backgroundBlur_1_1453" result="shape"/>
<feColorMatrix in="SourceAlpha" type="matrix" values="0 0 0 0 0 0 0 0 0 0 0 0 0 0 0 0 0 0 127 0" result="hardAlpha"/>
<feOffset dy="0.623588"/>
<feGaussianBlur stdDeviation="1.24718"/>
<feComposite in2="hardAlpha" operator="arithmetic" k2="-1" k3="1"/>
<feColorMatrix type="matrix" values="0 0 0 0 1 0 0 0 0 1 0 0 0 0 1 0 0 0 0.3 0"/>
<feBlend mode="normal" in2="shape" result="effect2_innerShadow_1_1453"/>
<feColorMatrix in="SourceAlpha" type="matrix" values="0 0 0 0 0 0 0 0 0 0 0 0 0 0 0 0 0 0 127 0" result="hardAlpha"/>
<feOffset dy="-0.623588"/>
<feGaussianBlur stdDeviation="1.24718"/>
<feComposite in2="hardAlpha" operator="arithmetic" k2="-1" k3="1"/>
<feColorMatrix type="matrix" values="0 0 0 0 1 0 0 0 0 1 0 0 0 0 1 0 0 0 0.5 0"/>
<feBlend mode="normal" in2="effect2_innerShadow_1_1453" result="effect3_innerShadow_1_1453"/>
<feColorMatrix in="SourceAlpha" type="matrix" values="0 0 0 0 0 0 0 0 0 0 0 0 0 0 0 0 0 0 127 0" result="hardAlpha"/>
<feOffset dy="0.623588"/>
<feGaussianBlur stdDeviation="0.311794"/>
<feComposite in2="hardAlpha" operator="arithmetic" k2="-1" k3="1"/>
<feColorMatrix type="matrix" values="0 0 0 0 1 0 0 0 0 1 0 0 0 0 1 0 0 0 0.95 0"/>
<feBlend mode="normal" in2="effect3_innerShadow_1_1453" result="effect4_innerShadow_1_1453"/>
</filter>
<filter id="filter1_biiii_1_1453" x="13.9939" y="17.0412" width="29.2845" height="24.3524" filterUnits="userSpaceOnUse" color-interpolation-filters="sRGB">
<feFlood flood-opacity="0" result="BackgroundImageFix"/>
<feGaussianBlur in="BackgroundImageFix" stdDeviation="0.994528"/>
<feComposite in2="SourceAlpha" operator="in" result="effect1_backgroundBlur_1_1453"/>
<feBlend mode="normal" in="SourceGraphic" in2="effect1_backgroundBlur_1_1453" result="shape"/>
<feColorMatrix in="SourceAlpha" type="matrix" values="0 0 0 0 0 0 0 0 0 0 0 0 0 0 0 0 0 0 127 0" result="hardAlpha"/>
<feOffset dy="0.497264"/>
<feGaussianBlur stdDeviation="0.994528"/>
<feComposite in2="hardAlpha" operator="arithmetic" k2="-1" k3="1"/>
<feColorMatrix type="matrix" values="0 0 0 0 1 0 0 0 0 1 0 0 0 0 1 0 0 0 0.3 0"/>
<feBlend mode="normal" in2="shape" result="effect2_innerShadow_1_1453"/>
<feColorMatrix in="SourceAlpha" type="matrix" values="0 0 0 0 0 0 0 0 0 0 0 0 0 0 0 0 0 0 127 0" result="hardAlpha"/>
<feOffset dy="-0.497264"/>
<feGaussianBlur stdDeviation="0.994528"/>
<feComposite in2="hardAlpha" operator="arithmetic" k2="-1" k3="1"/>
<feColorMatrix type="matrix" values="0 0 0 0 1 0 0 0 0 1 0 0 0 0 1 0 0 0 0.5 0"/>
<feBlend mode="normal" in2="effect2_innerShadow_1_1453" result="effect3_innerShadow_1_1453"/>
<feColorMatrix in="SourceAlpha" type="matrix" values="0 0 0 0 0 0 0 0 0 0 0 0 0 0 0 0 0 0 127 0" result="hardAlpha"/>
<feOffset dy="0.497264"/>
<feGaussianBlur stdDeviation="10.9398"/>
<feComposite in2="hardAlpha" operator="arithmetic" k2="-1" k3="1"/>
<feColorMatrix type="matrix" values="0 0 0 0 1 0 0 0 0 1 0 0 0 0 1 0 0 0 0.45 0"/>
<feBlend mode="normal" in2="effect3_innerShadow_1_1453" result="effect4_innerShadow_1_1453"/>
<feColorMatrix in="SourceAlpha" type="matrix" values="0 0 0 0 0 0 0 0 0 0 0 0 0 0 0 0 0 0 127 0" result="hardAlpha"/>
<feOffset dx="0.497264" dy="0.497264"/>
<feGaussianBlur stdDeviation="0.497264"/>
<feComposite in2="hardAlpha" operator="arithmetic" k2="-1" k3="1"/>
<feColorMatrix type="matrix" values="0 0 0 0 1 0 0 0 0 1 0 0 0 0 1 0 0 0 1 0"/>
<feBlend mode="normal" in2="effect4_innerShadow_1_1453" result="effect5_innerShadow_1_1453"/>
</filter>
<filter id="filter2_f_1_1453" x="25.5372" y="25.0139" width="12.4136" height="6.63558" filterUnits="userSpaceOnUse" color-interpolation-filters="sRGB">
<feFlood flood-opacity="0" result="BackgroundImageFix"/>
<feBlend mode="normal" in="SourceGraphic" in2="BackgroundImageFix" result="shape"/>
<feGaussianBlur stdDeviation="0.994528" result="effect1_foregroundBlur_1_1453"/>
</filter>
<filter id="filter3_biii_1_1453" x="25.0319" y="23.6228" width="13.4242" height="7.64617" filterUnits="userSpaceOnUse" color-interpolation-filters="sRGB">
<feFlood flood-opacity="0" result="BackgroundImageFix"/>
<feGaussianBlur in="BackgroundImageFix" stdDeviation="1.24718"/>
<feComposite in2="SourceAlpha" operator="in" result="effect1_backgroundBlur_1_1453"/>
<feBlend mode="normal" in="SourceGraphic" in2="effect1_backgroundBlur_1_1453" result="shape"/>
<feColorMatrix in="SourceAlpha" type="matrix" values="0 0 0 0 0 0 0 0 0 0 0 0 0 0 0 0 0 0 127 0" result="hardAlpha"/>
<feOffset dy="0.623588"/>
<feGaussianBlur stdDeviation="1.24718"/>
<feComposite in2="hardAlpha" operator="arithmetic" k2="-1" k3="1"/>
<feColorMatrix type="matrix" values="0 0 0 0 1 0 0 0 0 1 0 0 0 0 1 0 0 0 0.3 0"/>
<feBlend mode="normal" in2="shape" result="effect2_innerShadow_1_1453"/>
<feColorMatrix in="SourceAlpha" type="matrix" values="0 0 0 0 0 0 0 0 0 0 0 0 0 0 0 0 0 0 127 0" result="hardAlpha"/>
<feOffset dy="-0.623588"/>
<feGaussianBlur stdDeviation="1.24718"/>
<feComposite in2="hardAlpha" operator="arithmetic" k2="-1" k3="1"/>
<feColorMatrix type="matrix" values="0 0 0 0 1 0 0 0 0 1 0 0 0 0 1 0 0 0 0.5 0"/>
<feBlend mode="normal" in2="effect2_innerShadow_1_1453" result="effect3_innerShadow_1_1453"/>
<feColorMatrix in="SourceAlpha" type="matrix" values="0 0 0 0 0 0 0 0 0 0 0 0 0 0 0 0 0 0 127 0" result="hardAlpha"/>
<feOffset dy="0.623588"/>
<feGaussianBlur stdDeviation="0.311794"/>
<feComposite in2="hardAlpha" operator="arithmetic" k2="-1" k3="1"/>
<feColorMatrix type="matrix" values="0 0 0 0 1 0 0 0 0 1 0 0 0 0 1 0 0 0 0.95 0"/>
<feBlend mode="normal" in2="effect3_innerShadow_1_1453" result="effect4_innerShadow_1_1453"/>
</filter>
<filter id="filter4_f_1_1453" x="40.5599" y="28.5995" width="14.9179" height="16.9069" filterUnits="userSpaceOnUse" color-interpolation-filters="sRGB">
<feFlood flood-opacity="0" result="BackgroundImageFix"/>
<feBlend mode="normal" in="SourceGraphic" in2="BackgroundImageFix" result="shape"/>
<feGaussianBlur stdDeviation="1.98905" result="effect1_foregroundBlur_1_1453"/>
</filter>
<filter id="filter5_f_1_1453" x="37.6383" y="30.6414" width="14.9894" height="17.7513" filterUnits="userSpaceOnUse" color-interpolation-filters="sRGB">
<feFlood flood-opacity="0" result="BackgroundImageFix"/>
<feBlend mode="normal" in="SourceGraphic" in2="BackgroundImageFix" result="shape"/>
<feGaussianBlur stdDeviation="1.49179" result="effect1_foregroundBlur_1_1453"/>
</filter>
<filter id="filter6_f_1_1453" x="45.5284" y="33.7593" width="5.21764" height="5.47988" filterUnits="userSpaceOnUse" color-interpolation-filters="sRGB">
<feFlood flood-opacity="0" result="BackgroundImageFix"/>
<feBlend mode="normal" in="SourceGraphic" in2="BackgroundImageFix" result="shape"/>
<feGaussianBlur stdDeviation="0.248632" result="effect1_foregroundBlur_1_1453"/>
</filter>
<filter id="filter7_biii_1_1453" x="36.1819" y="38.0469" width="15.652" height="11.674" filterUnits="userSpaceOnUse" color-interpolation-filters="sRGB">
<feFlood flood-opacity="0" result="BackgroundImageFix"/>
<feGaussianBlur in="BackgroundImageFix" stdDeviation="0.307833"/>
<feComposite in2="SourceAlpha" operator="in" result="effect1_backgroundBlur_1_1453"/>
<feBlend mode="normal" in="SourceGraphic" in2="effect1_backgroundBlur_1_1453" result="shape"/>
<feColorMatrix in="SourceAlpha" type="matrix" values="0 0 0 0 0 0 0 0 0 0 0 0 0 0 0 0 0 0 127 0" result="hardAlpha"/>
<feOffset dy="0.153916"/>
<feGaussianBlur stdDeviation="0.307833"/>
<feComposite in2="hardAlpha" operator="arithmetic" k2="-1" k3="1"/>
<feColorMatrix type="matrix" values="0 0 0 0 1 0 0 0 0 1 0 0 0 0 1 0 0 0 0.3 0"/>
<feBlend mode="normal" in2="shape" result="effect2_innerShadow_1_1453"/>
<feColorMatrix in="SourceAlpha" type="matrix" values="0 0 0 0 0 0 0 0 0 0 0 0 0 0 0 0 0 0 127 0" result="hardAlpha"/>
<feOffset dy="-0.153916"/>
<feGaussianBlur stdDeviation="0.307833"/>
<feComposite in2="hardAlpha" operator="arithmetic" k2="-1" k3="1"/>
<feColorMatrix type="matrix" values="0 0 0 0 1 0 0 0 0 1 0 0 0 0 1 0 0 0 0.5 0"/>
<feBlend mode="normal" in2="effect2_innerShadow_1_1453" result="effect3_innerShadow_1_1453"/>
<feColorMatrix in="SourceAlpha" type="matrix" values="0 0 0 0 0 0 0 0 0 0 0 0 0 0 0 0 0 0 127 0" result="hardAlpha"/>
<feOffset dy="0.153916"/>
<feGaussianBlur stdDeviation="0.0769582"/>
<feComposite in2="hardAlpha" operator="arithmetic" k2="-1" k3="1"/>
<feColorMatrix type="matrix" values="0 0 0 0 1 0 0 0 0 1 0 0 0 0 1 0 0 0 0.95 0"/>
<feBlend mode="normal" in2="effect3_innerShadow_1_1453" result="effect4_innerShadow_1_1453"/>
</filter>
<linearGradient id="paint0_linear_1_1453" x1="52.824" y1="33.6901" x2="40.5843" y2="40.9832" gradientUnits="userSpaceOnUse">
<stop offset="0.0941878" stop-color="#FFE5DC"/>
<stop offset="0.230705" stop-color="#FFFFE7" stop-opacity="0"/>
</linearGradient>
<linearGradient id="paint1_linear_1_1453" x1="49.8397" y1="37.3334" x2="40.1048" y2="35.6917" gradientUnits="userSpaceOnUse">
<stop stop-color="#FFFFE6"/>
<stop offset="0.360807" stop-color="#D5FFFF"/>
<stop offset="0.977083" stop-color="#D5FFFF" stop-opacity="0"/>
</linearGradient>
<linearGradient id="paint2_linear_1_1453" x1="50.207" y1="38.8965" x2="40.68" y2="44.6289" gradientUnits="userSpaceOnUse">
<stop offset="0.0153056" stop-color="#D4FFE7"/>
<stop offset="0.312156" stop-color="#D5FFFF" stop-opacity="0"/>
</linearGradient>
<linearGradient id="paint3_linear_1_1453" x1="31.3276" y1="24.2419" x2="31.3276" y2="25.2419" gradientUnits="userSpaceOnUse">
<stop stop-color="#E4EBFF"/>
<stop offset="0.60706" stop-color="#FFE2D9"/>
</linearGradient>
<linearGradient id="paint4_linear_1_1453" x1="33.8139" y1="40.6516" x2="33.8139" y2="41.6516" gradientUnits="userSpaceOnUse">
<stop stop-color="#E4EBFF"/>
<stop offset="0.60706" stop-color="#FFE2D9"/>
</linearGradient>
</defs>
</svg>
