<svg width="57" height="58" viewBox="0 0 57 58" fill="none" xmlns="http://www.w3.org/2000/svg">
<path d="M27.6644 35.3767C24.4265 34.9821 22.1215 32.0372 22.5162 28.7993C22.9109 25.5613 25.8557 23.2564 29.0937 23.651L38.2476 24.7668C41.4855 25.1615 43.7905 28.1063 43.3958 31.3443C43.0011 34.5822 40.0563 36.8872 36.8183 36.4925L27.6644 35.3767Z" fill="#F84031"/>
<path d="M26.3313 31.1628C23.3466 29.7657 22.0595 26.2134 23.4566 23.2286L25.8282 18.1621C27.2253 15.1773 30.7776 13.8903 33.7623 15.2874L42.0039 19.1452C44.9887 20.5423 46.2757 24.0945 44.8786 27.0793L42.5071 32.1458C41.1099 35.1306 37.5577 36.4177 34.5729 35.0205L26.3313 31.1628Z" fill="#2329D6"/>
<g filter="url(#filter0_biiii_1_1343)">
<path d="M22.9889 45.127C19.6933 45.127 17.0217 42.4554 17.0217 39.1598L17.0217 26.231C17.0217 22.9354 19.6933 20.2638 22.9889 20.2638L40.8904 20.2638C44.1859 20.2638 46.8575 22.9354 46.8575 26.2309L46.8575 39.1598C46.8575 42.4554 44.1859 45.127 40.8904 45.127L22.9889 45.127Z" fill="white" fill-opacity="0.2"/>
</g>
<g filter="url(#filter1_f_1_1343)">
<path d="M32.5814 30.7183C32.8988 32.1929 34.1646 33.2303 35.6096 33.2033H42.091C42.6923 33.2033 43.18 32.6947 43.18 32.066V28.1416C43.1787 27.5142 42.6923 27.0043 42.091 27.0029H35.4935C33.8497 27.0083 32.5221 28.4019 32.5247 30.1193C32.5247 30.3203 32.544 30.5213 32.5814 30.7183Z" fill="#A9CFFF"/>
</g>
<g filter="url(#filter2_biii_1_1343)">
<path d="M32.5814 29.8326C32.8988 31.3071 34.1646 32.3446 35.6096 32.3176H42.091C42.6923 32.3176 43.18 31.809 43.18 31.1803V27.2558C43.1787 26.6285 42.6923 26.1185 42.091 26.1172H35.4935C33.8497 26.1226 32.5221 27.5162 32.5247 29.2336C32.5247 29.4346 32.544 29.6356 32.5814 29.8326Z" fill="white" fill-opacity="0.2"/>
</g>
<g filter="url(#filter3_f_1_1343)">
<ellipse cx="35.1884" cy="29.6605" rx="1.33192" ry="1.32876" fill="#A9CFFF"/>
</g>
<g filter="url(#filter4_biii_1_1343)">
<ellipse cx="35.1884" cy="29.2177" rx="1.33192" ry="1.32876" fill="white" fill-opacity="0.2"/>
</g>
<g filter="url(#filter5_f_1_1343)">
<path d="M29.4581 27.003H20.0344C19.3289 26.9999 18.7586 26.4027 18.7615 25.6696C18.7645 24.9396 19.3333 24.3486 20.0344 24.3455H29.464C30.1695 24.3424 30.7458 24.935 30.7488 25.6681C30.7517 26.4027 30.1814 26.9999 29.4759 27.003H29.464H29.4581Z" fill="#A9CFFF"/>
</g>
<g filter="url(#filter6_biii_1_1343)">
<path d="M29.4581 26.1172H20.0344C19.3289 26.1142 18.7586 25.5169 18.7615 24.7839C18.7645 24.0539 19.3333 23.4628 20.0344 23.4597H29.464C30.1695 23.4566 30.7458 24.0493 30.7488 24.7823C30.7517 25.5169 30.1814 26.1142 29.4759 26.1172H29.464H29.4581Z" fill="white" fill-opacity="0.2"/>
</g>
<g filter="url(#filter7_f_1_1343)">
<path d="M22.4174 36.8042C19.9271 38.0882 16.9346 37.0771 15.7334 34.5458L12.1622 27.0197C10.961 24.4883 12.0061 21.3953 14.4964 20.1113C16.9867 18.8272 19.9792 19.8384 21.1804 22.3697L24.7516 29.8958C25.9528 32.4271 24.9077 35.5201 22.4174 36.8042Z" fill="#FFE4DB"/>
</g>
<g filter="url(#filter8_f_1_1343)">
<path d="M24.2214 34.5781C23.1903 35.1098 21.9512 34.6911 21.4538 33.6429L15.3339 20.7457C14.8366 19.6976 15.2693 18.4169 16.3005 17.8852C17.3316 17.3535 18.5707 17.7722 19.0681 18.8203L25.188 31.7175C25.6853 32.7657 25.2526 34.0464 24.2214 34.5781Z" fill="#FFFFE7"/>
</g>
<path d="M19.3772 32.9856L19.1533 32.7623C19.0662 32.6755 19.0165 32.5576 19.0165 32.4339V32.1141C19.0165 31.5993 18.5967 31.181 18.0805 31.181H17.7602C17.6358 31.181 17.5176 31.1311 17.4305 31.0442L17.2035 30.8182C16.8366 30.4553 16.2426 30.4553 15.8788 30.821L15.6549 31.0442C15.5679 31.1311 15.4497 31.181 15.3253 31.181H15.005C14.4888 31.181 14.069 31.5993 14.069 32.1141V32.4305C14.069 32.5576 14.0192 32.6755 13.9322 32.7623L13.7052 32.989C13.3413 33.3546 13.3445 33.9472 13.7083 34.3098L13.9322 34.5299C14.0192 34.6199 14.069 34.7377 14.069 34.8621V35.1812C14.069 35.696 14.4888 36.115 15.005 36.115H15.3253C15.4497 36.115 15.5679 36.1643 15.6549 36.2511L15.8819 36.4778C16.0654 36.6577 16.3048 36.7473 16.5443 36.7473C16.7837 36.7473 17.0232 36.6577 17.2066 36.4744L17.4305 36.2511C17.5176 36.1643 17.6358 36.115 17.7602 36.115H18.0805C18.5967 36.115 19.0165 35.696 19.0165 35.1812V34.8621C19.0165 34.7377 19.0662 34.6199 19.1533 34.5331L19.3741 34.3129C19.3772 34.3098 19.3803 34.307 19.3834 34.3036C19.5575 34.1271 19.6539 33.8911 19.6508 33.643C19.6508 33.3949 19.5544 33.1592 19.3772 32.9856Z" fill="#E9E74C"/>
<g filter="url(#filter9_biii_1_1343)">
<path d="M20.5904 32.7013L20.2707 32.3824C20.1463 32.2584 20.0752 32.09 20.0752 31.9133V31.4567C20.0752 30.7214 19.4757 30.1239 18.7384 30.1239H18.281C18.1033 30.1239 17.9345 30.0526 17.8102 29.9286L17.486 29.6057C16.9619 29.0875 16.1136 29.0875 15.5939 29.6097L15.2742 29.9286C15.1498 30.0526 14.981 30.1239 14.8034 30.1239H14.3459C13.6087 30.1239 13.0091 30.7214 13.0091 31.4567V31.9084C13.0091 32.09 12.938 32.2584 12.8137 32.3824L12.4895 32.7061C11.9698 33.2283 11.9743 34.0748 12.4939 34.5925L12.8137 34.907C12.938 35.0355 13.0091 35.2038 13.0091 35.3814V35.8372C13.0091 36.5724 13.6087 37.1708 14.3459 37.1708H14.8034C14.981 37.1708 15.1498 37.2412 15.2742 37.3652L15.5984 37.689C15.8604 37.9459 16.2024 38.0739 16.5444 38.0739C16.8864 38.0739 17.2284 37.9459 17.4904 37.6841L17.8102 37.3652C17.9345 37.2412 18.1033 37.1708 18.281 37.1708H18.7384C19.4757 37.1708 20.0752 36.5724 20.0752 35.8372V35.3814C20.0752 35.2038 20.1463 35.0355 20.2707 34.9114L20.586 34.597C20.5904 34.5925 20.5949 34.5886 20.5993 34.5837C20.848 34.3317 20.9857 33.9946 20.9813 33.6403C20.9813 33.2859 20.8436 32.9493 20.5904 32.7013Z" fill="white" fill-opacity="0.2"/>
</g>
<rect x="42.3199" y="19.2073" width="3.1079" height="3.1079" stroke="#050121" stroke-width="1.86474" stroke-dasharray="1.86 1.86"/>
<mask id="mask0_1_1343" style="mask-type:alpha" maskUnits="userSpaceOnUse" x="29" y="35" width="19" height="11">
<path d="M45.6143 42.6406C47.3547 39.9057 47.1061 36.4249 47.1061 36.4249L29.2046 35.679V45.127C29.2046 45.127 43.8738 45.3756 45.6143 42.6406Z" fill="#050121"/>
</mask>
<g mask="url(#mask0_1_1343)">
<path d="M48.8465 49.1049C48.8465 54.5976 44.3939 59.0502 38.9013 59.0502C33.4086 59.0502 28.956 54.5976 28.956 49.1049C28.956 43.6123 33.4086 39.1597 38.9013 39.1597C44.3939 39.1597 48.8465 43.6123 48.8465 49.1049Z" stroke="white" stroke-width="0.870212" stroke-linecap="round" stroke-linejoin="round" stroke-dasharray="1.74 1.74"/>
</g>
<path d="M23.5227 38.5283C23.5165 38.5218 23.5099 38.5154 23.5032 38.5093L19.8752 35.2301C19.8723 35.2275 19.8692 35.2248 19.8662 35.2222C19.5533 34.9586 19.1282 34.9017 18.7567 35.0738C18.3853 35.2459 18.1545 35.6066 18.1545 36.0152V41.1356C18.1545 41.4229 18.2661 41.6932 18.4687 41.8969C18.6637 42.0929 18.9276 42.2064 19.1926 42.2081H19.1984C19.4355 42.2081 19.7558 42.1124 19.9505 41.8429C19.9558 41.8356 19.9608 41.828 19.9655 41.8202L20.2655 41.3276L21.1545 43.2379C21.1551 43.2393 21.1558 43.2406 21.1564 43.2419C21.3357 43.6146 21.7132 43.834 22.1047 43.834C22.2512 43.834 22.3997 43.8033 22.5405 43.7383C22.7977 43.6196 22.9918 43.4076 23.0872 43.1414C23.1825 42.8751 23.1669 42.5884 23.0437 42.3347L22.5592 41.3314C22.476 41.1593 22.2687 41.087 22.0962 41.1699C21.9236 41.2528 21.8512 41.4596 21.9343 41.6318L22.4192 42.6359C22.4609 42.7218 22.4662 42.8186 22.434 42.9087C22.4018 42.9985 22.3362 43.0702 22.2493 43.1103C22.0753 43.1906 21.8663 43.1161 21.7825 42.9442L20.6989 40.6157L20.8986 40.2879H22.7916C22.7959 40.2879 22.8003 40.2879 22.8045 40.2877C23.2164 40.2724 23.57 40.0247 23.7274 39.6414C23.8857 39.2559 23.8072 38.8294 23.5227 38.5283ZM23.0856 39.3791C23.0657 39.4277 22.9853 39.5858 22.7841 39.596H20.7035C20.5824 39.596 20.47 39.6591 20.4071 39.7624L19.3823 41.4451C19.3472 41.4859 19.2681 41.517 19.1972 41.5161C19.0321 41.5151 18.8481 41.3585 18.8481 41.1356V36.0152C18.8481 35.8103 19.0017 35.7232 19.0488 35.7014C19.0732 35.6901 19.1295 35.6683 19.1999 35.6683C19.2643 35.6683 19.3403 35.6865 19.4147 35.7475L23.0258 39.0115C23.1596 39.1614 23.1056 39.3303 23.0856 39.3791Z" fill="#2329D6"/>
<defs>
<filter id="filter0_biiii_1_1343" x="15.0327" y="18.2746" width="33.8139" height="28.8414" filterUnits="userSpaceOnUse" color-interpolation-filters="sRGB">
<feFlood flood-opacity="0" result="BackgroundImageFix"/>
<feGaussianBlur in="BackgroundImageFix" stdDeviation="0.994528"/>
<feComposite in2="SourceAlpha" operator="in" result="effect1_backgroundBlur_1_1343"/>
<feBlend mode="normal" in="SourceGraphic" in2="effect1_backgroundBlur_1_1343" result="shape"/>
<feColorMatrix in="SourceAlpha" type="matrix" values="0 0 0 0 0 0 0 0 0 0 0 0 0 0 0 0 0 0 127 0" result="hardAlpha"/>
<feOffset dy="0.497264"/>
<feGaussianBlur stdDeviation="0.994528"/>
<feComposite in2="hardAlpha" operator="arithmetic" k2="-1" k3="1"/>
<feColorMatrix type="matrix" values="0 0 0 0 1 0 0 0 0 1 0 0 0 0 1 0 0 0 0.3 0"/>
<feBlend mode="normal" in2="shape" result="effect2_innerShadow_1_1343"/>
<feColorMatrix in="SourceAlpha" type="matrix" values="0 0 0 0 0 0 0 0 0 0 0 0 0 0 0 0 0 0 127 0" result="hardAlpha"/>
<feOffset dy="-0.497264"/>
<feGaussianBlur stdDeviation="0.994528"/>
<feComposite in2="hardAlpha" operator="arithmetic" k2="-1" k3="1"/>
<feColorMatrix type="matrix" values="0 0 0 0 1 0 0 0 0 1 0 0 0 0 1 0 0 0 0.5 0"/>
<feBlend mode="normal" in2="effect2_innerShadow_1_1343" result="effect3_innerShadow_1_1343"/>
<feColorMatrix in="SourceAlpha" type="matrix" values="0 0 0 0 0 0 0 0 0 0 0 0 0 0 0 0 0 0 127 0" result="hardAlpha"/>
<feOffset dy="0.497264"/>
<feGaussianBlur stdDeviation="10.9398"/>
<feComposite in2="hardAlpha" operator="arithmetic" k2="-1" k3="1"/>
<feColorMatrix type="matrix" values="0 0 0 0 1 0 0 0 0 1 0 0 0 0 1 0 0 0 0.45 0"/>
<feBlend mode="normal" in2="effect3_innerShadow_1_1343" result="effect4_innerShadow_1_1343"/>
<feColorMatrix in="SourceAlpha" type="matrix" values="0 0 0 0 0 0 0 0 0 0 0 0 0 0 0 0 0 0 127 0" result="hardAlpha"/>
<feOffset dx="0.497264" dy="0.497264"/>
<feGaussianBlur stdDeviation="0.497264"/>
<feComposite in2="hardAlpha" operator="arithmetic" k2="-1" k3="1"/>
<feColorMatrix type="matrix" values="0 0 0 0 1 0 0 0 0 1 0 0 0 0 1 0 0 0 1 0"/>
<feBlend mode="normal" in2="effect4_innerShadow_1_1343" result="effect5_innerShadow_1_1343"/>
</filter>
<filter id="filter1_f_1_1343" x="30.5356" y="25.0139" width="14.6334" height="10.179" filterUnits="userSpaceOnUse" color-interpolation-filters="sRGB">
<feFlood flood-opacity="0" result="BackgroundImageFix"/>
<feBlend mode="normal" in="SourceGraphic" in2="BackgroundImageFix" result="shape"/>
<feGaussianBlur stdDeviation="0.994528" result="effect1_foregroundBlur_1_1343"/>
</filter>
<filter id="filter2_biii_1_1343" x="30.0303" y="23.6228" width="15.644" height="11.1896" filterUnits="userSpaceOnUse" color-interpolation-filters="sRGB">
<feFlood flood-opacity="0" result="BackgroundImageFix"/>
<feGaussianBlur in="BackgroundImageFix" stdDeviation="1.24718"/>
<feComposite in2="SourceAlpha" operator="in" result="effect1_backgroundBlur_1_1343"/>
<feBlend mode="normal" in="SourceGraphic" in2="effect1_backgroundBlur_1_1343" result="shape"/>
<feColorMatrix in="SourceAlpha" type="matrix" values="0 0 0 0 0 0 0 0 0 0 0 0 0 0 0 0 0 0 127 0" result="hardAlpha"/>
<feOffset dy="0.623588"/>
<feGaussianBlur stdDeviation="1.24718"/>
<feComposite in2="hardAlpha" operator="arithmetic" k2="-1" k3="1"/>
<feColorMatrix type="matrix" values="0 0 0 0 1 0 0 0 0 1 0 0 0 0 1 0 0 0 0.3 0"/>
<feBlend mode="normal" in2="shape" result="effect2_innerShadow_1_1343"/>
<feColorMatrix in="SourceAlpha" type="matrix" values="0 0 0 0 0 0 0 0 0 0 0 0 0 0 0 0 0 0 127 0" result="hardAlpha"/>
<feOffset dy="-0.623588"/>
<feGaussianBlur stdDeviation="1.24718"/>
<feComposite in2="hardAlpha" operator="arithmetic" k2="-1" k3="1"/>
<feColorMatrix type="matrix" values="0 0 0 0 1 0 0 0 0 1 0 0 0 0 1 0 0 0 0.5 0"/>
<feBlend mode="normal" in2="effect2_innerShadow_1_1343" result="effect3_innerShadow_1_1343"/>
<feColorMatrix in="SourceAlpha" type="matrix" values="0 0 0 0 0 0 0 0 0 0 0 0 0 0 0 0 0 0 127 0" result="hardAlpha"/>
<feOffset dy="0.623588"/>
<feGaussianBlur stdDeviation="0.311794"/>
<feComposite in2="hardAlpha" operator="arithmetic" k2="-1" k3="1"/>
<feColorMatrix type="matrix" values="0 0 0 0 1 0 0 0 0 1 0 0 0 0 1 0 0 0 0.95 0"/>
<feBlend mode="normal" in2="effect3_innerShadow_1_1343" result="effect4_innerShadow_1_1343"/>
</filter>
<filter id="filter3_f_1_1343" x="31.8674" y="26.3427" width="6.64195" height="6.63558" filterUnits="userSpaceOnUse" color-interpolation-filters="sRGB">
<feFlood flood-opacity="0" result="BackgroundImageFix"/>
<feBlend mode="normal" in="SourceGraphic" in2="BackgroundImageFix" result="shape"/>
<feGaussianBlur stdDeviation="0.994528" result="effect1_foregroundBlur_1_1343"/>
</filter>
<filter id="filter4_biii_1_1343" x="31.3621" y="25.3946" width="7.65254" height="7.64617" filterUnits="userSpaceOnUse" color-interpolation-filters="sRGB">
<feFlood flood-opacity="0" result="BackgroundImageFix"/>
<feGaussianBlur in="BackgroundImageFix" stdDeviation="1.24718"/>
<feComposite in2="SourceAlpha" operator="in" result="effect1_backgroundBlur_1_1343"/>
<feBlend mode="normal" in="SourceGraphic" in2="effect1_backgroundBlur_1_1343" result="shape"/>
<feColorMatrix in="SourceAlpha" type="matrix" values="0 0 0 0 0 0 0 0 0 0 0 0 0 0 0 0 0 0 127 0" result="hardAlpha"/>
<feOffset dy="0.623588"/>
<feGaussianBlur stdDeviation="1.24718"/>
<feComposite in2="hardAlpha" operator="arithmetic" k2="-1" k3="1"/>
<feColorMatrix type="matrix" values="0 0 0 0 1 0 0 0 0 1 0 0 0 0 1 0 0 0 0.3 0"/>
<feBlend mode="normal" in2="shape" result="effect2_innerShadow_1_1343"/>
<feColorMatrix in="SourceAlpha" type="matrix" values="0 0 0 0 0 0 0 0 0 0 0 0 0 0 0 0 0 0 127 0" result="hardAlpha"/>
<feOffset dy="-0.623588"/>
<feGaussianBlur stdDeviation="1.24718"/>
<feComposite in2="hardAlpha" operator="arithmetic" k2="-1" k3="1"/>
<feColorMatrix type="matrix" values="0 0 0 0 1 0 0 0 0 1 0 0 0 0 1 0 0 0 0.5 0"/>
<feBlend mode="normal" in2="effect2_innerShadow_1_1343" result="effect3_innerShadow_1_1343"/>
<feColorMatrix in="SourceAlpha" type="matrix" values="0 0 0 0 0 0 0 0 0 0 0 0 0 0 0 0 0 0 127 0" result="hardAlpha"/>
<feOffset dy="0.623588"/>
<feGaussianBlur stdDeviation="0.311794"/>
<feComposite in2="hardAlpha" operator="arithmetic" k2="-1" k3="1"/>
<feColorMatrix type="matrix" values="0 0 0 0 1 0 0 0 0 1 0 0 0 0 1 0 0 0 0.95 0"/>
<feBlend mode="normal" in2="effect3_innerShadow_1_1343" result="effect4_innerShadow_1_1343"/>
</filter>
<filter id="filter5_f_1_1343" x="16.7725" y="22.3564" width="15.9654" height="6.63558" filterUnits="userSpaceOnUse" color-interpolation-filters="sRGB">
<feFlood flood-opacity="0" result="BackgroundImageFix"/>
<feBlend mode="normal" in="SourceGraphic" in2="BackgroundImageFix" result="shape"/>
<feGaussianBlur stdDeviation="0.994528" result="effect1_foregroundBlur_1_1343"/>
</filter>
<filter id="filter6_biii_1_1343" x="16.2672" y="20.9654" width="16.9759" height="7.64617" filterUnits="userSpaceOnUse" color-interpolation-filters="sRGB">
<feFlood flood-opacity="0" result="BackgroundImageFix"/>
<feGaussianBlur in="BackgroundImageFix" stdDeviation="1.24718"/>
<feComposite in2="SourceAlpha" operator="in" result="effect1_backgroundBlur_1_1343"/>
<feBlend mode="normal" in="SourceGraphic" in2="effect1_backgroundBlur_1_1343" result="shape"/>
<feColorMatrix in="SourceAlpha" type="matrix" values="0 0 0 0 0 0 0 0 0 0 0 0 0 0 0 0 0 0 127 0" result="hardAlpha"/>
<feOffset dy="0.623588"/>
<feGaussianBlur stdDeviation="1.24718"/>
<feComposite in2="hardAlpha" operator="arithmetic" k2="-1" k3="1"/>
<feColorMatrix type="matrix" values="0 0 0 0 1 0 0 0 0 1 0 0 0 0 1 0 0 0 0.3 0"/>
<feBlend mode="normal" in2="shape" result="effect2_innerShadow_1_1343"/>
<feColorMatrix in="SourceAlpha" type="matrix" values="0 0 0 0 0 0 0 0 0 0 0 0 0 0 0 0 0 0 127 0" result="hardAlpha"/>
<feOffset dy="-0.623588"/>
<feGaussianBlur stdDeviation="1.24718"/>
<feComposite in2="hardAlpha" operator="arithmetic" k2="-1" k3="1"/>
<feColorMatrix type="matrix" values="0 0 0 0 1 0 0 0 0 1 0 0 0 0 1 0 0 0 0.5 0"/>
<feBlend mode="normal" in2="effect2_innerShadow_1_1343" result="effect3_innerShadow_1_1343"/>
<feColorMatrix in="SourceAlpha" type="matrix" values="0 0 0 0 0 0 0 0 0 0 0 0 0 0 0 0 0 0 127 0" result="hardAlpha"/>
<feOffset dy="0.623588"/>
<feGaussianBlur stdDeviation="0.311794"/>
<feComposite in2="hardAlpha" operator="arithmetic" k2="-1" k3="1"/>
<feColorMatrix type="matrix" values="0 0 0 0 1 0 0 0 0 1 0 0 0 0 1 0 0 0 0.95 0"/>
<feBlend mode="normal" in2="effect3_innerShadow_1_1343" result="effect4_innerShadow_1_1343"/>
</filter>
<filter id="filter7_f_1_1343" x="6.69131" y="14.5816" width="23.5312" height="27.7524" filterUnits="userSpaceOnUse" color-interpolation-filters="sRGB">
<feFlood flood-opacity="0" result="BackgroundImageFix"/>
<feBlend mode="normal" in="SourceGraphic" in2="BackgroundImageFix" result="shape"/>
<feGaussianBlur stdDeviation="2.48632" result="effect1_foregroundBlur_1_1343"/>
</filter>
<filter id="filter8_f_1_1343" x="10.155" y="12.6819" width="20.2119" height="27.0996" filterUnits="userSpaceOnUse" color-interpolation-filters="sRGB">
<feFlood flood-opacity="0" result="BackgroundImageFix"/>
<feBlend mode="normal" in="SourceGraphic" in2="BackgroundImageFix" result="shape"/>
<feGaussianBlur stdDeviation="2.48632" result="effect1_foregroundBlur_1_1343"/>
</filter>
<filter id="filter9_biii_1_1343" x="11.4863" y="28.6019" width="10.1108" height="10.0878" filterUnits="userSpaceOnUse" color-interpolation-filters="sRGB">
<feFlood flood-opacity="0" result="BackgroundImageFix"/>
<feGaussianBlur in="BackgroundImageFix" stdDeviation="0.307833"/>
<feComposite in2="SourceAlpha" operator="in" result="effect1_backgroundBlur_1_1343"/>
<feBlend mode="normal" in="SourceGraphic" in2="effect1_backgroundBlur_1_1343" result="shape"/>
<feColorMatrix in="SourceAlpha" type="matrix" values="0 0 0 0 0 0 0 0 0 0 0 0 0 0 0 0 0 0 127 0" result="hardAlpha"/>
<feOffset dy="0.153916"/>
<feGaussianBlur stdDeviation="0.307833"/>
<feComposite in2="hardAlpha" operator="arithmetic" k2="-1" k3="1"/>
<feColorMatrix type="matrix" values="0 0 0 0 1 0 0 0 0 1 0 0 0 0 1 0 0 0 0.3 0"/>
<feBlend mode="normal" in2="shape" result="effect2_innerShadow_1_1343"/>
<feColorMatrix in="SourceAlpha" type="matrix" values="0 0 0 0 0 0 0 0 0 0 0 0 0 0 0 0 0 0 127 0" result="hardAlpha"/>
<feOffset dy="-0.153916"/>
<feGaussianBlur stdDeviation="0.307833"/>
<feComposite in2="hardAlpha" operator="arithmetic" k2="-1" k3="1"/>
<feColorMatrix type="matrix" values="0 0 0 0 1 0 0 0 0 1 0 0 0 0 1 0 0 0 0.5 0"/>
<feBlend mode="normal" in2="effect2_innerShadow_1_1343" result="effect3_innerShadow_1_1343"/>
<feColorMatrix in="SourceAlpha" type="matrix" values="0 0 0 0 0 0 0 0 0 0 0 0 0 0 0 0 0 0 127 0" result="hardAlpha"/>
<feOffset dy="0.153916"/>
<feGaussianBlur stdDeviation="0.0769582"/>
<feComposite in2="hardAlpha" operator="arithmetic" k2="-1" k3="1"/>
<feColorMatrix type="matrix" values="0 0 0 0 1 0 0 0 0 1 0 0 0 0 1 0 0 0 0.95 0"/>
<feBlend mode="normal" in2="effect3_innerShadow_1_1343" result="effect4_innerShadow_1_1343"/>
</filter>
</defs>
</svg>
