<svg width="57" height="57" viewBox="0 0 57 57" fill="none" xmlns="http://www.w3.org/2000/svg">
<g filter="url(#filter0_f_1_1438)">
<path d="M26.9497 47.6772C24.4594 48.9613 21.4669 47.9501 20.2658 45.4188L16.6945 37.8927C15.4934 35.3614 16.5385 32.2684 19.0288 30.9843C21.5191 29.7003 24.5116 30.7114 25.7127 33.2427L29.284 40.7688C30.4851 43.3002 29.44 46.3932 26.9497 47.6772Z" fill="#FFE4DB"/>
</g>
<g filter="url(#filter1_f_1_1438)">
<path d="M28.7538 45.4511C27.7226 45.9828 26.4835 45.5641 25.9862 44.516L19.8663 31.6188C19.3689 30.5706 19.8016 29.2899 20.8328 28.7582C21.864 28.2266 23.1031 28.6452 23.6004 29.6934L29.7203 42.5906C30.2177 43.6387 29.7849 44.9194 28.7538 45.4511Z" fill="#FFFFE7"/>
</g>
<g filter="url(#filter2_b_1_1438)">
<mask id="path-3-outside-1_1_1438" maskUnits="userSpaceOnUse" x="11.2298" y="13.79" width="19.2009" height="19.161" fill="black">
<rect fill="white" x="11.2298" y="13.79" width="19.2009" height="19.161"/>
<path d="M24.0841 18.3242C20.9789 16.4887 17.2256 17.6899 15.5574 20.4987C15.0246 21.3958 14.7379 22.4744 14.6964 23.5899C14.6995 23.7792 14.6055 23.9618 14.4484 24.0926L13.3799 25.0771C13.1285 25.318 13.2475 25.677 13.5708 25.7526L14.8407 26.0704C15.1918 26.148 15.3486 26.4067 15.5234 26.7337C16.031 27.6541 16.8637 28.4637 17.7402 28.9818C20.3911 30.5488 24.2995 30.0958 26.2562 26.801C27.9434 23.9601 27.1199 20.1185 24.0841 18.3242Z"/>
</mask>
<path d="M24.0841 18.3242C20.9789 16.4887 17.2256 17.6899 15.5574 20.4987C15.0246 21.3958 14.7379 22.4744 14.6964 23.5899C14.6995 23.7792 14.6055 23.9618 14.4484 24.0926L13.3799 25.0771C13.1285 25.318 13.2475 25.677 13.5708 25.7526L14.8407 26.0704C15.1918 26.148 15.3486 26.4067 15.5234 26.7337C16.031 27.6541 16.8637 28.4637 17.7402 28.9818C20.3911 30.5488 24.2995 30.0958 26.2562 26.801C27.9434 23.9601 27.1199 20.1185 24.0841 18.3242Z" fill="#F84031"/>
<path d="M23.8302 18.7517C24.0666 18.8914 24.372 18.8133 24.5122 18.5772C24.6525 18.3411 24.5745 18.0363 24.3381 17.8966L23.8302 18.7517ZM14.6964 23.5899L14.199 23.5719C14.1987 23.5807 14.1986 23.5895 14.1988 23.5984L14.6964 23.5899ZM14.4484 24.0926L14.1298 23.7112C14.1234 23.7165 14.1171 23.722 14.111 23.7277L14.4484 24.0926ZM13.3799 25.0771L13.0425 24.7121L13.0354 24.7189L13.3799 25.0771ZM13.5708 25.7526L13.6923 25.2707L13.6849 25.2689L13.5708 25.7526ZM14.8407 26.0704L14.7192 26.5525L14.7326 26.5554L14.8407 26.0704ZM15.5234 26.7337L15.0842 26.9679L15.0873 26.9736L15.5234 26.7337ZM24.3381 17.8966C24.1016 17.7569 23.7963 17.835 23.6561 18.0711C23.5158 18.3073 23.5938 18.612 23.8302 18.7517L24.3381 17.8966ZM24.3381 17.8966C20.9822 15.913 16.9291 17.2152 15.1293 20.2457L15.9855 20.7517C17.522 18.1645 20.9756 17.0644 23.8302 18.7517L24.3381 17.8966ZM15.1293 20.2457C14.5481 21.2244 14.2431 22.3864 14.199 23.5719L15.1938 23.6078C15.2326 22.5625 15.5012 21.5672 15.9855 20.7517L15.1293 20.2457ZM14.1988 23.5984C14.199 23.6146 14.1901 23.661 14.1298 23.7112L14.767 24.474C15.0209 24.2626 15.1999 23.9439 15.1941 23.5814L14.1988 23.5984ZM14.111 23.7277L13.0425 24.7122L13.7173 25.442L14.7858 24.4575L14.111 23.7277ZM13.0354 24.7189C12.7826 24.9611 12.6878 25.3019 12.783 25.6196C12.876 25.9301 13.133 26.1606 13.4567 26.2363L13.6849 25.2689C13.6834 25.2686 13.6926 25.2707 13.7051 25.2821C13.7173 25.2932 13.7297 25.3105 13.7367 25.3341C13.7439 25.3581 13.744 25.3838 13.7377 25.4063C13.7313 25.4294 13.7214 25.4382 13.7245 25.4353L13.0354 24.7189ZM13.4493 26.2345L14.7192 26.5523L14.9622 25.5885L13.6923 25.2707L13.4493 26.2345ZM14.7326 26.5554C14.796 26.5695 14.8353 26.5941 14.8797 26.6429C14.9378 26.7067 14.9951 26.8011 15.0843 26.9679L15.9626 26.4994C15.7947 26.1854 15.5457 25.7173 14.9488 25.5853L14.7326 26.5554ZM15.0873 26.9736C15.6421 27.9796 16.5415 28.8509 17.4863 29.4094L17.9941 28.5543C17.1859 28.0766 16.4199 27.3287 15.9595 26.4938L15.0873 26.9736ZM17.4863 29.4094C20.3393 31.0958 24.5678 30.6178 26.6843 27.054L25.8282 26.5479C24.0312 29.5737 20.443 30.0018 17.9941 28.5543L17.4863 29.4094ZM26.6843 27.054C28.506 23.9867 27.6198 19.8364 24.3381 17.8966L23.8302 18.7517C26.62 20.4007 27.3809 23.9335 25.8282 26.5479L26.6843 27.054Z" fill="url(#paint0_linear_1_1438)" mask="url(#path-3-outside-1_1_1438)"/>
</g>
<mask id="path-5-outside-2_1_1438" maskUnits="userSpaceOnUse" x="10.2709" y="12.5938" width="17" height="17" fill="black">
<rect fill="white" x="10.2709" y="12.5938" width="17" height="17"/>
<path d="M18.6111 13.5938C14.3549 13.5938 11.2709 17.063 11.2709 20.9129C11.2709 22.1426 11.6298 23.4088 12.2598 24.5652C12.377 24.7555 12.3917 24.997 12.3111 25.2239L11.8203 26.8634C11.7104 27.2587 12.0474 27.5514 12.421 27.4343L13.9008 26.9952C14.3037 26.8634 14.6187 27.0318 14.993 27.2587C16.0625 27.8881 17.395 28.2102 18.5964 28.2102C22.2299 28.2102 25.922 25.4069 25.922 20.891C25.922 16.9972 22.772 13.5938 18.6111 13.5938Z"/>
</mask>
<path d="M18.6111 13.5938C14.3549 13.5938 11.2709 17.063 11.2709 20.9129C11.2709 22.1426 11.6298 23.4088 12.2598 24.5652C12.377 24.7555 12.3917 24.997 12.3111 25.2239L11.8203 26.8634C11.7104 27.2587 12.0474 27.5514 12.421 27.4343L13.9008 26.9952C14.3037 26.8634 14.6187 27.0318 14.993 27.2587C16.0625 27.8881 17.395 28.2102 18.5964 28.2102C22.2299 28.2102 25.922 25.4069 25.922 20.891C25.922 16.9972 22.772 13.5938 18.6111 13.5938Z" fill="#2329D6"/>
<path d="M18.6111 14.091C18.8857 14.091 19.1083 13.8684 19.1083 13.5938C19.1083 13.3191 18.8857 13.0965 18.6111 13.0965V14.091ZM12.2598 24.5652L11.8232 24.8031C11.8274 24.8108 11.8318 24.8185 11.8364 24.826L12.2598 24.5652ZM12.3111 25.2239L11.8425 25.0575C11.8397 25.0654 11.8371 25.0733 11.8347 25.0813L12.3111 25.2239ZM11.8203 26.8634L11.3438 26.7208L11.3412 26.7302L11.8203 26.8634ZM12.421 27.4343L12.2795 26.9575L12.2723 26.9598L12.421 27.4343ZM13.9008 26.9952L14.0423 27.4721L14.0553 27.4678L13.9008 26.9952ZM14.993 27.2587L14.7352 27.6839L14.7408 27.6872L14.993 27.2587ZM18.6111 13.0965C18.3364 13.0965 18.1138 13.3191 18.1138 13.5938C18.1138 13.8684 18.3364 14.091 18.6111 14.091V13.0965ZM18.6111 13.0965C14.0643 13.0965 10.7736 16.8046 10.7736 20.9129H11.7681C11.7681 17.3214 14.6455 14.091 18.6111 14.091V13.0965ZM10.7736 20.9129C10.7736 22.2376 11.1595 23.5849 11.8232 24.8031L12.6965 24.3273C12.1001 23.2326 11.7681 22.0475 11.7681 20.9129H10.7736ZM11.8364 24.826C11.8626 24.8685 11.8809 24.9494 11.8425 25.0575L12.7797 25.3903C12.9025 25.0447 12.8914 24.6425 12.6832 24.3044L11.8364 24.826ZM11.8347 25.0813L11.3439 26.7208L12.2967 27.006L12.7875 25.3665L11.8347 25.0813ZM11.3412 26.7302C11.2391 27.0976 11.3404 27.4654 11.6025 27.7068C11.8588 27.9429 12.2244 28.0171 12.5697 27.9088L12.2723 26.9598C12.2565 26.9648 12.2515 26.9625 12.2554 26.9633C12.2588 26.964 12.2671 26.9668 12.2762 26.9752C12.2858 26.984 12.2924 26.9955 12.2953 27.0059C12.2982 27.0169 12.2941 27.0155 12.2994 26.9966L11.3412 26.7302ZM12.5625 27.911L14.0422 27.4719L13.7593 26.5185L12.2795 26.9576L12.5625 27.911ZM14.0553 27.4678C14.2193 27.4142 14.3484 27.4494 14.7352 27.6839L15.2507 26.8334C14.8889 26.6141 14.388 26.3127 13.7462 26.5225L14.0553 27.4678ZM14.7408 27.6872C15.8945 28.3662 17.3158 28.7074 18.5964 28.7074V27.7129C17.4742 27.7129 16.2305 27.41 15.2452 26.8301L14.7408 27.6872ZM18.5964 28.7074C22.464 28.7074 26.4192 25.7204 26.4192 20.891H25.4247C25.4247 25.0934 21.9958 27.7129 18.5964 27.7129V28.7074ZM26.4192 20.891C26.4192 16.7332 23.0572 13.0965 18.6111 13.0965V14.091C22.4868 14.091 25.4247 17.2611 25.4247 20.891H26.4192Z" fill="url(#paint1_linear_1_1438)" mask="url(#path-5-outside-2_1_1438)"/>
<path d="M21.7042 22.0093C21.0886 22.0093 20.5943 21.5075 20.5943 20.902C20.5943 20.2878 21.0886 19.7947 21.7042 19.7947C22.3199 19.7947 22.8142 20.2878 22.8142 20.902C22.8142 21.5075 22.3199 22.0093 21.7042 22.0093Z" fill="white"/>
<path d="M18.5964 22.0093C17.9808 22.0006 17.4865 21.5076 17.4865 20.8934C17.4865 20.2879 17.9894 19.7861 18.5964 19.7948C19.2121 19.7948 19.7064 20.2879 19.7064 20.902C19.7064 21.5076 19.2121 22.0093 18.5964 22.0093Z" fill="white"/>
<path d="M15.4886 22.0093C14.873 22.0006 14.3787 21.5076 14.3787 20.8934C14.3787 20.2879 14.8816 19.7861 15.4886 19.7948C16.1043 19.7948 16.5985 20.2879 16.5985 20.902C16.5985 21.5076 16.1043 22.0093 15.4886 22.0093Z" fill="white"/>
<path d="M33.2916 19.4089C33.1527 19.3885 33.0115 19.4215 32.8992 19.5008C32.7868 19.5801 32.7126 19.6991 32.6928 19.8316L32.6847 19.9096L32.5284 24.675C32.5115 24.8318 32.5648 24.9888 32.675 25.1073C32.7853 25.2259 32.9424 25.295 33.1077 25.2978L38.0954 25.4901C38.2343 25.4958 38.3693 25.4484 38.4706 25.3584C38.5719 25.2684 38.6311 25.1433 38.6351 25.0107C38.6397 24.9944 38.6414 24.9774 38.6403 24.9605C38.4812 22.133 36.2318 19.7982 33.2916 19.4089Z" fill="#E9E74C"/>
<g filter="url(#filter3_biiii_1_1438)">
<ellipse cx="28.5858" cy="28.6532" rx="11.9872" ry="11.9589" fill="white" fill-opacity="0.2"/>
</g>
<g filter="url(#filter4_biii_1_1438)">
<path d="M30.4233 14.0641C30.0854 14.0145 29.7419 14.095 29.4685 14.2879C29.1952 14.4809 29.0145 14.7704 28.9663 15.0927L28.9466 15.2825L28.5665 26.8781C28.5254 27.2598 28.6549 27.6417 28.9232 27.9302C29.1915 28.2187 29.5737 28.3869 29.976 28.3936L42.1125 28.8617C42.4505 28.8754 42.7791 28.76 43.0256 28.5411C43.2405 28.3501 43.3775 28.0941 43.4155 27.8178C43.4267 27.7367 43.4438 27.6546 43.4384 27.573C43.0514 20.6929 37.5778 15.0116 30.4233 14.0641Z" fill="white" fill-opacity="0.2"/>
</g>
<g filter="url(#filter5_biiii_1_1438)">
<ellipse cx="29.0301" cy="28.2103" rx="3.1078" ry="3.10045" fill="white" fill-opacity="0.2"/>
</g>
<path d="M23.5395 38.2485H23.0823V34.3729C23.0823 33.0886 22.1342 32.1853 20.691 32.0538V31.6566C20.691 31.4655 20.5336 31.3105 20.3394 31.3105C20.1451 31.3105 19.9877 31.4655 19.9877 31.6566V32.0538C18.5445 32.1853 17.5964 33.0886 17.5964 34.3729V38.2485H17.1392C16.945 38.2485 16.7876 38.4034 16.7876 38.5945C16.7876 38.7857 16.945 38.9406 17.1392 38.9406H19.4142C19.3871 39.0282 19.3723 39.1211 19.3723 39.2174C19.3723 39.7421 19.8061 40.169 20.3394 40.169C20.8726 40.169 21.3064 39.7421 21.3064 39.2174C21.3064 39.1211 21.2917 39.0282 21.2645 38.9406H23.5395C23.7337 38.9406 23.8911 38.7857 23.8911 38.5945C23.8911 38.4034 23.7337 38.2485 23.5395 38.2485ZM20.3394 39.4769C20.194 39.4769 20.0756 39.3605 20.0756 39.2174C20.0756 39.0743 20.194 38.9579 20.3394 38.9579C20.4848 38.9579 20.6031 39.0743 20.6031 39.2174C20.6031 39.3605 20.4848 39.4769 20.3394 39.4769ZM18.2997 37.591H21.324C21.5182 37.591 21.6757 37.4361 21.6757 37.245C21.6757 37.0539 21.5182 36.899 21.324 36.899H18.2997V34.3729C18.2997 33.1818 19.3374 32.743 20.3094 32.7295H20.3693C21.3413 32.743 22.379 33.1818 22.379 34.3729V38.2485H18.2997V37.591Z" fill="#2329D6"/>
<g filter="url(#filter6_f_1_1438)">
<path d="M39.737 20.5761C39.737 18.6536 41.2954 17.0952 43.2179 17.0952C45.1403 17.0952 46.6987 18.6536 46.6987 20.5761V22.5651C46.6987 24.4875 45.1403 26.046 43.2179 26.046C41.2954 26.046 39.737 24.4875 39.737 22.5651V20.5761Z" fill="#FFFFE7"/>
</g>
<path d="M41.0492 19.5443C41.6995 17.7074 43.7209 16.7311 45.564 17.3637C47.4071 17.9963 48.374 19.9983 47.7237 21.8352L46.8074 24.4233C46.6241 24.941 46.0543 25.2162 45.5348 25.0379L40.7416 23.3928C40.2221 23.2144 39.9496 22.6502 40.1329 22.1324L41.0492 19.5443Z" fill="url(#paint2_linear_1_1438)"/>
<g filter="url(#filter7_f_1_1438)">
<path d="M36.8744 21.2255C37.4154 19.0631 39.6106 17.7337 41.7776 18.2563C43.9446 18.7789 45.2627 20.9556 44.7217 23.118L43.7895 26.844C43.2485 29.0064 41.0533 30.3358 38.8863 29.8132C36.7193 29.2906 35.4012 27.1139 35.9422 24.9515L36.8744 21.2255Z" fill="url(#paint3_linear_1_1438)"/>
</g>
<g style="mix-blend-mode:luminosity">
<path d="M37.6245 20.5087C38.6459 18.5341 41.0867 17.7375 43.0762 18.7295C45.0658 19.7214 45.8507 22.1263 44.8293 24.101L43.0398 27.5608C42.0184 29.5355 39.5776 30.3321 37.5881 29.3401C35.5985 28.3482 34.8136 25.9432 35.835 23.9686L37.6245 20.5087Z" fill="url(#paint4_linear_1_1438)"/>
</g>
<g filter="url(#filter8_f_1_1438)">
<path d="M41.7149 19.1019C42.2988 18.6078 43.1726 18.6806 43.6667 19.2644L45.1203 20.982C45.6139 21.5653 45.5412 22.4384 44.9579 22.932C44.4996 23.3198 43.8434 23.3678 43.3336 23.0508L41.9416 22.1854L41.3276 20.6829C41.1007 20.1277 41.257 19.4894 41.7149 19.1019Z" fill="white"/>
</g>
<rect x="36.4718" y="19.2021" width="2.98358" height="3.48084" stroke="#050121" stroke-width="0.994528" stroke-dasharray="1.99 1.99"/>
<circle cx="41.1958" cy="41.8277" r="4.724" stroke="#050121" stroke-width="1.98906" stroke-dasharray="1.3 1.3"/>
<defs>
<filter id="filter0_f_1_1438" x="11.2237" y="25.4546" width="23.5312" height="27.7524" filterUnits="userSpaceOnUse" color-interpolation-filters="sRGB">
<feFlood flood-opacity="0" result="BackgroundImageFix"/>
<feBlend mode="normal" in="SourceGraphic" in2="BackgroundImageFix" result="shape"/>
<feGaussianBlur stdDeviation="2.48632" result="effect1_foregroundBlur_1_1438"/>
</filter>
<filter id="filter1_f_1_1438" x="14.6873" y="23.555" width="20.2119" height="27.0996" filterUnits="userSpaceOnUse" color-interpolation-filters="sRGB">
<feFlood flood-opacity="0" result="BackgroundImageFix"/>
<feBlend mode="normal" in="SourceGraphic" in2="BackgroundImageFix" result="shape"/>
<feGaussianBlur stdDeviation="2.48632" result="effect1_foregroundBlur_1_1438"/>
</filter>
<filter id="filter2_b_1_1438" x="0.812361" y="5.01586" width="38.7377" height="37.2647" filterUnits="userSpaceOnUse" color-interpolation-filters="sRGB">
<feFlood flood-opacity="0" result="BackgroundImageFix"/>
<feGaussianBlur in="BackgroundImageFix" stdDeviation="5.96717"/>
<feComposite in2="SourceAlpha" operator="in" result="effect1_backgroundBlur_1_1438"/>
<feBlend mode="normal" in="SourceGraphic" in2="effect1_backgroundBlur_1_1438" result="shape"/>
</filter>
<filter id="filter3_biiii_1_1438" x="14.6095" y="14.7053" width="27.9526" height="27.8958" filterUnits="userSpaceOnUse" color-interpolation-filters="sRGB">
<feFlood flood-opacity="0" result="BackgroundImageFix"/>
<feGaussianBlur in="BackgroundImageFix" stdDeviation="0.994528"/>
<feComposite in2="SourceAlpha" operator="in" result="effect1_backgroundBlur_1_1438"/>
<feBlend mode="normal" in="SourceGraphic" in2="effect1_backgroundBlur_1_1438" result="shape"/>
<feColorMatrix in="SourceAlpha" type="matrix" values="0 0 0 0 0 0 0 0 0 0 0 0 0 0 0 0 0 0 127 0" result="hardAlpha"/>
<feOffset dy="0.497264"/>
<feGaussianBlur stdDeviation="0.994528"/>
<feComposite in2="hardAlpha" operator="arithmetic" k2="-1" k3="1"/>
<feColorMatrix type="matrix" values="0 0 0 0 1 0 0 0 0 1 0 0 0 0 1 0 0 0 0.3 0"/>
<feBlend mode="normal" in2="shape" result="effect2_innerShadow_1_1438"/>
<feColorMatrix in="SourceAlpha" type="matrix" values="0 0 0 0 0 0 0 0 0 0 0 0 0 0 0 0 0 0 127 0" result="hardAlpha"/>
<feOffset dy="-0.497264"/>
<feGaussianBlur stdDeviation="0.994528"/>
<feComposite in2="hardAlpha" operator="arithmetic" k2="-1" k3="1"/>
<feColorMatrix type="matrix" values="0 0 0 0 1 0 0 0 0 1 0 0 0 0 1 0 0 0 0.5 0"/>
<feBlend mode="normal" in2="effect2_innerShadow_1_1438" result="effect3_innerShadow_1_1438"/>
<feColorMatrix in="SourceAlpha" type="matrix" values="0 0 0 0 0 0 0 0 0 0 0 0 0 0 0 0 0 0 127 0" result="hardAlpha"/>
<feOffset dy="0.497264"/>
<feGaussianBlur stdDeviation="10.9398"/>
<feComposite in2="hardAlpha" operator="arithmetic" k2="-1" k3="1"/>
<feColorMatrix type="matrix" values="0 0 0 0 1 0 0 0 0 1 0 0 0 0 1 0 0 0 0.45 0"/>
<feBlend mode="normal" in2="effect3_innerShadow_1_1438" result="effect4_innerShadow_1_1438"/>
<feColorMatrix in="SourceAlpha" type="matrix" values="0 0 0 0 0 0 0 0 0 0 0 0 0 0 0 0 0 0 127 0" result="hardAlpha"/>
<feOffset dx="0.497264" dy="0.497264"/>
<feGaussianBlur stdDeviation="0.497264"/>
<feComposite in2="hardAlpha" operator="arithmetic" k2="-1" k3="1"/>
<feColorMatrix type="matrix" values="0 0 0 0 1 0 0 0 0 1 0 0 0 0 1 0 0 0 1 0"/>
<feBlend mode="normal" in2="effect4_innerShadow_1_1438" result="effect5_innerShadow_1_1438"/>
</filter>
<filter id="filter4_biii_1_1438" x="27.9433" y="13.4341" width="16.1118" height="16.0443" filterUnits="userSpaceOnUse" color-interpolation-filters="sRGB">
<feFlood flood-opacity="0" result="BackgroundImageFix"/>
<feGaussianBlur in="BackgroundImageFix" stdDeviation="0.307833"/>
<feComposite in2="SourceAlpha" operator="in" result="effect1_backgroundBlur_1_1438"/>
<feBlend mode="normal" in="SourceGraphic" in2="effect1_backgroundBlur_1_1438" result="shape"/>
<feColorMatrix in="SourceAlpha" type="matrix" values="0 0 0 0 0 0 0 0 0 0 0 0 0 0 0 0 0 0 127 0" result="hardAlpha"/>
<feOffset dy="0.153916"/>
<feGaussianBlur stdDeviation="0.307833"/>
<feComposite in2="hardAlpha" operator="arithmetic" k2="-1" k3="1"/>
<feColorMatrix type="matrix" values="0 0 0 0 1 0 0 0 0 1 0 0 0 0 1 0 0 0 0.3 0"/>
<feBlend mode="normal" in2="shape" result="effect2_innerShadow_1_1438"/>
<feColorMatrix in="SourceAlpha" type="matrix" values="0 0 0 0 0 0 0 0 0 0 0 0 0 0 0 0 0 0 127 0" result="hardAlpha"/>
<feOffset dy="-0.153916"/>
<feGaussianBlur stdDeviation="0.307833"/>
<feComposite in2="hardAlpha" operator="arithmetic" k2="-1" k3="1"/>
<feColorMatrix type="matrix" values="0 0 0 0 1 0 0 0 0 1 0 0 0 0 1 0 0 0 0.5 0"/>
<feBlend mode="normal" in2="effect2_innerShadow_1_1438" result="effect3_innerShadow_1_1438"/>
<feColorMatrix in="SourceAlpha" type="matrix" values="0 0 0 0 0 0 0 0 0 0 0 0 0 0 0 0 0 0 127 0" result="hardAlpha"/>
<feOffset dy="0.153916"/>
<feGaussianBlur stdDeviation="0.0769582"/>
<feComposite in2="hardAlpha" operator="arithmetic" k2="-1" k3="1"/>
<feColorMatrix type="matrix" values="0 0 0 0 1 0 0 0 0 1 0 0 0 0 1 0 0 0 0.95 0"/>
<feBlend mode="normal" in2="effect3_innerShadow_1_1438" result="effect4_innerShadow_1_1438"/>
</filter>
<filter id="filter5_biiii_1_1438" x="23.9333" y="23.1208" width="10.1937" height="10.179" filterUnits="userSpaceOnUse" color-interpolation-filters="sRGB">
<feFlood flood-opacity="0" result="BackgroundImageFix"/>
<feGaussianBlur in="BackgroundImageFix" stdDeviation="0.994528"/>
<feComposite in2="SourceAlpha" operator="in" result="effect1_backgroundBlur_1_1438"/>
<feBlend mode="normal" in="SourceGraphic" in2="effect1_backgroundBlur_1_1438" result="shape"/>
<feColorMatrix in="SourceAlpha" type="matrix" values="0 0 0 0 0 0 0 0 0 0 0 0 0 0 0 0 0 0 127 0" result="hardAlpha"/>
<feOffset dy="0.497264"/>
<feGaussianBlur stdDeviation="0.994528"/>
<feComposite in2="hardAlpha" operator="arithmetic" k2="-1" k3="1"/>
<feColorMatrix type="matrix" values="0 0 0 0 1 0 0 0 0 1 0 0 0 0 1 0 0 0 0.3 0"/>
<feBlend mode="normal" in2="shape" result="effect2_innerShadow_1_1438"/>
<feColorMatrix in="SourceAlpha" type="matrix" values="0 0 0 0 0 0 0 0 0 0 0 0 0 0 0 0 0 0 127 0" result="hardAlpha"/>
<feOffset dy="-0.497264"/>
<feGaussianBlur stdDeviation="0.994528"/>
<feComposite in2="hardAlpha" operator="arithmetic" k2="-1" k3="1"/>
<feColorMatrix type="matrix" values="0 0 0 0 1 0 0 0 0 1 0 0 0 0 1 0 0 0 0.5 0"/>
<feBlend mode="normal" in2="effect2_innerShadow_1_1438" result="effect3_innerShadow_1_1438"/>
<feColorMatrix in="SourceAlpha" type="matrix" values="0 0 0 0 0 0 0 0 0 0 0 0 0 0 0 0 0 0 127 0" result="hardAlpha"/>
<feOffset dy="0.497264"/>
<feGaussianBlur stdDeviation="10.9398"/>
<feComposite in2="hardAlpha" operator="arithmetic" k2="-1" k3="1"/>
<feColorMatrix type="matrix" values="0 0 0 0 1 0 0 0 0 1 0 0 0 0 1 0 0 0 0.45 0"/>
<feBlend mode="normal" in2="effect3_innerShadow_1_1438" result="effect4_innerShadow_1_1438"/>
<feColorMatrix in="SourceAlpha" type="matrix" values="0 0 0 0 0 0 0 0 0 0 0 0 0 0 0 0 0 0 127 0" result="hardAlpha"/>
<feOffset dx="0.497264" dy="0.497264"/>
<feGaussianBlur stdDeviation="0.497264"/>
<feComposite in2="hardAlpha" operator="arithmetic" k2="-1" k3="1"/>
<feColorMatrix type="matrix" values="0 0 0 0 1 0 0 0 0 1 0 0 0 0 1 0 0 0 1 0"/>
<feBlend mode="normal" in2="effect4_innerShadow_1_1438" result="effect5_innerShadow_1_1438"/>
</filter>
<filter id="filter6_f_1_1438" x="35.7589" y="13.1171" width="14.9179" height="16.9069" filterUnits="userSpaceOnUse" color-interpolation-filters="sRGB">
<feFlood flood-opacity="0" result="BackgroundImageFix"/>
<feBlend mode="normal" in="SourceGraphic" in2="BackgroundImageFix" result="shape"/>
<feGaussianBlur stdDeviation="1.98905" result="effect1_foregroundBlur_1_1438"/>
</filter>
<filter id="filter7_f_1_1438" x="32.8372" y="15.159" width="14.9894" height="17.7513" filterUnits="userSpaceOnUse" color-interpolation-filters="sRGB">
<feFlood flood-opacity="0" result="BackgroundImageFix"/>
<feBlend mode="normal" in="SourceGraphic" in2="BackgroundImageFix" result="shape"/>
<feGaussianBlur stdDeviation="1.49179" result="effect1_foregroundBlur_1_1438"/>
</filter>
<filter id="filter8_f_1_1438" x="40.7273" y="18.2769" width="5.21765" height="5.47988" filterUnits="userSpaceOnUse" color-interpolation-filters="sRGB">
<feFlood flood-opacity="0" result="BackgroundImageFix"/>
<feBlend mode="normal" in="SourceGraphic" in2="BackgroundImageFix" result="shape"/>
<feGaussianBlur stdDeviation="0.248632" result="effect1_foregroundBlur_1_1438"/>
</filter>
<linearGradient id="paint0_linear_1_1438" x1="19.6925" y1="17.4068" x2="21.4992" y2="29.8635" gradientUnits="userSpaceOnUse">
<stop stop-color="white" stop-opacity="0.25"/>
<stop offset="1" stop-color="white" stop-opacity="0"/>
</linearGradient>
<linearGradient id="paint1_linear_1_1438" x1="13.6031" y1="15.2966" x2="22.9221" y2="26.8658" gradientUnits="userSpaceOnUse">
<stop stop-color="white" stop-opacity="0.25"/>
<stop offset="1" stop-color="white" stop-opacity="0"/>
</linearGradient>
<linearGradient id="paint2_linear_1_1438" x1="48.023" y1="18.2077" x2="35.7832" y2="25.5008" gradientUnits="userSpaceOnUse">
<stop offset="0.0941878" stop-color="#FFE5DC"/>
<stop offset="0.230705" stop-color="#FFFFE7" stop-opacity="0"/>
</linearGradient>
<linearGradient id="paint3_linear_1_1438" x1="45.0387" y1="21.851" x2="35.3038" y2="20.2092" gradientUnits="userSpaceOnUse">
<stop stop-color="#FFFFE6"/>
<stop offset="0.360807" stop-color="#D5FFFF"/>
<stop offset="0.977083" stop-color="#D5FFFF" stop-opacity="0"/>
</linearGradient>
<linearGradient id="paint4_linear_1_1438" x1="45.406" y1="23.4141" x2="35.879" y2="29.1464" gradientUnits="userSpaceOnUse">
<stop offset="0.0153056" stop-color="#D4FFE7"/>
<stop offset="0.312156" stop-color="#D5FFFF" stop-opacity="0"/>
</linearGradient>
</defs>
</svg>
