<svg width="57" height="57" viewBox="0 0 57 57" fill="none" xmlns="http://www.w3.org/2000/svg">
<path fill-rule="evenodd" clip-rule="evenodd" d="M20.6408 24.3202L16.2226 26.7911C15.8699 26.9782 15.4353 26.8457 15.2408 26.4918C15.1845 26.3821 15.1542 26.2606 15.1522 26.1368V15.1884C15.1522 13.1004 16.5499 12.2651 18.5613 12.2651H23.2863C25.2363 12.2651 26.6954 13.0447 26.6954 15.0492V26.1368C26.6954 26.3343 26.6186 26.5237 26.4818 26.6634C26.3449 26.8031 26.1594 26.8815 25.9659 26.8815C25.8425 26.8795 25.7212 26.8486 25.6113 26.7911L21.1658 24.3202C21.002 24.2298 20.8047 24.2298 20.6408 24.3202Z" fill="#A9CFFF"/>
<g filter="url(#filter0_f_1_1407)">
<path d="M17.9403 37.2934C18.5267 36.7749 21.6373 34.8581 24.3435 33.2229C26.5807 31.8712 29.1132 32.8943 29.7246 35.376C30.3393 37.8713 28.7293 40.6941 26.3048 41.3201C23.5967 42.0195 20.5423 42.7587 19.7318 42.7587C18.1937 42.7587 16.6862 42.0937 16.3279 41.0953C15.9696 40.0969 16.8654 38.2439 17.9403 37.2934Z" fill="#FFE4DB"/>
</g>
<g filter="url(#filter1_f_1_1407)">
<path d="M23.324 32.9222C23.8065 31.6618 25.1051 31.2513 26.2244 32.0052C27.3438 32.7592 27.86 34.392 27.3774 35.6524L24.7466 42.5235C24.2641 43.7839 22.9655 44.1944 21.8462 43.4405C20.7269 42.6865 20.2107 41.0537 20.6932 39.7933L23.324 32.9222Z" fill="#C5EDFE"/>
</g>
<g filter="url(#filter2_f_1_1407)">
<path d="M25.0179 34.699C25.3153 34.1363 25.9342 34.0315 26.4002 34.4649C26.8663 34.8982 27.003 35.7057 26.7056 36.2683L24.5586 40.3304C24.2612 40.893 23.6423 40.9978 23.1762 40.5645C22.7102 40.1311 22.5734 39.3236 22.8708 38.761L25.0179 34.699Z" fill="#D4FFFF"/>
</g>
<g filter="url(#filter3_b_1_1407)">
<path fill-rule="evenodd" clip-rule="evenodd" d="M16.6451 26.0917L12.2269 28.5625C11.8741 28.7497 11.4395 28.6172 11.2451 28.2633C11.1888 28.1536 11.1584 28.032 11.1564 27.9083V16.9599C11.1564 14.8718 12.5542 14.0366 14.5655 14.0366H19.2906C21.2406 14.0366 22.6997 14.8162 22.6997 16.8207V27.9083C22.6997 28.1058 22.6228 28.2952 22.486 28.4349C22.3492 28.5746 22.1636 28.653 21.9701 28.653C21.8467 28.651 21.7254 28.6201 21.6156 28.5625L17.1701 26.0917C17.0063 26.0013 16.8089 26.0013 16.6451 26.0917Z" fill="#2329D6"/>
</g>
<g filter="url(#filter4_bd_1_1407)">
<path d="M19.0553 18.9088H13.9128C13.6165 18.9088 13.3763 18.6114 13.3763 18.2445C13.3763 17.8775 13.6165 17.5801 13.9128 17.5801H19.0553C19.3517 17.5801 19.5919 17.8775 19.5919 18.2445C19.5919 18.6114 19.3517 18.9088 19.0553 18.9088Z" fill="white"/>
<path d="M19.0553 18.8094H13.9128C13.6902 18.8094 13.4757 18.5774 13.4757 18.2445C13.4757 17.9116 13.6902 17.6795 13.9128 17.6795H19.0553C19.2779 17.6795 19.4924 17.9116 19.4924 18.2445C19.4924 18.5774 19.2779 18.8094 19.0553 18.8094Z" stroke="url(#paint0_linear_1_1407)" stroke-width="0.198906"/>
</g>
<rect x="36.6099" y="36.1091" width="5.00324" height="5.00324" fill="#F84031"/>
<g filter="url(#filter5_f_1_1407)">
<path d="M41.2559 41.2124C38.7656 42.4964 35.7731 41.4853 34.5719 38.954L31.0007 31.4279C29.7996 28.8965 30.8446 25.8035 33.3349 24.5195C35.8252 23.2354 38.8177 24.2466 40.0189 26.7779L43.5901 34.304C44.7913 36.8353 43.7462 39.9283 41.2559 41.2124Z" fill="#FFE4DB"/>
</g>
<g filter="url(#filter6_f_1_1407)">
<path d="M43.0599 38.9863C42.0288 39.518 40.7897 39.0993 40.2923 38.0511L34.1724 25.1539C33.6751 24.1058 34.1078 22.8251 35.139 22.2934C36.1701 21.7617 37.4092 22.1804 37.9066 23.2285L44.0265 36.1257C44.5238 37.1739 44.0911 38.4546 43.0599 38.9863Z" fill="#FFFFE7"/>
</g>
<g filter="url(#filter7_biiii_1_1407)">
<path d="M40.7915 30.4696C39.698 30.4696 38.8083 29.6552 38.8083 28.6543C38.8083 27.6522 39.698 26.8379 40.7915 26.8379C41.0566 26.8379 41.311 26.7416 41.4975 26.5709C41.6853 26.399 41.7905 26.1662 41.7905 25.9236L41.7891 22.6296C41.7891 19.8452 39.3131 17.5801 36.271 17.5801H20.6716C17.6295 17.5801 15.1535 19.8452 15.1535 22.6296L15.1522 26.0296C15.1522 26.2722 15.2574 26.5051 15.4452 26.677C15.6317 26.8476 15.886 26.9439 16.1511 26.9439C17.2819 26.9439 18.1343 27.6791 18.1343 28.6543C18.1343 29.6552 17.2446 30.4696 16.1511 30.4696C15.5997 30.4696 15.1522 30.8792 15.1522 31.3839V34.6754C15.1522 37.4598 17.6269 39.7261 20.6703 39.7261H36.2724C39.3158 39.7261 41.7905 37.4598 41.7905 34.6754V31.3839C41.7905 30.8792 41.343 30.4696 40.7915 30.4696Z" fill="white" fill-opacity="0.2"/>
</g>
<g filter="url(#filter8_f_1_1407)">
<path d="M24.7047 34.0018C24.7047 32.0794 26.2631 30.521 28.1855 30.521C30.1079 30.521 31.6664 32.0794 31.6664 34.0018V35.9909C31.6664 37.9133 30.1079 39.4717 28.1855 39.4717C26.2631 39.4717 24.7047 37.9133 24.7047 35.9909V34.0018Z" fill="#FFFFE7"/>
</g>
<path d="M26.0168 32.9701C26.6672 31.1332 28.6885 30.1569 30.5316 30.7895C32.3748 31.4221 33.3417 33.424 32.6913 35.261L31.775 37.8491C31.5917 38.3668 31.022 38.642 30.5024 38.4637L25.7093 36.8185C25.1898 36.6402 24.9172 36.0759 25.1005 35.5582L26.0168 32.9701Z" fill="url(#paint1_linear_1_1407)"/>
<g filter="url(#filter9_f_1_1407)">
<path d="M21.842 34.6513C22.383 32.4889 24.5783 31.1595 26.7453 31.6821C28.9122 32.2047 30.2304 34.3813 29.6893 36.5438L28.7572 40.2697C28.2162 42.4322 26.0209 43.7616 23.854 43.239C21.687 42.7164 20.3689 40.5397 20.9099 38.3773L21.842 34.6513Z" fill="url(#paint2_linear_1_1407)"/>
</g>
<g style="mix-blend-mode:luminosity">
<path d="M22.5922 33.9345C23.6135 31.9599 26.0543 31.1633 28.0439 32.1552C30.0334 33.1472 30.8183 35.5521 29.797 37.5267L28.0074 40.9866C26.9861 42.9613 24.5453 43.7579 22.5557 42.7659C20.5662 41.7739 19.7813 39.369 20.8026 37.3944L22.5922 33.9345Z" fill="url(#paint3_linear_1_1407)"/>
</g>
<g filter="url(#filter10_f_1_1407)">
<path d="M26.6826 32.5277C27.2664 32.0336 28.1403 32.1064 28.6344 32.6902L30.0879 34.4078C30.5815 34.9911 30.5088 35.8641 29.9255 36.3578C29.4672 36.7456 28.8111 36.7936 28.3012 36.4766L26.9092 35.6112L26.2952 34.1087C26.0683 33.5534 26.2247 32.9152 26.6826 32.5277Z" fill="white"/>
</g>
<g filter="url(#filter11_f_1_1407)">
<path d="M32.2215 29.6265L30.9327 30.8568L31.2377 32.5961C31.2901 32.8973 31.1666 33.1941 30.9141 33.372C30.6638 33.5521 30.3369 33.5746 30.0615 33.431L28.471 32.6111L26.8773 33.432C26.7592 33.4931 26.6302 33.5253 26.5023 33.5253C26.3351 33.5253 26.17 33.4738 26.0279 33.3731C25.7765 33.1941 25.653 32.8973 25.7054 32.5961L26.0093 30.8568L24.7206 29.6265C24.4976 29.4143 24.4199 29.1024 24.5161 28.812C24.6134 28.5226 24.8648 28.3169 25.172 28.274L26.9494 28.02L27.7463 26.4371C27.8851 26.1649 28.1627 25.9956 28.471 25.9956H28.4732C28.7825 25.9967 29.0602 26.166 29.1968 26.4382L29.9937 28.02L31.7744 28.2751C32.0783 28.3169 32.3297 28.5226 32.4259 28.812C32.5231 29.1024 32.4455 29.4143 32.2215 29.6265Z" fill="#A9CFFF"/>
</g>
<g filter="url(#filter12_biiii_1_1407)">
<path d="M32.2215 28.7407L30.9327 29.971L31.2377 31.7104C31.2901 32.0115 31.1666 32.3084 30.9141 32.4863C30.6638 32.6663 30.3369 32.6888 30.0615 32.5452L28.471 31.7254L26.8773 32.5463C26.7592 32.6074 26.6302 32.6395 26.5023 32.6395C26.3351 32.6395 26.17 32.5881 26.0279 32.4873C25.7765 32.3084 25.653 32.0115 25.7054 31.7104L26.0093 29.971L24.7206 28.7407C24.4976 28.5285 24.4199 28.2167 24.5161 27.9263C24.6134 27.6369 24.8648 27.4311 25.172 27.3883L26.9494 27.1343L27.7463 25.5514C27.8851 25.2792 28.1627 25.1099 28.471 25.1099H28.4732C28.7825 25.1109 29.0602 25.2803 29.1968 25.5525L29.9937 27.1343L31.7744 27.3893C32.0783 27.4311 32.3297 27.6369 32.4259 27.9263C32.5231 28.2167 32.4455 28.5285 32.2215 28.7407Z" fill="white" fill-opacity="0.2"/>
</g>
<path d="M32.738 24.0277C32.8419 23.9893 32.9112 23.8871 32.911 23.7724C32.9109 23.6578 32.8414 23.5558 32.7375 23.5176L28.5579 21.9839C28.5019 21.9634 28.4408 21.9634 28.3848 21.9839L24.2052 23.5176C24.1013 23.5557 24.0317 23.6578 24.0316 23.7724C24.0315 23.8871 24.1008 23.9893 24.2046 24.0277L25.8603 24.6399V26.4047C25.8603 26.696 26.1525 26.9423 26.7287 27.1369C27.231 27.3064 27.8498 27.3998 28.4713 27.3998C29.0928 27.3998 29.7117 27.3064 30.214 27.1369C30.7902 26.9423 31.0824 26.696 31.0824 26.4047V24.6399L31.766 24.3871V26.8326C31.462 26.9444 31.2435 27.2462 31.2435 27.6002C31.2435 27.9541 31.462 28.2559 31.766 28.3677V29.4009C31.766 29.5503 31.8824 29.6715 32.0261 29.6715C32.1698 29.6715 32.2863 29.5503 32.2863 29.4009V28.3677C32.5903 28.2559 32.8087 27.9541 32.8087 27.6002C32.8087 27.2462 32.5903 26.9444 32.2863 26.8326V24.1947L32.738 24.0277ZM32.0261 27.873C31.8815 27.873 31.7638 27.7506 31.7638 27.6001C31.7638 27.4497 31.8815 27.3273 32.0261 27.3273C32.1707 27.3273 32.2884 27.4497 32.2884 27.6001C32.2884 27.7506 32.1707 27.873 32.0261 27.873ZM28.4713 22.526L31.8717 23.7737L28.4713 25.031L25.071 23.7737L28.4713 22.526ZM30.5621 26.364C30.5122 26.4162 30.3337 26.5414 29.9309 26.661C29.5011 26.7885 28.9828 26.8587 28.4713 26.8587C27.9599 26.8587 27.4415 26.7885 27.0118 26.661C26.6089 26.5414 26.4304 26.4162 26.3806 26.364V24.8322L28.3842 25.573C28.4124 25.5835 28.4418 25.5887 28.4713 25.5887C28.5008 25.5887 28.5303 25.5835 28.5584 25.573L30.562 24.8322V26.364H30.5621Z" fill="#2329D6"/>
<rect x="35.8601" y="37.1108" width="1.49983" height="1.49983" fill="#F84031"/>
<rect x="41.2353" y="39.1999" width="2.98358" height="3.97811" stroke="white" stroke-width="0.994528" stroke-dasharray="1.99 1.99"/>
<rect x="41.2353" y="39.1999" width="2.98358" height="3.97811" stroke="url(#paint4_linear_1_1407)" stroke-width="0.994528" stroke-dasharray="1.99 1.99"/>
<mask id="mask0_1_1407" style="mask-type:alpha" maskUnits="userSpaceOnUse" x="16" y="35" width="15" height="10">
<path d="M16.9641 40.0872V35.6118L30.8875 36.1956V44.5626H21.8909C18.4636 43.4729 17.1783 41.125 16.9641 40.0872Z" fill="#2329D6"/>
</mask>
<g mask="url(#mask0_1_1407)">
<circle cx="19.2017" cy="46.303" r="7.70759" stroke="white" stroke-width="0.870212" stroke-linecap="round" stroke-linejoin="round" stroke-dasharray="1.74 1.74"/>
<circle cx="18.9532" cy="46.0544" r="9.94527" stroke="#050121" stroke-width="0.870212" stroke-linecap="round" stroke-linejoin="round" stroke-dasharray="1.74 1.74"/>
</g>
<rect x="44.8109" y="20.1967" width="2.98358" height="3.48084" stroke="#050121" stroke-width="0.994528" stroke-dasharray="1.99 1.99"/>
<defs>
<filter id="filter0_f_1_1407" x="14.7559" y="31.131" width="16.5919" height="13.1193" filterUnits="userSpaceOnUse" color-interpolation-filters="sRGB">
<feFlood flood-opacity="0" result="BackgroundImageFix"/>
<feBlend mode="normal" in="SourceGraphic" in2="BackgroundImageFix" result="shape"/>
<feGaussianBlur stdDeviation="0.745895" result="effect1_foregroundBlur_1_1407"/>
</filter>
<filter id="filter1_f_1_1407" x="18.026" y="29.1414" width="12.0186" height="17.1631" filterUnits="userSpaceOnUse" color-interpolation-filters="sRGB">
<feFlood flood-opacity="0" result="BackgroundImageFix"/>
<feBlend mode="normal" in="SourceGraphic" in2="BackgroundImageFix" result="shape"/>
<feGaussianBlur stdDeviation="1.24316" result="effect1_foregroundBlur_1_1407"/>
</filter>
<filter id="filter2_f_1_1407" x="21.719" y="33.2032" width="6.13845" height="8.62309" filterUnits="userSpaceOnUse" color-interpolation-filters="sRGB">
<feFlood flood-opacity="0" result="BackgroundImageFix"/>
<feBlend mode="normal" in="SourceGraphic" in2="BackgroundImageFix" result="shape"/>
<feGaussianBlur stdDeviation="0.497264" result="effect1_foregroundBlur_1_1407"/>
</filter>
<filter id="filter3_b_1_1407" x="-0.777918" y="2.10229" width="35.4119" height="38.4851" filterUnits="userSpaceOnUse" color-interpolation-filters="sRGB">
<feFlood flood-opacity="0" result="BackgroundImageFix"/>
<feGaussianBlur in="BackgroundImageFix" stdDeviation="5.96717"/>
<feComposite in2="SourceAlpha" operator="in" result="effect1_backgroundBlur_1_1407"/>
<feBlend mode="normal" in="SourceGraphic" in2="effect1_backgroundBlur_1_1407" result="shape"/>
</filter>
<filter id="filter4_bd_1_1407" x="5.91732" y="10.1211" width="21.1335" height="16.2468" filterUnits="userSpaceOnUse" color-interpolation-filters="sRGB">
<feFlood flood-opacity="0" result="BackgroundImageFix"/>
<feGaussianBlur in="BackgroundImageFix" stdDeviation="3.72948"/>
<feComposite in2="SourceAlpha" operator="in" result="effect1_backgroundBlur_1_1407"/>
<feColorMatrix in="SourceAlpha" type="matrix" values="0 0 0 0 0 0 0 0 0 0 0 0 0 0 0 0 0 0 127 0" result="hardAlpha"/>
<feOffset dx="2.48632" dy="2.48632"/>
<feGaussianBlur stdDeviation="2.48632"/>
<feColorMatrix type="matrix" values="0 0 0 0 1 0 0 0 0 0.521569 0 0 0 0 0.133333 0 0 0 0.5 0"/>
<feBlend mode="normal" in2="effect1_backgroundBlur_1_1407" result="effect2_dropShadow_1_1407"/>
<feBlend mode="normal" in="SourceGraphic" in2="effect2_dropShadow_1_1407" result="shape"/>
</filter>
<filter id="filter5_f_1_1407" x="25.5298" y="18.9898" width="23.5312" height="27.7524" filterUnits="userSpaceOnUse" color-interpolation-filters="sRGB">
<feFlood flood-opacity="0" result="BackgroundImageFix"/>
<feBlend mode="normal" in="SourceGraphic" in2="BackgroundImageFix" result="shape"/>
<feGaussianBlur stdDeviation="2.48632" result="effect1_foregroundBlur_1_1407"/>
</filter>
<filter id="filter6_f_1_1407" x="28.9935" y="17.0901" width="20.2119" height="27.0996" filterUnits="userSpaceOnUse" color-interpolation-filters="sRGB">
<feFlood flood-opacity="0" result="BackgroundImageFix"/>
<feBlend mode="normal" in="SourceGraphic" in2="BackgroundImageFix" result="shape"/>
<feGaussianBlur stdDeviation="2.48632" result="effect1_foregroundBlur_1_1407"/>
</filter>
<filter id="filter7_biiii_1_1407" x="13.1631" y="15.591" width="30.6164" height="26.1241" filterUnits="userSpaceOnUse" color-interpolation-filters="sRGB">
<feFlood flood-opacity="0" result="BackgroundImageFix"/>
<feGaussianBlur in="BackgroundImageFix" stdDeviation="0.994528"/>
<feComposite in2="SourceAlpha" operator="in" result="effect1_backgroundBlur_1_1407"/>
<feBlend mode="normal" in="SourceGraphic" in2="effect1_backgroundBlur_1_1407" result="shape"/>
<feColorMatrix in="SourceAlpha" type="matrix" values="0 0 0 0 0 0 0 0 0 0 0 0 0 0 0 0 0 0 127 0" result="hardAlpha"/>
<feOffset dy="0.497264"/>
<feGaussianBlur stdDeviation="0.994528"/>
<feComposite in2="hardAlpha" operator="arithmetic" k2="-1" k3="1"/>
<feColorMatrix type="matrix" values="0 0 0 0 1 0 0 0 0 1 0 0 0 0 1 0 0 0 0.3 0"/>
<feBlend mode="normal" in2="shape" result="effect2_innerShadow_1_1407"/>
<feColorMatrix in="SourceAlpha" type="matrix" values="0 0 0 0 0 0 0 0 0 0 0 0 0 0 0 0 0 0 127 0" result="hardAlpha"/>
<feOffset dy="-0.497264"/>
<feGaussianBlur stdDeviation="0.994528"/>
<feComposite in2="hardAlpha" operator="arithmetic" k2="-1" k3="1"/>
<feColorMatrix type="matrix" values="0 0 0 0 1 0 0 0 0 1 0 0 0 0 1 0 0 0 0.5 0"/>
<feBlend mode="normal" in2="effect2_innerShadow_1_1407" result="effect3_innerShadow_1_1407"/>
<feColorMatrix in="SourceAlpha" type="matrix" values="0 0 0 0 0 0 0 0 0 0 0 0 0 0 0 0 0 0 127 0" result="hardAlpha"/>
<feOffset dy="0.497264"/>
<feGaussianBlur stdDeviation="10.9398"/>
<feComposite in2="hardAlpha" operator="arithmetic" k2="-1" k3="1"/>
<feColorMatrix type="matrix" values="0 0 0 0 1 0 0 0 0 1 0 0 0 0 1 0 0 0 0.45 0"/>
<feBlend mode="normal" in2="effect3_innerShadow_1_1407" result="effect4_innerShadow_1_1407"/>
<feColorMatrix in="SourceAlpha" type="matrix" values="0 0 0 0 0 0 0 0 0 0 0 0 0 0 0 0 0 0 127 0" result="hardAlpha"/>
<feOffset dx="0.497264" dy="0.497264"/>
<feGaussianBlur stdDeviation="0.497264"/>
<feComposite in2="hardAlpha" operator="arithmetic" k2="-1" k3="1"/>
<feColorMatrix type="matrix" values="0 0 0 0 1 0 0 0 0 1 0 0 0 0 1 0 0 0 1 0"/>
<feBlend mode="normal" in2="effect4_innerShadow_1_1407" result="effect5_innerShadow_1_1407"/>
</filter>
<filter id="filter8_f_1_1407" x="20.7266" y="26.5429" width="14.9179" height="16.9069" filterUnits="userSpaceOnUse" color-interpolation-filters="sRGB">
<feFlood flood-opacity="0" result="BackgroundImageFix"/>
<feBlend mode="normal" in="SourceGraphic" in2="BackgroundImageFix" result="shape"/>
<feGaussianBlur stdDeviation="1.98905" result="effect1_foregroundBlur_1_1407"/>
</filter>
<filter id="filter9_f_1_1407" x="17.8049" y="28.5848" width="14.9894" height="17.7513" filterUnits="userSpaceOnUse" color-interpolation-filters="sRGB">
<feFlood flood-opacity="0" result="BackgroundImageFix"/>
<feBlend mode="normal" in="SourceGraphic" in2="BackgroundImageFix" result="shape"/>
<feGaussianBlur stdDeviation="1.49179" result="effect1_foregroundBlur_1_1407"/>
</filter>
<filter id="filter10_f_1_1407" x="25.695" y="31.7027" width="5.21766" height="5.47988" filterUnits="userSpaceOnUse" color-interpolation-filters="sRGB">
<feFlood flood-opacity="0" result="BackgroundImageFix"/>
<feBlend mode="normal" in="SourceGraphic" in2="BackgroundImageFix" result="shape"/>
<feGaussianBlur stdDeviation="0.248632" result="effect1_foregroundBlur_1_1407"/>
</filter>
<filter id="filter11_f_1_1407" x="22.4865" y="24.0065" width="11.9696" height="11.5077" filterUnits="userSpaceOnUse" color-interpolation-filters="sRGB">
<feFlood flood-opacity="0" result="BackgroundImageFix"/>
<feBlend mode="normal" in="SourceGraphic" in2="BackgroundImageFix" result="shape"/>
<feGaussianBlur stdDeviation="0.994528" result="effect1_foregroundBlur_1_1407"/>
</filter>
<filter id="filter12_biiii_1_1407" x="22.4865" y="23.1208" width="11.9696" height="11.5077" filterUnits="userSpaceOnUse" color-interpolation-filters="sRGB">
<feFlood flood-opacity="0" result="BackgroundImageFix"/>
<feGaussianBlur in="BackgroundImageFix" stdDeviation="0.994528"/>
<feComposite in2="SourceAlpha" operator="in" result="effect1_backgroundBlur_1_1407"/>
<feBlend mode="normal" in="SourceGraphic" in2="effect1_backgroundBlur_1_1407" result="shape"/>
<feColorMatrix in="SourceAlpha" type="matrix" values="0 0 0 0 0 0 0 0 0 0 0 0 0 0 0 0 0 0 127 0" result="hardAlpha"/>
<feOffset dy="0.497264"/>
<feGaussianBlur stdDeviation="0.994528"/>
<feComposite in2="hardAlpha" operator="arithmetic" k2="-1" k3="1"/>
<feColorMatrix type="matrix" values="0 0 0 0 1 0 0 0 0 1 0 0 0 0 1 0 0 0 0.3 0"/>
<feBlend mode="normal" in2="shape" result="effect2_innerShadow_1_1407"/>
<feColorMatrix in="SourceAlpha" type="matrix" values="0 0 0 0 0 0 0 0 0 0 0 0 0 0 0 0 0 0 127 0" result="hardAlpha"/>
<feOffset dy="-0.497264"/>
<feGaussianBlur stdDeviation="0.994528"/>
<feComposite in2="hardAlpha" operator="arithmetic" k2="-1" k3="1"/>
<feColorMatrix type="matrix" values="0 0 0 0 1 0 0 0 0 1 0 0 0 0 1 0 0 0 0.5 0"/>
<feBlend mode="normal" in2="effect2_innerShadow_1_1407" result="effect3_innerShadow_1_1407"/>
<feColorMatrix in="SourceAlpha" type="matrix" values="0 0 0 0 0 0 0 0 0 0 0 0 0 0 0 0 0 0 127 0" result="hardAlpha"/>
<feOffset dy="0.497264"/>
<feGaussianBlur stdDeviation="10.9398"/>
<feComposite in2="hardAlpha" operator="arithmetic" k2="-1" k3="1"/>
<feColorMatrix type="matrix" values="0 0 0 0 1 0 0 0 0 1 0 0 0 0 1 0 0 0 0.45 0"/>
<feBlend mode="normal" in2="effect3_innerShadow_1_1407" result="effect4_innerShadow_1_1407"/>
<feColorMatrix in="SourceAlpha" type="matrix" values="0 0 0 0 0 0 0 0 0 0 0 0 0 0 0 0 0 0 127 0" result="hardAlpha"/>
<feOffset dx="0.497264" dy="0.497264"/>
<feGaussianBlur stdDeviation="0.497264"/>
<feComposite in2="hardAlpha" operator="arithmetic" k2="-1" k3="1"/>
<feColorMatrix type="matrix" values="0 0 0 0 1 0 0 0 0 1 0 0 0 0 1 0 0 0 1 0"/>
<feBlend mode="normal" in2="effect4_innerShadow_1_1407" result="effect5_innerShadow_1_1407"/>
</filter>
<linearGradient id="paint0_linear_1_1407" x1="14.3657" y1="17.7349" x2="14.6564" y2="19.4189" gradientUnits="userSpaceOnUse">
<stop stop-color="white" stop-opacity="0.25"/>
<stop offset="1" stop-color="white" stop-opacity="0"/>
</linearGradient>
<linearGradient id="paint1_linear_1_1407" x1="32.9907" y1="31.6335" x2="20.7509" y2="38.9266" gradientUnits="userSpaceOnUse">
<stop offset="0.0941878" stop-color="#FFE5DC"/>
<stop offset="0.230705" stop-color="#FFFFE7" stop-opacity="0"/>
</linearGradient>
<linearGradient id="paint2_linear_1_1407" x1="30.0063" y1="35.2768" x2="20.2714" y2="33.635" gradientUnits="userSpaceOnUse">
<stop stop-color="#FFFFE6"/>
<stop offset="0.360807" stop-color="#D5FFFF"/>
<stop offset="0.977083" stop-color="#D5FFFF" stop-opacity="0"/>
</linearGradient>
<linearGradient id="paint3_linear_1_1407" x1="30.3737" y1="36.8398" x2="20.8466" y2="42.5722" gradientUnits="userSpaceOnUse">
<stop offset="0.0153056" stop-color="#D4FFE7"/>
<stop offset="0.312156" stop-color="#D5FFFF" stop-opacity="0"/>
</linearGradient>
<linearGradient id="paint4_linear_1_1407" x1="42.7271" y1="38.7026" x2="42.7271" y2="43.6753" gradientUnits="userSpaceOnUse">
<stop offset="0.60706" stop-color="#FFE2D9"/>
<stop offset="1" stop-color="#E4EBFF"/>
</linearGradient>
</defs>
</svg>
