<svg width="57" height="58" viewBox="0 0 57 58" fill="none" xmlns="http://www.w3.org/2000/svg">
<rect x="24.9202" y="31.2036" width="4.97264" height="4.97264" fill="#ED392D"/>
<path d="M32.8765 37.647C32.8765 34.9124 35.0933 32.6956 37.828 32.6956H43.1921C45.9267 32.6956 48.1435 34.9124 48.1435 37.647V47.1374C48.1435 49.872 45.9267 52.0888 43.192 52.0888H37.828C35.0933 52.0888 32.8765 49.872 32.8765 47.1374V37.647Z" fill="#2329D6"/>
<g filter="url(#filter0_biii_1_1320)">
<path fill-rule="evenodd" clip-rule="evenodd" d="M36.8109 34.8074H39.8998C40.2745 34.8074 40.5852 35.1178 40.5852 35.4922C40.5852 35.8666 40.2745 36.1679 39.8998 36.1679H36.8109C36.4363 36.1679 36.1256 35.8666 36.1256 35.4922C36.1256 35.1178 36.4363 34.8074 36.8109 34.8074ZM39.8996 40.7334H34.9283C34.5536 40.7334 34.2429 40.4229 34.2429 40.0485C34.2429 39.6741 34.5536 39.3728 34.9283 39.3728H39.8996C40.2743 39.3728 40.585 39.6741 40.585 40.0485C40.585 40.4229 40.2743 40.7334 39.8996 40.7334Z" fill="white"/>
</g>
<g filter="url(#filter1_biiii_1_1320)">
<path d="M19.4504 23.2474C19.4504 19.9519 22.122 17.2803 25.4175 17.2803H35.1215C35.9128 17.2803 36.6717 17.5946 37.2312 18.1541L40.3354 21.2584L43.4397 24.3626C43.9992 24.9221 44.3135 25.681 44.3135 26.4723V42.6407C44.3135 45.9363 41.6419 48.6079 38.3464 48.6079H25.4175C22.122 48.6079 19.4504 45.9363 19.4504 42.6407V23.2474Z" fill="white" fill-opacity="0.2"/>
</g>
<g filter="url(#filter2_f_1_1320)">
<path fill-rule="evenodd" clip-rule="evenodd" d="M30.6189 28.6909H35.3384C35.9108 28.6909 36.3856 29.1653 36.3856 29.7373C36.3856 30.3094 35.9108 30.7698 35.3384 30.7698H30.6189C30.0464 30.7698 29.5716 30.3094 29.5716 29.7373C29.5716 29.1653 30.0464 28.6909 30.6189 28.6909ZM35.3383 37.7454H27.7425C27.17 37.7454 26.6952 37.2711 26.6952 36.699C26.6952 36.127 27.17 35.6666 27.7425 35.6666H35.3383C35.9108 35.6666 36.3856 36.127 36.3856 36.699C36.3856 37.2711 35.9108 37.7454 35.3383 37.7454Z" fill="#A9CFFF"/>
</g>
<g filter="url(#filter3_biii_1_1320)">
<path fill-rule="evenodd" clip-rule="evenodd" d="M30.6189 27.8052H35.3384C35.9108 27.8052 36.3856 28.2795 36.3856 28.8516C36.3856 29.4236 35.9108 29.884 35.3384 29.884H30.6189C30.0464 29.884 29.5716 29.4236 29.5716 28.8516C29.5716 28.2795 30.0464 27.8052 30.6189 27.8052ZM35.3383 36.8597H27.7425C27.17 36.8597 26.6952 36.3853 26.6952 35.8133C26.6952 35.2413 27.17 34.7808 27.7425 34.7808H35.3383C35.9108 34.7808 36.3856 35.2413 36.3856 35.8133C36.3856 36.3853 35.9108 36.8597 35.3383 36.8597Z" fill="white" fill-opacity="0.2"/>
</g>
<g filter="url(#filter4_f_1_1320)">
<path d="M32.3235 27.0799C33.2967 27.0896 34.6497 27.0938 35.7975 27.0896C36.3853 27.0882 36.6841 26.3864 36.2764 25.9637C34.8019 24.4318 32.1643 21.6902 30.6549 20.122C30.2374 19.6881 29.5071 19.9866 29.5071 20.588V24.2657C29.5071 25.8088 30.7792 27.0799 32.3235 27.0799Z" fill="#A9CFFF"/>
</g>
<g filter="url(#filter5_biii_1_1320)">
<path d="M32.3235 25.751C33.2967 25.7608 34.6497 25.7649 35.7975 25.7608C36.3853 25.7594 36.6841 25.0576 36.2764 24.6348C34.8019 23.1029 32.1643 20.3613 30.6549 18.7931C30.2374 18.3592 29.5071 18.6578 29.5071 19.2591V22.9369C29.5071 24.48 30.7792 25.751 32.3235 25.751Z" fill="white" fill-opacity="0.2"/>
</g>
<path d="M21.0209 22.9058C21.2125 22.9058 21.3678 22.7509 21.3678 22.5598V18.8919C21.3678 18.1286 20.7454 17.5077 19.9804 17.5077H19.5294V17.1617C19.5294 16.9706 19.3742 16.8157 19.1826 16.8157C18.991 16.8157 18.8357 16.9706 18.8357 17.1617V17.5077H17.2576V17.1617C17.2576 16.9706 17.1023 16.8157 16.9107 16.8157C16.7191 16.8157 16.5639 16.9706 16.5639 17.1617V17.5077H15.003V17.1617C15.003 16.9706 14.8477 16.8157 14.6562 16.8157C14.4646 16.8157 14.3093 16.9706 14.3093 17.1617V17.5077H13.8757C13.1107 17.5077 12.4883 18.1286 12.4883 18.8919V24.29C12.4883 25.0532 13.1107 25.6741 13.8757 25.6741H19.9804C20.7454 25.6741 21.3678 25.0532 21.3678 24.29C21.3678 24.0988 21.2125 23.9439 21.0209 23.9439C20.8293 23.9439 20.6741 24.0988 20.6741 24.29C20.6741 24.6716 20.3628 24.982 19.9804 24.982H13.8757C13.4933 24.982 13.182 24.6716 13.182 24.29V20.276H20.6741V22.5598C20.6741 22.7509 20.8293 22.9058 21.0209 22.9058ZM13.182 19.5839V18.8919C13.182 18.5103 13.4933 18.1998 13.8757 18.1998H14.3093V18.5458C14.3093 18.737 14.4646 18.8919 14.6562 18.8919C14.8477 18.8919 15.003 18.737 15.003 18.5458V18.1998H16.5639V18.5458C16.5639 18.737 16.7191 18.8919 16.9107 18.8919C17.1023 18.8919 17.2576 18.737 17.2576 18.5458V18.1998H18.8357V18.5458C18.8357 18.737 18.991 18.8919 19.1826 18.8919C19.3742 18.8919 19.5294 18.737 19.5294 18.5458V18.1998H19.9804C20.3628 18.1998 20.6741 18.5103 20.6741 18.8919V19.5839H13.182ZM18.645 22.6463C18.645 22.8374 18.4897 22.9923 18.2981 22.9923C18.1065 22.9923 17.9513 22.8374 17.9513 22.6463C17.9513 22.4552 18.1065 22.3003 18.2981 22.3003C18.4897 22.3003 18.645 22.4552 18.645 22.6463ZM17.2749 22.6463C17.2749 22.8374 17.1196 22.9923 16.928 22.9923C16.7365 22.9923 16.5812 22.8374 16.5812 22.6463C16.5812 22.4552 16.7365 22.3003 16.928 22.3003C17.1196 22.3003 17.2749 22.4552 17.2749 22.6463ZM18.645 21.2622C18.645 21.4533 18.4897 21.6082 18.2981 21.6082C18.1065 21.6082 17.9513 21.4533 17.9513 21.2622C17.9513 21.0711 18.1065 20.9162 18.2981 20.9162C18.4897 20.9162 18.645 21.0711 18.645 21.2622ZM14.5001 21.2622C14.5001 21.4533 14.3448 21.6082 14.1532 21.6082C13.9616 21.6082 13.8064 21.4533 13.8064 21.2622C13.8064 21.0711 13.9616 20.9162 14.1532 20.9162C14.3448 20.9162 14.5001 21.0711 14.5001 21.2622ZM20.015 21.2622C20.015 21.4533 19.8598 21.6082 19.6682 21.6082C19.4766 21.6082 19.3213 21.4533 19.3213 21.2622C19.3213 21.0711 19.4766 20.9162 19.6682 20.9162C19.8598 20.9162 20.015 21.0711 20.015 21.2622ZM20.015 22.6463C20.015 22.8374 19.8598 22.9923 19.6682 22.9923C19.4766 22.9923 19.3213 22.8374 19.3213 22.6463C19.3213 22.4552 19.4766 22.3003 19.6682 22.3003C19.8598 22.3003 20.015 22.4552 20.015 22.6463ZM18.645 24.0304C18.645 24.2216 18.4897 24.3765 18.2981 24.3765C18.1065 24.3765 17.9513 24.2216 17.9513 24.0304C17.9513 23.8393 18.1065 23.6844 18.2981 23.6844C18.4897 23.6844 18.645 23.8393 18.645 24.0304ZM14.5001 22.6463C14.5001 22.8374 14.3448 22.9923 14.1532 22.9923C13.9616 22.9923 13.8064 22.8374 13.8064 22.6463C13.8064 22.4552 13.9616 22.3003 14.1532 22.3003C14.3448 22.3003 14.5001 22.4552 14.5001 22.6463ZM15.8875 21.2622C15.8875 21.4533 15.7322 21.6082 15.5406 21.6082C15.3491 21.6082 15.1938 21.4533 15.1938 21.2622C15.1938 21.0711 15.3491 20.9162 15.5406 20.9162C15.7322 20.9162 15.8875 21.0711 15.8875 21.2622ZM14.5001 24.0304C14.5001 24.2216 14.3448 24.3765 14.1532 24.3765C13.9616 24.3765 13.8064 24.2216 13.8064 24.0304C13.8064 23.8393 13.9616 23.6844 14.1532 23.6844C14.3448 23.6844 14.5001 23.8393 14.5001 24.0304ZM15.8875 22.6463C15.8875 22.8374 15.7322 22.9923 15.5406 22.9923C15.3491 22.9923 15.1938 22.8374 15.1938 22.6463C15.1938 22.4552 15.3491 22.3003 15.5406 22.3003C15.7322 22.3003 15.8875 22.4552 15.8875 22.6463ZM15.8875 24.0304C15.8875 24.2216 15.7322 24.3765 15.5406 24.3765C15.3491 24.3765 15.1938 24.2216 15.1938 24.0304C15.1938 23.8393 15.3491 23.6844 15.5406 23.6844C15.7322 23.6844 15.8875 23.8393 15.8875 24.0304ZM17.2749 21.2622C17.2749 21.4533 17.1196 21.6082 16.928 21.6082C16.7365 21.6082 16.5812 21.4533 16.5812 21.2622C16.5812 21.0711 16.7365 20.9162 16.928 20.9162C17.1196 20.9162 17.2749 21.0711 17.2749 21.2622ZM17.2749 24.0304C17.2749 24.2216 17.1196 24.3765 16.928 24.3765C16.7365 24.3765 16.5812 24.2216 16.5812 24.0304C16.5812 23.8393 16.7365 23.6844 16.928 23.6844C17.1196 23.6844 17.2749 23.8393 17.2749 24.0304Z" fill="#2329D6"/>
<rect x="24.9202" y="31.2036" width="1.98905" height="1.98905" fill="#ED392D"/>
<circle cx="20.1963" cy="44.3812" r="6.21579" stroke="#050121" stroke-width="1.98906" stroke-dasharray="1.3 1.3"/>
<mask id="mask0_1_1320" style="mask-type:alpha" maskUnits="userSpaceOnUse" x="19" y="34" width="12" height="15">
<path d="M19.699 48.6079L19.4504 34.4359L30.6388 34.1873L30.8874 48.6079H19.699Z" fill="#2329D6"/>
</mask>
<g mask="url(#mask0_1_1320)">
<circle cx="20.1963" cy="44.3812" r="6.21579" stroke="white" stroke-width="1.98906" stroke-dasharray="1.3 1.3"/>
</g>
<g filter="url(#filter6_f_1_1320)">
<path d="M37.6335 16.6659C37.6335 14.7435 39.1919 13.1851 41.1143 13.1851C43.0368 13.1851 44.5952 14.7435 44.5952 16.6659V18.655C44.5952 20.5774 43.0368 22.1358 41.1143 22.1358C39.1919 22.1358 37.6335 20.5774 37.6335 18.655V16.6659Z" fill="#FFFFE7"/>
</g>
<path d="M38.9457 15.6342C39.596 13.7972 41.6174 12.8209 43.4605 13.4535C45.3036 14.0862 46.2705 16.0881 45.6202 17.925L44.7039 20.5131C44.5205 21.0309 43.9508 21.3061 43.4313 21.1278L38.6381 19.4826C38.1186 19.3043 37.8461 18.74 38.0294 18.2222L38.9457 15.6342Z" fill="url(#paint0_linear_1_1320)"/>
<g filter="url(#filter7_f_1_1320)">
<path d="M34.7709 17.3154C35.3119 15.1529 37.5071 13.8235 39.6741 14.3461C41.8411 14.8687 43.1592 17.0454 42.6182 19.2079L41.686 22.9338C41.145 25.0963 38.9498 26.4256 36.7828 25.903C34.6158 25.3804 33.2977 23.2038 33.8387 21.0413L34.7709 17.3154Z" fill="url(#paint1_linear_1_1320)"/>
</g>
<g style="mix-blend-mode:luminosity">
<path d="M35.521 16.5986C36.5424 14.624 38.9832 13.8273 40.9727 14.8193C42.9623 15.8113 43.7472 18.2162 42.7258 20.1908L40.9363 23.6507C39.9149 25.6253 37.4741 26.4219 35.4846 25.43C33.495 24.438 32.7101 22.0331 33.7315 20.0585L35.521 16.5986Z" fill="url(#paint2_linear_1_1320)"/>
</g>
<g filter="url(#filter8_f_1_1320)">
<path d="M39.6114 15.1917C40.1953 14.6977 41.0691 14.7704 41.5632 15.3543L43.0167 17.0719C43.5104 17.6552 43.4377 18.5282 42.8544 19.0218C42.3961 19.4097 41.7399 19.4577 41.23 19.1407L39.838 18.2752L39.2241 16.7728C38.9971 16.2175 39.1535 15.5793 39.6114 15.1917Z" fill="white"/>
</g>
<rect x="42.8218" y="23.2475" width="2.98358" height="3.48084" stroke="#050121" stroke-width="0.994528" stroke-dasharray="1.99 1.99"/>
<defs>
<filter id="filter0_biii_1_1320" x="32.6103" y="33.1749" width="9.60734" height="9.19105" filterUnits="userSpaceOnUse" color-interpolation-filters="sRGB">
<feFlood flood-opacity="0" result="BackgroundImageFix"/>
<feGaussianBlur in="BackgroundImageFix" stdDeviation="0.816256"/>
<feComposite in2="SourceAlpha" operator="in" result="effect1_backgroundBlur_1_1320"/>
<feBlend mode="normal" in="SourceGraphic" in2="effect1_backgroundBlur_1_1320" result="shape"/>
<feColorMatrix in="SourceAlpha" type="matrix" values="0 0 0 0 0 0 0 0 0 0 0 0 0 0 0 0 0 0 127 0" result="hardAlpha"/>
<feOffset dy="0.408128"/>
<feGaussianBlur stdDeviation="0.816256"/>
<feComposite in2="hardAlpha" operator="arithmetic" k2="-1" k3="1"/>
<feColorMatrix type="matrix" values="0 0 0 0 1 0 0 0 0 1 0 0 0 0 1 0 0 0 0.3 0"/>
<feBlend mode="normal" in2="shape" result="effect2_innerShadow_1_1320"/>
<feColorMatrix in="SourceAlpha" type="matrix" values="0 0 0 0 0 0 0 0 0 0 0 0 0 0 0 0 0 0 127 0" result="hardAlpha"/>
<feOffset dy="-0.408128"/>
<feGaussianBlur stdDeviation="0.816256"/>
<feComposite in2="hardAlpha" operator="arithmetic" k2="-1" k3="1"/>
<feColorMatrix type="matrix" values="0 0 0 0 1 0 0 0 0 1 0 0 0 0 1 0 0 0 0.5 0"/>
<feBlend mode="normal" in2="effect2_innerShadow_1_1320" result="effect3_innerShadow_1_1320"/>
<feColorMatrix in="SourceAlpha" type="matrix" values="0 0 0 0 0 0 0 0 0 0 0 0 0 0 0 0 0 0 127 0" result="hardAlpha"/>
<feOffset dy="0.408128"/>
<feGaussianBlur stdDeviation="0.204064"/>
<feComposite in2="hardAlpha" operator="arithmetic" k2="-1" k3="1"/>
<feColorMatrix type="matrix" values="0 0 0 0 1 0 0 0 0 1 0 0 0 0 1 0 0 0 0.95 0"/>
<feBlend mode="normal" in2="effect3_innerShadow_1_1320" result="effect4_innerShadow_1_1320"/>
</filter>
<filter id="filter1_biiii_1_1320" x="17.4613" y="15.2912" width="28.8413" height="35.3057" filterUnits="userSpaceOnUse" color-interpolation-filters="sRGB">
<feFlood flood-opacity="0" result="BackgroundImageFix"/>
<feGaussianBlur in="BackgroundImageFix" stdDeviation="0.994528"/>
<feComposite in2="SourceAlpha" operator="in" result="effect1_backgroundBlur_1_1320"/>
<feBlend mode="normal" in="SourceGraphic" in2="effect1_backgroundBlur_1_1320" result="shape"/>
<feColorMatrix in="SourceAlpha" type="matrix" values="0 0 0 0 0 0 0 0 0 0 0 0 0 0 0 0 0 0 127 0" result="hardAlpha"/>
<feOffset dy="0.497264"/>
<feGaussianBlur stdDeviation="0.994528"/>
<feComposite in2="hardAlpha" operator="arithmetic" k2="-1" k3="1"/>
<feColorMatrix type="matrix" values="0 0 0 0 1 0 0 0 0 1 0 0 0 0 1 0 0 0 0.3 0"/>
<feBlend mode="normal" in2="shape" result="effect2_innerShadow_1_1320"/>
<feColorMatrix in="SourceAlpha" type="matrix" values="0 0 0 0 0 0 0 0 0 0 0 0 0 0 0 0 0 0 127 0" result="hardAlpha"/>
<feOffset dy="-0.497264"/>
<feGaussianBlur stdDeviation="0.994528"/>
<feComposite in2="hardAlpha" operator="arithmetic" k2="-1" k3="1"/>
<feColorMatrix type="matrix" values="0 0 0 0 1 0 0 0 0 1 0 0 0 0 1 0 0 0 0.5 0"/>
<feBlend mode="normal" in2="effect2_innerShadow_1_1320" result="effect3_innerShadow_1_1320"/>
<feColorMatrix in="SourceAlpha" type="matrix" values="0 0 0 0 0 0 0 0 0 0 0 0 0 0 0 0 0 0 127 0" result="hardAlpha"/>
<feOffset dy="0.497264"/>
<feGaussianBlur stdDeviation="10.9398"/>
<feComposite in2="hardAlpha" operator="arithmetic" k2="-1" k3="1"/>
<feColorMatrix type="matrix" values="0 0 0 0 1 0 0 0 0 1 0 0 0 0 1 0 0 0 0.45 0"/>
<feBlend mode="normal" in2="effect3_innerShadow_1_1320" result="effect4_innerShadow_1_1320"/>
<feColorMatrix in="SourceAlpha" type="matrix" values="0 0 0 0 0 0 0 0 0 0 0 0 0 0 0 0 0 0 127 0" result="hardAlpha"/>
<feOffset dx="0.497264" dy="0.497264"/>
<feGaussianBlur stdDeviation="0.497264"/>
<feComposite in2="hardAlpha" operator="arithmetic" k2="-1" k3="1"/>
<feColorMatrix type="matrix" values="0 0 0 0 1 0 0 0 0 1 0 0 0 0 1 0 0 0 1 0"/>
<feBlend mode="normal" in2="effect4_innerShadow_1_1320" result="effect5_innerShadow_1_1320"/>
</filter>
<filter id="filter2_f_1_1320" x="24.7062" y="26.7019" width="13.6685" height="13.0326" filterUnits="userSpaceOnUse" color-interpolation-filters="sRGB">
<feFlood flood-opacity="0" result="BackgroundImageFix"/>
<feBlend mode="normal" in="SourceGraphic" in2="BackgroundImageFix" result="shape"/>
<feGaussianBlur stdDeviation="0.994528" result="effect1_foregroundBlur_1_1320"/>
</filter>
<filter id="filter3_biii_1_1320" x="24.2009" y="25.3108" width="14.6791" height="14.0431" filterUnits="userSpaceOnUse" color-interpolation-filters="sRGB">
<feFlood flood-opacity="0" result="BackgroundImageFix"/>
<feGaussianBlur in="BackgroundImageFix" stdDeviation="1.24718"/>
<feComposite in2="SourceAlpha" operator="in" result="effect1_backgroundBlur_1_1320"/>
<feBlend mode="normal" in="SourceGraphic" in2="effect1_backgroundBlur_1_1320" result="shape"/>
<feColorMatrix in="SourceAlpha" type="matrix" values="0 0 0 0 0 0 0 0 0 0 0 0 0 0 0 0 0 0 127 0" result="hardAlpha"/>
<feOffset dy="0.623588"/>
<feGaussianBlur stdDeviation="1.24718"/>
<feComposite in2="hardAlpha" operator="arithmetic" k2="-1" k3="1"/>
<feColorMatrix type="matrix" values="0 0 0 0 1 0 0 0 0 1 0 0 0 0 1 0 0 0 0.3 0"/>
<feBlend mode="normal" in2="shape" result="effect2_innerShadow_1_1320"/>
<feColorMatrix in="SourceAlpha" type="matrix" values="0 0 0 0 0 0 0 0 0 0 0 0 0 0 0 0 0 0 127 0" result="hardAlpha"/>
<feOffset dy="-0.623588"/>
<feGaussianBlur stdDeviation="1.24718"/>
<feComposite in2="hardAlpha" operator="arithmetic" k2="-1" k3="1"/>
<feColorMatrix type="matrix" values="0 0 0 0 1 0 0 0 0 1 0 0 0 0 1 0 0 0 0.5 0"/>
<feBlend mode="normal" in2="effect2_innerShadow_1_1320" result="effect3_innerShadow_1_1320"/>
<feColorMatrix in="SourceAlpha" type="matrix" values="0 0 0 0 0 0 0 0 0 0 0 0 0 0 0 0 0 0 127 0" result="hardAlpha"/>
<feOffset dy="0.623588"/>
<feGaussianBlur stdDeviation="0.311794"/>
<feComposite in2="hardAlpha" operator="arithmetic" k2="-1" k3="1"/>
<feColorMatrix type="matrix" values="0 0 0 0 1 0 0 0 0 1 0 0 0 0 1 0 0 0 0.95 0"/>
<feBlend mode="normal" in2="effect3_innerShadow_1_1320" result="effect4_innerShadow_1_1320"/>
</filter>
<filter id="filter4_f_1_1320" x="27.5181" y="17.9272" width="10.9354" height="11.1532" filterUnits="userSpaceOnUse" color-interpolation-filters="sRGB">
<feFlood flood-opacity="0" result="BackgroundImageFix"/>
<feBlend mode="normal" in="SourceGraphic" in2="BackgroundImageFix" result="shape"/>
<feGaussianBlur stdDeviation="0.994528" result="effect1_foregroundBlur_1_1320"/>
</filter>
<filter id="filter5_biii_1_1320" x="27.0128" y="16.0931" width="11.946" height="12.1638" filterUnits="userSpaceOnUse" color-interpolation-filters="sRGB">
<feFlood flood-opacity="0" result="BackgroundImageFix"/>
<feGaussianBlur in="BackgroundImageFix" stdDeviation="1.24718"/>
<feComposite in2="SourceAlpha" operator="in" result="effect1_backgroundBlur_1_1320"/>
<feBlend mode="normal" in="SourceGraphic" in2="effect1_backgroundBlur_1_1320" result="shape"/>
<feColorMatrix in="SourceAlpha" type="matrix" values="0 0 0 0 0 0 0 0 0 0 0 0 0 0 0 0 0 0 127 0" result="hardAlpha"/>
<feOffset dy="0.623588"/>
<feGaussianBlur stdDeviation="1.24718"/>
<feComposite in2="hardAlpha" operator="arithmetic" k2="-1" k3="1"/>
<feColorMatrix type="matrix" values="0 0 0 0 1 0 0 0 0 1 0 0 0 0 1 0 0 0 0.3 0"/>
<feBlend mode="normal" in2="shape" result="effect2_innerShadow_1_1320"/>
<feColorMatrix in="SourceAlpha" type="matrix" values="0 0 0 0 0 0 0 0 0 0 0 0 0 0 0 0 0 0 127 0" result="hardAlpha"/>
<feOffset dy="-0.623588"/>
<feGaussianBlur stdDeviation="1.24718"/>
<feComposite in2="hardAlpha" operator="arithmetic" k2="-1" k3="1"/>
<feColorMatrix type="matrix" values="0 0 0 0 1 0 0 0 0 1 0 0 0 0 1 0 0 0 0.5 0"/>
<feBlend mode="normal" in2="effect2_innerShadow_1_1320" result="effect3_innerShadow_1_1320"/>
<feColorMatrix in="SourceAlpha" type="matrix" values="0 0 0 0 0 0 0 0 0 0 0 0 0 0 0 0 0 0 127 0" result="hardAlpha"/>
<feOffset dy="0.623588"/>
<feGaussianBlur stdDeviation="0.311794"/>
<feComposite in2="hardAlpha" operator="arithmetic" k2="-1" k3="1"/>
<feColorMatrix type="matrix" values="0 0 0 0 1 0 0 0 0 1 0 0 0 0 1 0 0 0 0.95 0"/>
<feBlend mode="normal" in2="effect3_innerShadow_1_1320" result="effect4_innerShadow_1_1320"/>
</filter>
<filter id="filter6_f_1_1320" x="33.6554" y="9.20695" width="14.9179" height="16.9069" filterUnits="userSpaceOnUse" color-interpolation-filters="sRGB">
<feFlood flood-opacity="0" result="BackgroundImageFix"/>
<feBlend mode="normal" in="SourceGraphic" in2="BackgroundImageFix" result="shape"/>
<feGaussianBlur stdDeviation="1.98905" result="effect1_foregroundBlur_1_1320"/>
</filter>
<filter id="filter7_f_1_1320" x="30.7337" y="11.2488" width="14.9894" height="17.7513" filterUnits="userSpaceOnUse" color-interpolation-filters="sRGB">
<feFlood flood-opacity="0" result="BackgroundImageFix"/>
<feBlend mode="normal" in="SourceGraphic" in2="BackgroundImageFix" result="shape"/>
<feGaussianBlur stdDeviation="1.49179" result="effect1_foregroundBlur_1_1320"/>
</filter>
<filter id="filter8_f_1_1320" x="38.6238" y="14.3668" width="5.21766" height="5.47988" filterUnits="userSpaceOnUse" color-interpolation-filters="sRGB">
<feFlood flood-opacity="0" result="BackgroundImageFix"/>
<feBlend mode="normal" in="SourceGraphic" in2="BackgroundImageFix" result="shape"/>
<feGaussianBlur stdDeviation="0.248632" result="effect1_foregroundBlur_1_1320"/>
</filter>
<linearGradient id="paint0_linear_1_1320" x1="45.9195" y1="14.2976" x2="33.6797" y2="21.5907" gradientUnits="userSpaceOnUse">
<stop offset="0.0941878" stop-color="#FFE5DC"/>
<stop offset="0.230705" stop-color="#FFFFE7" stop-opacity="0"/>
</linearGradient>
<linearGradient id="paint1_linear_1_1320" x1="42.9352" y1="17.9408" x2="33.2002" y2="16.2991" gradientUnits="userSpaceOnUse">
<stop stop-color="#FFFFE6"/>
<stop offset="0.360807" stop-color="#D5FFFF"/>
<stop offset="0.977083" stop-color="#D5FFFF" stop-opacity="0"/>
</linearGradient>
<linearGradient id="paint2_linear_1_1320" x1="43.3025" y1="19.5039" x2="33.7755" y2="25.2363" gradientUnits="userSpaceOnUse">
<stop offset="0.0153056" stop-color="#D4FFE7"/>
<stop offset="0.312156" stop-color="#D5FFFF" stop-opacity="0"/>
</linearGradient>
</defs>
</svg>
