<svg width="58" height="57" viewBox="0 0 58 57" fill="none" xmlns="http://www.w3.org/2000/svg">
<path d="M24.8913 31.1813C24.7956 31.1904 24.6979 31.1776 24.6073 31.1414L21.6894 29.9751C20.8613 29.6437 20.2005 29.2465 19.6679 28.7614C18.5023 27.7005 17.7738 26.2662 17.618 24.7218L17.1031 19.6387C17.0436 19.0521 17.3756 18.4892 17.9277 18.2369L22.8694 15.9878C23.1626 15.8517 23.5008 15.8183 23.8195 15.8929L29.1099 17.1159C29.702 17.2519 30.1398 17.7384 30.1984 18.3243L30.7136 23.4111C30.87 24.9533 30.4447 26.5025 29.5167 27.7738C29.0909 28.3569 28.5225 28.8769 27.7799 29.3641L25.1608 31.0854C25.0796 31.1393 24.9869 31.1716 24.8913 31.1813Z" fill="#F84031"/>
<path d="M25.327 30.9617C25.2266 31.0196 25.1129 31.0546 24.9953 31.0602L21.2059 31.2428C20.1303 31.2941 19.2051 31.1894 18.3764 30.924C16.563 30.3439 15.0413 29.1351 14.0926 27.5183L10.968 22.1983C10.6073 21.5843 10.6882 20.8002 11.1671 20.2466L15.4574 15.3018C15.7106 15.0056 16.065 14.7993 16.4522 14.7215L22.8737 13.4122C23.592 13.2647 24.3174 13.5792 24.6768 14.1928L27.8037 19.5168C28.7518 21.1307 29.0652 23.0439 28.687 24.9042C28.5133 25.7575 28.1515 26.613 27.5819 27.5198L25.5745 30.7214C25.5125 30.8212 25.427 30.9031 25.327 30.9617Z" fill="#2329D6"/>
<g filter="url(#filter0_f_1_1426)">
<path d="M42.3079 42.2085C39.8176 43.4925 36.8251 42.4814 35.6239 39.9501L32.0527 32.424C30.8516 29.8926 31.8966 26.7996 34.3869 25.5156C36.8772 24.2315 39.8697 25.2427 41.0709 27.774L44.6421 35.3001C45.8433 37.8314 44.7982 40.9244 42.3079 42.2085Z" fill="#FFE4DB"/>
</g>
<g filter="url(#filter1_f_1_1426)">
<path d="M44.1119 39.9824C43.0808 40.5141 41.8417 40.0954 41.3443 39.0472L35.2244 26.15C34.7271 25.1019 35.1598 23.8212 36.191 23.2895C37.2221 22.7578 38.4612 23.1765 38.9586 24.2246L45.0784 37.1218C45.5758 38.17 45.1431 39.4507 44.1119 39.9824Z" fill="#FFFFE7"/>
</g>
<g filter="url(#filter2_biiii_1_1426)">
<path d="M29.1621 43.2029C28.9811 43.203 28.8002 43.1617 28.6368 43.0775L23.3725 40.3632C21.8787 39.5922 20.71 38.7266 19.7972 37.7179C17.7993 35.5119 16.6866 32.6792 16.667 29.7399L16.5989 20.0658C16.5908 18.9493 17.3125 17.9466 18.3921 17.5685L28.0528 14.2011C28.6264 13.9963 29.2664 13.9931 29.8506 14.19L39.5525 17.4302C40.6385 17.7912 41.3733 18.7857 41.3799 19.9008L41.448 29.5821C41.4691 32.5171 40.3985 35.3627 38.4344 37.5956C37.5332 38.6198 36.376 39.4998 34.8979 40.287L29.6843 43.0696C29.5225 43.1569 29.3431 43.2014 29.1621 43.2029Z" fill="white" fill-opacity="0.2"/>
</g>
<g filter="url(#filter3_f_1_1426)">
<path d="M45.6472 33.5057C45.6472 31.5833 47.2056 30.0249 49.128 30.0249C51.0504 30.0249 52.6089 31.5833 52.6089 33.5057V35.4948C52.6089 37.4172 51.0504 38.9756 49.128 38.9756C47.2056 38.9756 45.6472 37.4172 45.6472 35.4948V33.5057Z" fill="#FFFFE7"/>
</g>
<path d="M46.9593 32.474C47.6097 30.6371 49.631 29.6608 51.4741 30.2934C53.3173 30.926 54.2842 32.928 53.6338 34.7649L52.7175 37.353C52.5342 37.8707 51.9645 38.1459 51.445 37.9676L46.6518 36.3224C46.1323 36.1441 45.8597 35.5798 46.043 35.0621L46.9593 32.474Z" fill="url(#paint0_linear_1_1426)"/>
<g filter="url(#filter4_f_1_1426)">
<path d="M42.7845 34.1552C43.3255 31.9928 45.5208 30.6634 47.6878 31.186C49.8547 31.7086 51.1729 33.8852 50.6319 36.0477L49.6997 39.7737C49.1587 41.9361 46.9634 43.2655 44.7965 42.7429C42.6295 42.2203 41.3114 40.0436 41.8524 37.8812L42.7845 34.1552Z" fill="url(#paint1_linear_1_1426)"/>
</g>
<g style="mix-blend-mode:luminosity">
<path d="M43.5347 33.4384C44.556 31.4638 46.9968 30.6672 48.9864 31.6592C50.9759 32.6511 51.7608 35.056 50.7395 37.0307L48.9499 40.4905C47.9286 42.4652 45.4878 43.2618 43.4982 42.2698C41.5087 41.2778 40.7238 38.8729 41.7451 36.8983L43.5347 33.4384Z" fill="url(#paint2_linear_1_1426)"/>
</g>
<g filter="url(#filter5_f_1_1426)">
<path d="M47.6251 32.0316C48.2089 31.5375 49.0828 31.6103 49.5769 32.1941L51.0304 33.9117C51.524 34.495 51.4513 35.368 50.868 35.8617C50.4097 36.2495 49.7536 36.2975 49.2437 35.9805L47.8517 35.1151L47.2377 33.6126C47.0108 33.0573 47.1672 32.4191 47.6251 32.0316Z" fill="white"/>
</g>
<g filter="url(#filter6_f_1_1426)">
<path d="M28.0333 33.749C27.7509 33.7506 27.4683 33.6493 27.2504 33.4407L24.4475 30.7549C24.0147 30.3377 24.0098 29.6601 24.4377 29.2395C24.8655 28.8175 25.5643 28.8127 25.9986 29.2285L28.0154 31.16L32.9334 26.3161C33.3628 25.8941 34.0616 25.8893 34.4944 26.305C34.9287 26.7222 34.9335 27.4013 34.5057 27.8204L28.8114 33.4297C28.5967 33.6414 28.3158 33.7474 28.0333 33.749Z" fill="#A9CFFF"/>
</g>
<g filter="url(#filter7_biiii_1_1426)">
<path d="M28.0333 32.0087C27.7509 32.0104 27.4683 31.909 27.2504 31.7005L24.4475 29.0146C24.0147 28.5975 24.0098 27.9198 24.4377 27.4993C24.8655 27.0772 25.5643 27.0725 25.9986 27.4882L28.0154 29.4197L32.9334 24.5758C33.3628 24.1538 34.0616 24.1491 34.4944 24.5648C34.9287 24.982 34.9335 25.661 34.5057 26.0802L28.8114 31.6894C28.5967 31.9012 28.3158 32.0071 28.0333 32.0087Z" fill="white" fill-opacity="0.2"/>
</g>
<g filter="url(#filter8_biii_1_1426)">
<path d="M44.8683 31.1364C44.8683 38.0022 36.4148 46.0543 32.4367 46.0543C28.4586 46.0543 20.0051 38.0022 20.0051 31.1364C20.0051 24.2706 20.9996 18.7048 32.4367 18.7048C43.1784 18.7048 44.8683 24.2706 44.8683 31.1364Z" stroke="white" stroke-opacity="0.2" stroke-width="0.870212" stroke-linecap="round" stroke-linejoin="round" stroke-dasharray="1.74 1.74"/>
</g>
<rect x="19.0106" y="39.0928" width="1.98905" height="1.98905" fill="#ED392D"/>
<path d="M42.1787 16.8465H41.5891V15.2888C41.5891 14.3541 40.8111 13.5938 39.8548 13.5938H39.4906C38.5343 13.5938 37.7564 14.3541 37.7564 15.2888V16.8465H37.1841C36.6103 16.8465 36.1435 17.3121 36.1435 17.8845V18.9226C36.1435 20.8688 37.7306 22.4522 39.6814 22.4522C40.2498 22.4522 40.8151 22.3144 41.316 22.0536C41.4858 21.9652 41.5516 21.7562 41.463 21.5868C41.3744 21.4173 41.1649 21.3516 40.995 21.4401C40.5871 21.6524 40.1451 21.7601 39.6814 21.7601C38.1131 21.7601 36.8372 20.4872 36.8372 18.9226V17.8845C36.8372 17.6938 36.9928 17.5385 37.1841 17.5385H42.1787C42.37 17.5385 42.5256 17.6938 42.5256 17.8845V18.9226C42.5256 19.4278 42.391 19.9236 42.1363 20.3565C42.0393 20.5214 42.0947 20.7334 42.2599 20.8301C42.4251 20.9269 42.6376 20.8716 42.7346 20.7068C43.0517 20.1678 43.2193 19.5508 43.2193 18.9226V17.8845C43.2193 17.3121 42.7525 16.8465 42.1787 16.8465ZM38.4501 15.2888C38.4501 14.7358 38.9168 14.2858 39.4906 14.2858H39.8548C40.4286 14.2858 40.8954 14.7358 40.8954 15.2888V16.8465H38.4501V15.2888ZM39.3339 20.3414V19.5818C39.157 19.4678 39.0397 19.2695 39.0397 19.0438C39.0397 18.6902 39.327 18.4036 39.6814 18.4036C40.0358 18.4036 40.3231 18.6902 40.3231 19.0438C40.3231 19.27 40.2053 19.4688 40.0276 19.5826V20.3414C40.0276 20.5325 39.8723 20.6874 39.6808 20.6874C39.4892 20.6874 39.3339 20.5325 39.3339 20.3414Z" fill="#2329D6"/>
<circle cx="44.6496" cy="43.8465" r="5.01902" transform="rotate(7.45291 44.6496 43.8465)" stroke="#050121" stroke-width="1.98906" stroke-dasharray="1.3 1.3"/>
<defs>
<filter id="filter0_f_1_1426" x="26.5818" y="19.9859" width="23.5312" height="27.7524" filterUnits="userSpaceOnUse" color-interpolation-filters="sRGB">
<feFlood flood-opacity="0" result="BackgroundImageFix"/>
<feBlend mode="normal" in="SourceGraphic" in2="BackgroundImageFix" result="shape"/>
<feGaussianBlur stdDeviation="2.48632" result="effect1_foregroundBlur_1_1426"/>
</filter>
<filter id="filter1_f_1_1426" x="30.0455" y="18.0862" width="20.2119" height="27.0996" filterUnits="userSpaceOnUse" color-interpolation-filters="sRGB">
<feFlood flood-opacity="0" result="BackgroundImageFix"/>
<feBlend mode="normal" in="SourceGraphic" in2="BackgroundImageFix" result="shape"/>
<feGaussianBlur stdDeviation="2.48632" result="effect1_foregroundBlur_1_1426"/>
</filter>
<filter id="filter2_biiii_1_1426" x="14.6097" y="12.0559" width="28.8277" height="33.1361" filterUnits="userSpaceOnUse" color-interpolation-filters="sRGB">
<feFlood flood-opacity="0" result="BackgroundImageFix"/>
<feGaussianBlur in="BackgroundImageFix" stdDeviation="0.994528"/>
<feComposite in2="SourceAlpha" operator="in" result="effect1_backgroundBlur_1_1426"/>
<feBlend mode="normal" in="SourceGraphic" in2="effect1_backgroundBlur_1_1426" result="shape"/>
<feColorMatrix in="SourceAlpha" type="matrix" values="0 0 0 0 0 0 0 0 0 0 0 0 0 0 0 0 0 0 127 0" result="hardAlpha"/>
<feOffset dy="0.497264"/>
<feGaussianBlur stdDeviation="0.994528"/>
<feComposite in2="hardAlpha" operator="arithmetic" k2="-1" k3="1"/>
<feColorMatrix type="matrix" values="0 0 0 0 1 0 0 0 0 1 0 0 0 0 1 0 0 0 0.3 0"/>
<feBlend mode="normal" in2="shape" result="effect2_innerShadow_1_1426"/>
<feColorMatrix in="SourceAlpha" type="matrix" values="0 0 0 0 0 0 0 0 0 0 0 0 0 0 0 0 0 0 127 0" result="hardAlpha"/>
<feOffset dy="-0.497264"/>
<feGaussianBlur stdDeviation="0.994528"/>
<feComposite in2="hardAlpha" operator="arithmetic" k2="-1" k3="1"/>
<feColorMatrix type="matrix" values="0 0 0 0 1 0 0 0 0 1 0 0 0 0 1 0 0 0 0.5 0"/>
<feBlend mode="normal" in2="effect2_innerShadow_1_1426" result="effect3_innerShadow_1_1426"/>
<feColorMatrix in="SourceAlpha" type="matrix" values="0 0 0 0 0 0 0 0 0 0 0 0 0 0 0 0 0 0 127 0" result="hardAlpha"/>
<feOffset dy="0.497264"/>
<feGaussianBlur stdDeviation="10.9398"/>
<feComposite in2="hardAlpha" operator="arithmetic" k2="-1" k3="1"/>
<feColorMatrix type="matrix" values="0 0 0 0 1 0 0 0 0 1 0 0 0 0 1 0 0 0 0.45 0"/>
<feBlend mode="normal" in2="effect3_innerShadow_1_1426" result="effect4_innerShadow_1_1426"/>
<feColorMatrix in="SourceAlpha" type="matrix" values="0 0 0 0 0 0 0 0 0 0 0 0 0 0 0 0 0 0 127 0" result="hardAlpha"/>
<feOffset dx="0.497264" dy="0.497264"/>
<feGaussianBlur stdDeviation="0.497264"/>
<feComposite in2="hardAlpha" operator="arithmetic" k2="-1" k3="1"/>
<feColorMatrix type="matrix" values="0 0 0 0 1 0 0 0 0 1 0 0 0 0 1 0 0 0 1 0"/>
<feBlend mode="normal" in2="effect4_innerShadow_1_1426" result="effect5_innerShadow_1_1426"/>
</filter>
<filter id="filter3_f_1_1426" x="41.6691" y="26.0468" width="14.9179" height="16.9069" filterUnits="userSpaceOnUse" color-interpolation-filters="sRGB">
<feFlood flood-opacity="0" result="BackgroundImageFix"/>
<feBlend mode="normal" in="SourceGraphic" in2="BackgroundImageFix" result="shape"/>
<feGaussianBlur stdDeviation="1.98905" result="effect1_foregroundBlur_1_1426"/>
</filter>
<filter id="filter4_f_1_1426" x="38.7474" y="28.0887" width="14.9894" height="17.7513" filterUnits="userSpaceOnUse" color-interpolation-filters="sRGB">
<feFlood flood-opacity="0" result="BackgroundImageFix"/>
<feBlend mode="normal" in="SourceGraphic" in2="BackgroundImageFix" result="shape"/>
<feGaussianBlur stdDeviation="1.49179" result="effect1_foregroundBlur_1_1426"/>
</filter>
<filter id="filter5_f_1_1426" x="46.6375" y="31.2066" width="5.21765" height="5.47988" filterUnits="userSpaceOnUse" color-interpolation-filters="sRGB">
<feFlood flood-opacity="0" result="BackgroundImageFix"/>
<feBlend mode="normal" in="SourceGraphic" in2="BackgroundImageFix" result="shape"/>
<feGaussianBlur stdDeviation="0.248632" result="effect1_foregroundBlur_1_1426"/>
</filter>
<filter id="filter6_f_1_1426" x="22.1307" y="24.0073" width="14.6817" height="11.7308" filterUnits="userSpaceOnUse" color-interpolation-filters="sRGB">
<feFlood flood-opacity="0" result="BackgroundImageFix"/>
<feBlend mode="normal" in="SourceGraphic" in2="BackgroundImageFix" result="shape"/>
<feGaussianBlur stdDeviation="0.994528" result="effect1_foregroundBlur_1_1426"/>
</filter>
<filter id="filter7_biiii_1_1426" x="22.1307" y="22.267" width="14.6817" height="11.7308" filterUnits="userSpaceOnUse" color-interpolation-filters="sRGB">
<feFlood flood-opacity="0" result="BackgroundImageFix"/>
<feGaussianBlur in="BackgroundImageFix" stdDeviation="0.994528"/>
<feComposite in2="SourceAlpha" operator="in" result="effect1_backgroundBlur_1_1426"/>
<feBlend mode="normal" in="SourceGraphic" in2="effect1_backgroundBlur_1_1426" result="shape"/>
<feColorMatrix in="SourceAlpha" type="matrix" values="0 0 0 0 0 0 0 0 0 0 0 0 0 0 0 0 0 0 127 0" result="hardAlpha"/>
<feOffset dy="0.497264"/>
<feGaussianBlur stdDeviation="0.994528"/>
<feComposite in2="hardAlpha" operator="arithmetic" k2="-1" k3="1"/>
<feColorMatrix type="matrix" values="0 0 0 0 1 0 0 0 0 1 0 0 0 0 1 0 0 0 0.3 0"/>
<feBlend mode="normal" in2="shape" result="effect2_innerShadow_1_1426"/>
<feColorMatrix in="SourceAlpha" type="matrix" values="0 0 0 0 0 0 0 0 0 0 0 0 0 0 0 0 0 0 127 0" result="hardAlpha"/>
<feOffset dy="-0.497264"/>
<feGaussianBlur stdDeviation="0.994528"/>
<feComposite in2="hardAlpha" operator="arithmetic" k2="-1" k3="1"/>
<feColorMatrix type="matrix" values="0 0 0 0 1 0 0 0 0 1 0 0 0 0 1 0 0 0 0.5 0"/>
<feBlend mode="normal" in2="effect2_innerShadow_1_1426" result="effect3_innerShadow_1_1426"/>
<feColorMatrix in="SourceAlpha" type="matrix" values="0 0 0 0 0 0 0 0 0 0 0 0 0 0 0 0 0 0 127 0" result="hardAlpha"/>
<feOffset dy="0.497264"/>
<feGaussianBlur stdDeviation="10.9398"/>
<feComposite in2="hardAlpha" operator="arithmetic" k2="-1" k3="1"/>
<feColorMatrix type="matrix" values="0 0 0 0 1 0 0 0 0 1 0 0 0 0 1 0 0 0 0.45 0"/>
<feBlend mode="normal" in2="effect3_innerShadow_1_1426" result="effect4_innerShadow_1_1426"/>
<feColorMatrix in="SourceAlpha" type="matrix" values="0 0 0 0 0 0 0 0 0 0 0 0 0 0 0 0 0 0 127 0" result="hardAlpha"/>
<feOffset dx="0.497264" dy="0.497264"/>
<feGaussianBlur stdDeviation="0.497264"/>
<feComposite in2="hardAlpha" operator="arithmetic" k2="-1" k3="1"/>
<feColorMatrix type="matrix" values="0 0 0 0 1 0 0 0 0 1 0 0 0 0 1 0 0 0 1 0"/>
<feBlend mode="normal" in2="effect4_innerShadow_1_1426" result="effect5_innerShadow_1_1426"/>
</filter>
<filter id="filter8_biii_1_1426" x="17.581" y="16.2807" width="29.7115" height="32.1978" filterUnits="userSpaceOnUse" color-interpolation-filters="sRGB">
<feFlood flood-opacity="0" result="BackgroundImageFix"/>
<feGaussianBlur in="BackgroundImageFix" stdDeviation="0.994528"/>
<feComposite in2="SourceAlpha" operator="in" result="effect1_backgroundBlur_1_1426"/>
<feBlend mode="normal" in="SourceGraphic" in2="effect1_backgroundBlur_1_1426" result="shape"/>
<feColorMatrix in="SourceAlpha" type="matrix" values="0 0 0 0 0 0 0 0 0 0 0 0 0 0 0 0 0 0 127 0" result="hardAlpha"/>
<feOffset dy="0.497264"/>
<feGaussianBlur stdDeviation="0.994528"/>
<feComposite in2="hardAlpha" operator="arithmetic" k2="-1" k3="1"/>
<feColorMatrix type="matrix" values="0 0 0 0 1 0 0 0 0 1 0 0 0 0 1 0 0 0 0.3 0"/>
<feBlend mode="normal" in2="shape" result="effect2_innerShadow_1_1426"/>
<feColorMatrix in="SourceAlpha" type="matrix" values="0 0 0 0 0 0 0 0 0 0 0 0 0 0 0 0 0 0 127 0" result="hardAlpha"/>
<feOffset dy="-0.497264"/>
<feGaussianBlur stdDeviation="0.994528"/>
<feComposite in2="hardAlpha" operator="arithmetic" k2="-1" k3="1"/>
<feColorMatrix type="matrix" values="0 0 0 0 1 0 0 0 0 1 0 0 0 0 1 0 0 0 0.5 0"/>
<feBlend mode="normal" in2="effect2_innerShadow_1_1426" result="effect3_innerShadow_1_1426"/>
<feColorMatrix in="SourceAlpha" type="matrix" values="0 0 0 0 0 0 0 0 0 0 0 0 0 0 0 0 0 0 127 0" result="hardAlpha"/>
<feOffset dy="0.497264"/>
<feGaussianBlur stdDeviation="0.248632"/>
<feComposite in2="hardAlpha" operator="arithmetic" k2="-1" k3="1"/>
<feColorMatrix type="matrix" values="0 0 0 0 1 0 0 0 0 1 0 0 0 0 1 0 0 0 0.95 0"/>
<feBlend mode="normal" in2="effect3_innerShadow_1_1426" result="effect4_innerShadow_1_1426"/>
</filter>
<linearGradient id="paint0_linear_1_1426" x1="53.9332" y1="31.1374" x2="41.6934" y2="38.4305" gradientUnits="userSpaceOnUse">
<stop offset="0.0941878" stop-color="#FFE5DC"/>
<stop offset="0.230705" stop-color="#FFFFE7" stop-opacity="0"/>
</linearGradient>
<linearGradient id="paint1_linear_1_1426" x1="50.9488" y1="34.7807" x2="41.2139" y2="33.1389" gradientUnits="userSpaceOnUse">
<stop stop-color="#FFFFE6"/>
<stop offset="0.360807" stop-color="#D5FFFF"/>
<stop offset="0.977083" stop-color="#D5FFFF" stop-opacity="0"/>
</linearGradient>
<linearGradient id="paint2_linear_1_1426" x1="51.3162" y1="36.3437" x2="41.7891" y2="42.0761" gradientUnits="userSpaceOnUse">
<stop offset="0.0153056" stop-color="#D4FFE7"/>
<stop offset="0.312156" stop-color="#D5FFFF" stop-opacity="0"/>
</linearGradient>
</defs>
</svg>
