<svg width="57" height="58" viewBox="0 0 57 58" fill="none" xmlns="http://www.w3.org/2000/svg">
<g clip-path="url(#clip0_1_1224)">
<rect x="23.3714" y="21.3203" width="5.94173" height="5.94173" rx="2.97087" fill="#ED392D"/>
<g filter="url(#filter0_bii_1_1224)">
<path d="M51.1848 12.9397L37.3067 25.2766C36.2646 23.0144 34.5516 21.1173 32.3939 19.836L31.2948 19.1832C30.2514 18.5636 30.5273 17.0015 31.7216 16.7667L51.1848 12.9397Z" fill="#A9CFFF"/>
</g>
<g filter="url(#filter1_bi_1_1224)">
<path d="M51.297 13.0505L38.2666 26.8554C40.3383 27.4687 42.1373 28.7582 43.3689 30.5126L45.0581 32.9187C45.7915 33.9634 47.4386 33.6147 47.6731 32.365L51.297 13.0505Z" fill="#2329D6"/>
</g>
<g filter="url(#filter2_biiii_1_1224)">
<rect x="19.8905" y="20.3259" width="23.8687" height="23.8687" rx="5.96717" fill="white" fill-opacity="0.2"/>
</g>
<g filter="url(#filter3_f_1_1224)">
<circle cx="38.538" cy="26.5417" r="1.24316" fill="#A9CFFF"/>
</g>
<g filter="url(#filter4_biii_1_1224)">
<circle cx="38.538" cy="25.5471" r="1.24316" fill="white" fill-opacity="0.1"/>
</g>
<g filter="url(#filter5_f_1_1224)">
<circle cx="31.8248" cy="34.7465" r="5.96716" fill="#A9CFFF"/>
</g>
<g filter="url(#filter6_biii_1_1224)">
<circle cx="31.8248" cy="32.2601" r="4.55947" stroke="white" stroke-opacity="0.2" stroke-width="2.81538"/>
</g>
<g filter="url(#filter7_biii_1_1224)">
<path d="M16.3183 33.3398C16.2306 32.6663 16.5668 32.0083 17.164 31.6847C17.7612 31.3611 18.496 31.4386 19.0124 31.8798L21.0917 33.656C22.0218 34.4505 21.8655 35.9308 20.7901 36.5135L19.2298 37.3591C18.1544 37.9419 16.8289 37.2646 16.6711 36.0517L16.3183 33.3398Z" fill="#E9E74C"/>
</g>
<g filter="url(#filter8_biii_1_1224)">
<path d="M14.921 32.6956C14.7804 31.6147 15.3199 30.5588 16.2782 30.0395C17.2366 29.5202 18.4158 29.6446 19.2446 30.3526L23.7485 34.2C24.6785 34.9944 24.5223 36.4747 23.4469 37.0575L18.244 39.8771C17.1686 40.4599 15.8431 39.7826 15.6853 38.5696L14.921 32.6956Z" fill="white" fill-opacity="0.2"/>
</g>
<g filter="url(#filter9_biii_1_1224)">
<path d="M21.2603 31.6079C21.7655 31.1332 22.5961 31.5562 22.5396 32.2471C22.5149 32.5497 22.5004 32.8153 22.5059 32.9821C22.5276 33.6305 23.0861 34.1986 22.628 34.6808C22.1643 35.169 21.6699 34.8039 20.9049 34.6225C20.7126 34.577 20.4423 34.5492 20.1453 34.5331C19.46 34.4962 19.1014 33.6372 19.6014 33.1672L21.2603 31.6079Z" fill="white" fill-opacity="0.2"/>
</g>
<g filter="url(#filter10_biii_1_1224)">
<circle cx="16.8687" cy="33.038" r="0.536267" transform="rotate(-28.4541 16.8687 33.038)" fill="white" fill-opacity="0.2"/>
</g>
<g filter="url(#filter11_biii_1_1224)">
<circle cx="18.2832" cy="32.2714" r="0.536267" transform="rotate(-28.4541 18.2832 32.2714)" fill="white" fill-opacity="0.2"/>
</g>
<g filter="url(#filter12_biii_1_1224)">
<path d="M14.6347 35.2318C13.9651 35.4112 13.8873 36.3401 14.5044 36.6559C14.7746 36.7942 15.0081 36.9217 15.147 37.0143C15.6868 37.3741 15.8757 38.148 16.5269 38.0126C17.1861 37.8755 17.136 37.2629 17.3846 36.517C17.4471 36.3295 17.5659 36.0851 17.7086 35.8241C18.038 35.2221 17.4967 34.4649 16.8338 34.6425L14.6347 35.2318Z" fill="white" fill-opacity="0.2"/>
</g>
<g filter="url(#filter13_f_1_1224)">
<path d="M39.6154 35.9744C38.3338 34.9148 38.1537 33.0169 39.2133 31.7353L42.4078 27.8711C43.4674 26.5895 45.3653 26.4094 46.6469 27.469C47.9286 28.5285 48.1086 30.4264 47.0491 31.7081L43.8546 35.5723C42.795 36.8539 40.8971 37.0339 39.6154 35.9744Z" fill="#FFE4DB"/>
</g>
<g filter="url(#filter14_f_1_1224)">
<path d="M41.2367 36.4218C40.706 35.9831 40.6315 35.1972 41.0702 34.6665L46.5129 28.0829C46.9517 27.5522 47.7375 27.4777 48.2682 27.9164C48.7989 28.3551 48.8735 29.141 48.4347 29.6717L42.992 36.2553C42.5533 36.786 41.7674 36.8606 41.2367 36.4218Z" fill="#FFFFE7"/>
</g>
<g filter="url(#filter15_f_1_1224)">
<path d="M43.5436 33.6349C43.5436 31.7125 45.1021 30.1541 47.0245 30.1541C48.9469 30.1541 50.5053 31.7125 50.5053 33.6349V35.624C50.5053 37.5464 48.9469 39.1048 47.0245 39.1048C45.1021 39.1048 43.5436 37.5464 43.5436 35.624V33.6349Z" fill="#FFFFE7"/>
</g>
<path d="M44.8558 32.6031C45.5062 30.7662 47.5275 29.7899 49.3706 30.4225C51.2137 31.0551 52.1807 33.0571 51.5303 34.894L50.614 37.4821C50.4307 37.9999 49.861 38.2751 49.3414 38.0967L44.5483 36.4516C44.0288 36.2733 43.7562 35.709 43.9395 35.1912L44.8558 32.6031Z" fill="url(#paint0_linear_1_1224)"/>
<g filter="url(#filter16_f_1_1224)">
<path d="M40.681 34.2844C41.222 32.1219 43.4173 30.7925 45.5842 31.3151C47.7512 31.8377 49.0693 34.0144 48.5283 36.1768L47.5962 39.9028C47.0552 42.0653 44.8599 43.3946 42.6929 42.872C40.526 42.3494 39.2078 40.1728 39.7489 38.0103L40.681 34.2844Z" fill="url(#paint1_linear_1_1224)"/>
</g>
<g style="mix-blend-mode:luminosity">
<path d="M41.4312 33.5676C42.4525 31.5929 44.8933 30.7963 46.8829 31.7883C48.8724 32.7803 49.6573 35.1852 48.636 37.1598L46.8464 40.6197C45.8251 42.5943 43.3843 43.3909 41.3947 42.399C39.4051 41.407 38.6203 39.0021 39.6416 37.0274L41.4312 33.5676Z" fill="url(#paint2_linear_1_1224)"/>
</g>
<g filter="url(#filter17_f_1_1224)">
<path d="M45.5216 32.1607C46.1054 31.6667 46.9793 31.7394 47.4734 32.3233L48.9269 34.0409C49.4205 34.6242 49.3478 35.4972 48.7645 35.9908C48.3062 36.3787 47.6501 36.4267 47.1402 36.1097L45.7482 35.2442L45.1342 33.7418C44.9073 33.1865 45.0637 32.5482 45.5216 32.1607Z" fill="white"/>
</g>
<circle cx="23.787" cy="21.7361" r="3.81112" transform="rotate(7.45291 23.787 21.7361)" stroke="#050121" stroke-width="1.98906" stroke-dasharray="1.3 1.3"/>
<path d="M41.4038 38.3874C41.2624 38.3874 41.1209 38.3444 40.9966 38.258L39.1363 36.9653C39.0961 36.9373 39.042 36.9373 39.0017 36.9653L37.1414 38.258C36.8889 38.4335 36.5649 38.4303 36.3159 38.25C36.0667 38.0694 35.9633 37.7627 36.0524 37.4686L36.7097 35.2987C36.7238 35.2524 36.7074 35.2015 36.669 35.172L34.9077 33.8159C34.6626 33.6272 34.5691 33.3155 34.6694 33.0219C34.7695 32.7291 35.0336 32.5399 35.3423 32.5399H37.5407C37.5929 32.5399 37.6366 32.5106 37.6521 32.4652L38.3946 30.2884C38.4946 29.9957 38.7593 29.8066 39.069 29.8066C39.3787 29.8066 39.6434 29.9957 39.7434 30.2883L40.4859 32.4652C40.5013 32.5106 40.5451 32.5399 40.5973 32.5399H42.7967C43.1054 32.5399 43.3694 32.7291 43.4694 33.0218C43.5698 33.3154 43.4762 33.6269 43.2311 33.8155L41.469 35.172C41.4306 35.2016 41.4143 35.2525 41.4283 35.2987L41.486 35.4893C41.5414 35.6722 41.4377 35.8653 41.2543 35.9206C41.0711 35.9758 40.8775 35.8724 40.8221 35.6895L40.7643 35.4989C40.6676 35.1795 40.7805 34.828 41.0453 34.6241L42.8074 33.2677C42.8153 33.2616 42.8152 33.2601 42.8149 33.2544C42.8142 33.2434 42.8079 33.2343 42.8054 33.2328C42.8054 33.2328 42.803 33.2319 42.7967 33.2319H40.5973C40.2489 33.2319 39.9402 33.0134 39.8293 32.6882L39.0868 30.5113C39.0837 30.5024 39.0824 30.4986 39.069 30.4986C39.0556 30.4986 39.0543 30.5024 39.0512 30.5115L38.3088 32.6881C38.1978 33.0134 37.8892 33.2319 37.5407 33.2319H35.3423C35.3359 33.2319 35.3336 33.2328 35.3336 33.2328C35.3311 33.2343 35.3248 33.2432 35.324 33.2543C35.3236 33.2603 35.3235 33.2619 35.3315 33.2681L37.0928 34.6241C37.3576 34.828 37.4704 35.1795 37.3737 35.4989L36.7163 37.6687C36.7136 37.6778 36.7123 37.6819 36.7234 37.69C36.7341 37.6977 36.7373 37.6955 36.745 37.6902L38.6052 36.3975C38.8827 36.2047 39.2554 36.2047 39.5327 36.3975L41.393 37.6902C41.4007 37.6955 41.4038 37.6978 41.4145 37.69C41.4257 37.6819 41.4244 37.6778 41.4217 37.6687L41.3251 37.3502C41.2697 37.1673 41.3734 36.9742 41.5568 36.9189C41.7401 36.8637 41.9337 36.9671 41.9891 37.15L42.0856 37.4686C42.1747 37.7627 42.0713 38.0694 41.822 38.25C41.6956 38.3415 41.5498 38.3874 41.4038 38.3874Z" fill="#2329D6"/>
</g>
<defs>
<filter id="filter0_bii_1_1224" x="25.3477" y="7.63888" width="31.1379" height="22.9385" filterUnits="userSpaceOnUse" color-interpolation-filters="sRGB">
<feFlood flood-opacity="0" result="BackgroundImageFix"/>
<feGaussianBlur in="BackgroundImageFix" stdDeviation="2.65041"/>
<feComposite in2="SourceAlpha" operator="in" result="effect1_backgroundBlur_1_1224"/>
<feBlend mode="normal" in="SourceGraphic" in2="effect1_backgroundBlur_1_1224" result="shape"/>
<feColorMatrix in="SourceAlpha" type="matrix" values="0 0 0 0 0 0 0 0 0 0 0 0 0 0 0 0 0 0 127 0" result="hardAlpha"/>
<feOffset dy="0.24655"/>
<feGaussianBlur stdDeviation="0.123275"/>
<feComposite in2="hardAlpha" operator="arithmetic" k2="-1" k3="1"/>
<feColorMatrix type="matrix" values="0 0 0 0 1 0 0 0 0 1 0 0 0 0 1 0 0 0 0.15 0"/>
<feBlend mode="normal" in2="shape" result="effect2_innerShadow_1_1224"/>
<feColorMatrix in="SourceAlpha" type="matrix" values="0 0 0 0 0 0 0 0 0 0 0 0 0 0 0 0 0 0 127 0" result="hardAlpha"/>
<feOffset/>
<feGaussianBlur stdDeviation="2.09567"/>
<feComposite in2="hardAlpha" operator="arithmetic" k2="-1" k3="1"/>
<feColorMatrix type="matrix" values="0 0 0 0 1 0 0 0 0 1 0 0 0 0 1 0 0 0 0.05 0"/>
<feBlend mode="normal" in2="effect2_innerShadow_1_1224" result="effect3_innerShadow_1_1224"/>
</filter>
<filter id="filter1_bi_1_1224" x="32.4727" y="7.25662" width="24.6182" height="32.0725" filterUnits="userSpaceOnUse" color-interpolation-filters="sRGB">
<feFlood flood-opacity="0" result="BackgroundImageFix"/>
<feGaussianBlur in="BackgroundImageFix" stdDeviation="2.89696"/>
<feComposite in2="SourceAlpha" operator="in" result="effect1_backgroundBlur_1_1224"/>
<feBlend mode="normal" in="SourceGraphic" in2="effect1_backgroundBlur_1_1224" result="shape"/>
<feColorMatrix in="SourceAlpha" type="matrix" values="0 0 0 0 0 0 0 0 0 0 0 0 0 0 0 0 0 0 127 0" result="hardAlpha"/>
<feOffset/>
<feGaussianBlur stdDeviation="2.09567"/>
<feComposite in2="hardAlpha" operator="arithmetic" k2="-1" k3="1"/>
<feColorMatrix type="matrix" values="0 0 0 0 1 0 0 0 0 1 0 0 0 0 1 0 0 0 0.05 0"/>
<feBlend mode="normal" in2="shape" result="effect2_innerShadow_1_1224"/>
</filter>
<filter id="filter2_biiii_1_1224" x="17.9015" y="18.3369" width="27.8468" height="27.8468" filterUnits="userSpaceOnUse" color-interpolation-filters="sRGB">
<feFlood flood-opacity="0" result="BackgroundImageFix"/>
<feGaussianBlur in="BackgroundImageFix" stdDeviation="0.994528"/>
<feComposite in2="SourceAlpha" operator="in" result="effect1_backgroundBlur_1_1224"/>
<feBlend mode="normal" in="SourceGraphic" in2="effect1_backgroundBlur_1_1224" result="shape"/>
<feColorMatrix in="SourceAlpha" type="matrix" values="0 0 0 0 0 0 0 0 0 0 0 0 0 0 0 0 0 0 127 0" result="hardAlpha"/>
<feOffset dy="0.497264"/>
<feGaussianBlur stdDeviation="0.994528"/>
<feComposite in2="hardAlpha" operator="arithmetic" k2="-1" k3="1"/>
<feColorMatrix type="matrix" values="0 0 0 0 1 0 0 0 0 1 0 0 0 0 1 0 0 0 0.3 0"/>
<feBlend mode="normal" in2="shape" result="effect2_innerShadow_1_1224"/>
<feColorMatrix in="SourceAlpha" type="matrix" values="0 0 0 0 0 0 0 0 0 0 0 0 0 0 0 0 0 0 127 0" result="hardAlpha"/>
<feOffset dy="-0.497264"/>
<feGaussianBlur stdDeviation="0.994528"/>
<feComposite in2="hardAlpha" operator="arithmetic" k2="-1" k3="1"/>
<feColorMatrix type="matrix" values="0 0 0 0 1 0 0 0 0 1 0 0 0 0 1 0 0 0 0.5 0"/>
<feBlend mode="normal" in2="effect2_innerShadow_1_1224" result="effect3_innerShadow_1_1224"/>
<feColorMatrix in="SourceAlpha" type="matrix" values="0 0 0 0 0 0 0 0 0 0 0 0 0 0 0 0 0 0 127 0" result="hardAlpha"/>
<feOffset dy="0.497264"/>
<feGaussianBlur stdDeviation="10.9398"/>
<feComposite in2="hardAlpha" operator="arithmetic" k2="-1" k3="1"/>
<feColorMatrix type="matrix" values="0 0 0 0 1 0 0 0 0 1 0 0 0 0 1 0 0 0 0.45 0"/>
<feBlend mode="normal" in2="effect3_innerShadow_1_1224" result="effect4_innerShadow_1_1224"/>
<feColorMatrix in="SourceAlpha" type="matrix" values="0 0 0 0 0 0 0 0 0 0 0 0 0 0 0 0 0 0 127 0" result="hardAlpha"/>
<feOffset dx="0.497264" dy="0.497264"/>
<feGaussianBlur stdDeviation="0.497264"/>
<feComposite in2="hardAlpha" operator="arithmetic" k2="-1" k3="1"/>
<feColorMatrix type="matrix" values="0 0 0 0 1 0 0 0 0 1 0 0 0 0 1 0 0 0 1 0"/>
<feBlend mode="normal" in2="effect4_innerShadow_1_1224" result="effect5_innerShadow_1_1224"/>
</filter>
<filter id="filter3_f_1_1224" x="35.3057" y="23.3095" width="6.46444" height="6.46444" filterUnits="userSpaceOnUse" color-interpolation-filters="sRGB">
<feFlood flood-opacity="0" result="BackgroundImageFix"/>
<feBlend mode="normal" in="SourceGraphic" in2="BackgroundImageFix" result="shape"/>
<feGaussianBlur stdDeviation="0.994528" result="effect1_foregroundBlur_1_1224"/>
</filter>
<filter id="filter4_biii_1_1224" x="35.3057" y="22.3149" width="6.46444" height="6.46444" filterUnits="userSpaceOnUse" color-interpolation-filters="sRGB">
<feFlood flood-opacity="0" result="BackgroundImageFix"/>
<feGaussianBlur in="BackgroundImageFix" stdDeviation="0.994528"/>
<feComposite in2="SourceAlpha" operator="in" result="effect1_backgroundBlur_1_1224"/>
<feBlend mode="normal" in="SourceGraphic" in2="effect1_backgroundBlur_1_1224" result="shape"/>
<feColorMatrix in="SourceAlpha" type="matrix" values="0 0 0 0 0 0 0 0 0 0 0 0 0 0 0 0 0 0 127 0" result="hardAlpha"/>
<feOffset dy="0.497264"/>
<feGaussianBlur stdDeviation="0.994528"/>
<feComposite in2="hardAlpha" operator="arithmetic" k2="-1" k3="1"/>
<feColorMatrix type="matrix" values="0 0 0 0 1 0 0 0 0 1 0 0 0 0 1 0 0 0 0.3 0"/>
<feBlend mode="normal" in2="shape" result="effect2_innerShadow_1_1224"/>
<feColorMatrix in="SourceAlpha" type="matrix" values="0 0 0 0 0 0 0 0 0 0 0 0 0 0 0 0 0 0 127 0" result="hardAlpha"/>
<feOffset dy="-0.497264"/>
<feGaussianBlur stdDeviation="0.994528"/>
<feComposite in2="hardAlpha" operator="arithmetic" k2="-1" k3="1"/>
<feColorMatrix type="matrix" values="0 0 0 0 1 0 0 0 0 1 0 0 0 0 1 0 0 0 0.5 0"/>
<feBlend mode="normal" in2="effect2_innerShadow_1_1224" result="effect3_innerShadow_1_1224"/>
<feColorMatrix in="SourceAlpha" type="matrix" values="0 0 0 0 0 0 0 0 0 0 0 0 0 0 0 0 0 0 127 0" result="hardAlpha"/>
<feOffset dy="-0.497264"/>
<feGaussianBlur stdDeviation="0.248632"/>
<feComposite in2="hardAlpha" operator="arithmetic" k2="-1" k3="1"/>
<feColorMatrix type="matrix" values="0 0 0 0 1 0 0 0 0 1 0 0 0 0 1 0 0 0 0.9 0"/>
<feBlend mode="normal" in2="effect3_innerShadow_1_1224" result="effect4_innerShadow_1_1224"/>
</filter>
<filter id="filter5_f_1_1224" x="23.8686" y="26.7902" width="15.9124" height="15.9124" filterUnits="userSpaceOnUse" color-interpolation-filters="sRGB">
<feFlood flood-opacity="0" result="BackgroundImageFix"/>
<feBlend mode="normal" in="SourceGraphic" in2="BackgroundImageFix" result="shape"/>
<feGaussianBlur stdDeviation="0.994528" result="effect1_foregroundBlur_1_1224"/>
</filter>
<filter id="filter6_biii_1_1224" x="23.8686" y="24.3039" width="15.9124" height="15.9124" filterUnits="userSpaceOnUse" color-interpolation-filters="sRGB">
<feFlood flood-opacity="0" result="BackgroundImageFix"/>
<feGaussianBlur in="BackgroundImageFix" stdDeviation="0.994528"/>
<feComposite in2="SourceAlpha" operator="in" result="effect1_backgroundBlur_1_1224"/>
<feBlend mode="normal" in="SourceGraphic" in2="effect1_backgroundBlur_1_1224" result="shape"/>
<feColorMatrix in="SourceAlpha" type="matrix" values="0 0 0 0 0 0 0 0 0 0 0 0 0 0 0 0 0 0 127 0" result="hardAlpha"/>
<feOffset dy="0.497264"/>
<feGaussianBlur stdDeviation="0.994528"/>
<feComposite in2="hardAlpha" operator="arithmetic" k2="-1" k3="1"/>
<feColorMatrix type="matrix" values="0 0 0 0 1 0 0 0 0 1 0 0 0 0 1 0 0 0 0.3 0"/>
<feBlend mode="normal" in2="shape" result="effect2_innerShadow_1_1224"/>
<feColorMatrix in="SourceAlpha" type="matrix" values="0 0 0 0 0 0 0 0 0 0 0 0 0 0 0 0 0 0 127 0" result="hardAlpha"/>
<feOffset dy="-0.497264"/>
<feGaussianBlur stdDeviation="0.994528"/>
<feComposite in2="hardAlpha" operator="arithmetic" k2="-1" k3="1"/>
<feColorMatrix type="matrix" values="0 0 0 0 1 0 0 0 0 1 0 0 0 0 1 0 0 0 0.5 0"/>
<feBlend mode="normal" in2="effect2_innerShadow_1_1224" result="effect3_innerShadow_1_1224"/>
<feColorMatrix in="SourceAlpha" type="matrix" values="0 0 0 0 0 0 0 0 0 0 0 0 0 0 0 0 0 0 127 0" result="hardAlpha"/>
<feOffset dy="-0.497264"/>
<feGaussianBlur stdDeviation="0.248632"/>
<feComposite in2="hardAlpha" operator="arithmetic" k2="-1" k3="1"/>
<feColorMatrix type="matrix" values="0 0 0 0 1 0 0 0 0 1 0 0 0 0 1 0 0 0 0.9 0"/>
<feBlend mode="normal" in2="effect3_innerShadow_1_1224" result="effect4_innerShadow_1_1224"/>
</filter>
<filter id="filter7_biii_1_1224" x="15.6888" y="30.8707" width="6.62956" height="7.31629" filterUnits="userSpaceOnUse" color-interpolation-filters="sRGB">
<feFlood flood-opacity="0" result="BackgroundImageFix"/>
<feGaussianBlur in="BackgroundImageFix" stdDeviation="0.307833"/>
<feComposite in2="SourceAlpha" operator="in" result="effect1_backgroundBlur_1_1224"/>
<feBlend mode="normal" in="SourceGraphic" in2="effect1_backgroundBlur_1_1224" result="shape"/>
<feColorMatrix in="SourceAlpha" type="matrix" values="0 0 0 0 0 0 0 0 0 0 0 0 0 0 0 0 0 0 127 0" result="hardAlpha"/>
<feOffset dy="0.153916"/>
<feGaussianBlur stdDeviation="0.307833"/>
<feComposite in2="hardAlpha" operator="arithmetic" k2="-1" k3="1"/>
<feColorMatrix type="matrix" values="0 0 0 0 1 0 0 0 0 1 0 0 0 0 1 0 0 0 0.3 0"/>
<feBlend mode="normal" in2="shape" result="effect2_innerShadow_1_1224"/>
<feColorMatrix in="SourceAlpha" type="matrix" values="0 0 0 0 0 0 0 0 0 0 0 0 0 0 0 0 0 0 127 0" result="hardAlpha"/>
<feOffset dy="-0.153916"/>
<feGaussianBlur stdDeviation="0.307833"/>
<feComposite in2="hardAlpha" operator="arithmetic" k2="-1" k3="1"/>
<feColorMatrix type="matrix" values="0 0 0 0 1 0 0 0 0 1 0 0 0 0 1 0 0 0 0.5 0"/>
<feBlend mode="normal" in2="effect2_innerShadow_1_1224" result="effect3_innerShadow_1_1224"/>
<feColorMatrix in="SourceAlpha" type="matrix" values="0 0 0 0 0 0 0 0 0 0 0 0 0 0 0 0 0 0 127 0" result="hardAlpha"/>
<feOffset dy="0.153916"/>
<feGaussianBlur stdDeviation="0.0769582"/>
<feComposite in2="hardAlpha" operator="arithmetic" k2="-1" k3="1"/>
<feColorMatrix type="matrix" values="0 0 0 0 1 0 0 0 0 1 0 0 0 0 1 0 0 0 0.95 0"/>
<feBlend mode="normal" in2="effect3_innerShadow_1_1224" result="effect4_innerShadow_1_1224"/>
</filter>
<filter id="filter8_biii_1_1224" x="14.2832" y="29.1055" width="10.6919" height="11.5993" filterUnits="userSpaceOnUse" color-interpolation-filters="sRGB">
<feFlood flood-opacity="0" result="BackgroundImageFix"/>
<feGaussianBlur in="BackgroundImageFix" stdDeviation="0.307833"/>
<feComposite in2="SourceAlpha" operator="in" result="effect1_backgroundBlur_1_1224"/>
<feBlend mode="normal" in="SourceGraphic" in2="effect1_backgroundBlur_1_1224" result="shape"/>
<feColorMatrix in="SourceAlpha" type="matrix" values="0 0 0 0 0 0 0 0 0 0 0 0 0 0 0 0 0 0 127 0" result="hardAlpha"/>
<feOffset dy="0.153916"/>
<feGaussianBlur stdDeviation="0.307833"/>
<feComposite in2="hardAlpha" operator="arithmetic" k2="-1" k3="1"/>
<feColorMatrix type="matrix" values="0 0 0 0 1 0 0 0 0 1 0 0 0 0 1 0 0 0 0.3 0"/>
<feBlend mode="normal" in2="shape" result="effect2_innerShadow_1_1224"/>
<feColorMatrix in="SourceAlpha" type="matrix" values="0 0 0 0 0 0 0 0 0 0 0 0 0 0 0 0 0 0 127 0" result="hardAlpha"/>
<feOffset dy="-0.153916"/>
<feGaussianBlur stdDeviation="0.307833"/>
<feComposite in2="hardAlpha" operator="arithmetic" k2="-1" k3="1"/>
<feColorMatrix type="matrix" values="0 0 0 0 1 0 0 0 0 1 0 0 0 0 1 0 0 0 0.5 0"/>
<feBlend mode="normal" in2="effect2_innerShadow_1_1224" result="effect3_innerShadow_1_1224"/>
<feColorMatrix in="SourceAlpha" type="matrix" values="0 0 0 0 0 0 0 0 0 0 0 0 0 0 0 0 0 0 127 0" result="hardAlpha"/>
<feOffset dy="0.153916"/>
<feGaussianBlur stdDeviation="0.0769582"/>
<feComposite in2="hardAlpha" operator="arithmetic" k2="-1" k3="1"/>
<feColorMatrix type="matrix" values="0 0 0 0 1 0 0 0 0 1 0 0 0 0 1 0 0 0 0.95 0"/>
<feBlend mode="normal" in2="effect3_innerShadow_1_1224" result="effect4_innerShadow_1_1224"/>
</filter>
<filter id="filter9_biii_1_1224" x="18.752" y="30.7903" width="4.67158" height="4.75013" filterUnits="userSpaceOnUse" color-interpolation-filters="sRGB">
<feFlood flood-opacity="0" result="BackgroundImageFix"/>
<feGaussianBlur in="BackgroundImageFix" stdDeviation="0.307833"/>
<feComposite in2="SourceAlpha" operator="in" result="effect1_backgroundBlur_1_1224"/>
<feBlend mode="normal" in="SourceGraphic" in2="effect1_backgroundBlur_1_1224" result="shape"/>
<feColorMatrix in="SourceAlpha" type="matrix" values="0 0 0 0 0 0 0 0 0 0 0 0 0 0 0 0 0 0 127 0" result="hardAlpha"/>
<feOffset dy="0.153916"/>
<feGaussianBlur stdDeviation="0.307833"/>
<feComposite in2="hardAlpha" operator="arithmetic" k2="-1" k3="1"/>
<feColorMatrix type="matrix" values="0 0 0 0 1 0 0 0 0 1 0 0 0 0 1 0 0 0 0.3 0"/>
<feBlend mode="normal" in2="shape" result="effect2_innerShadow_1_1224"/>
<feColorMatrix in="SourceAlpha" type="matrix" values="0 0 0 0 0 0 0 0 0 0 0 0 0 0 0 0 0 0 127 0" result="hardAlpha"/>
<feOffset dy="-0.153916"/>
<feGaussianBlur stdDeviation="0.307833"/>
<feComposite in2="hardAlpha" operator="arithmetic" k2="-1" k3="1"/>
<feColorMatrix type="matrix" values="0 0 0 0 1 0 0 0 0 1 0 0 0 0 1 0 0 0 0.5 0"/>
<feBlend mode="normal" in2="effect2_innerShadow_1_1224" result="effect3_innerShadow_1_1224"/>
<feColorMatrix in="SourceAlpha" type="matrix" values="0 0 0 0 0 0 0 0 0 0 0 0 0 0 0 0 0 0 127 0" result="hardAlpha"/>
<feOffset dy="0.153916"/>
<feGaussianBlur stdDeviation="0.0769582"/>
<feComposite in2="hardAlpha" operator="arithmetic" k2="-1" k3="1"/>
<feColorMatrix type="matrix" values="0 0 0 0 1 0 0 0 0 1 0 0 0 0 1 0 0 0 0.95 0"/>
<feBlend mode="normal" in2="effect3_innerShadow_1_1224" result="effect4_innerShadow_1_1224"/>
</filter>
<filter id="filter10_biii_1_1224" x="15.7166" y="31.886" width="2.30409" height="2.30409" filterUnits="userSpaceOnUse" color-interpolation-filters="sRGB">
<feFlood flood-opacity="0" result="BackgroundImageFix"/>
<feGaussianBlur in="BackgroundImageFix" stdDeviation="0.307833"/>
<feComposite in2="SourceAlpha" operator="in" result="effect1_backgroundBlur_1_1224"/>
<feBlend mode="normal" in="SourceGraphic" in2="effect1_backgroundBlur_1_1224" result="shape"/>
<feColorMatrix in="SourceAlpha" type="matrix" values="0 0 0 0 0 0 0 0 0 0 0 0 0 0 0 0 0 0 127 0" result="hardAlpha"/>
<feOffset dy="0.153916"/>
<feGaussianBlur stdDeviation="0.307833"/>
<feComposite in2="hardAlpha" operator="arithmetic" k2="-1" k3="1"/>
<feColorMatrix type="matrix" values="0 0 0 0 1 0 0 0 0 1 0 0 0 0 1 0 0 0 0.3 0"/>
<feBlend mode="normal" in2="shape" result="effect2_innerShadow_1_1224"/>
<feColorMatrix in="SourceAlpha" type="matrix" values="0 0 0 0 0 0 0 0 0 0 0 0 0 0 0 0 0 0 127 0" result="hardAlpha"/>
<feOffset dy="-0.153916"/>
<feGaussianBlur stdDeviation="0.307833"/>
<feComposite in2="hardAlpha" operator="arithmetic" k2="-1" k3="1"/>
<feColorMatrix type="matrix" values="0 0 0 0 1 0 0 0 0 1 0 0 0 0 1 0 0 0 0.5 0"/>
<feBlend mode="normal" in2="effect2_innerShadow_1_1224" result="effect3_innerShadow_1_1224"/>
<feColorMatrix in="SourceAlpha" type="matrix" values="0 0 0 0 0 0 0 0 0 0 0 0 0 0 0 0 0 0 127 0" result="hardAlpha"/>
<feOffset dy="0.153916"/>
<feGaussianBlur stdDeviation="0.0769582"/>
<feComposite in2="hardAlpha" operator="arithmetic" k2="-1" k3="1"/>
<feColorMatrix type="matrix" values="0 0 0 0 1 0 0 0 0 1 0 0 0 0 1 0 0 0 0.95 0"/>
<feBlend mode="normal" in2="effect3_innerShadow_1_1224" result="effect4_innerShadow_1_1224"/>
</filter>
<filter id="filter11_biii_1_1224" x="17.1311" y="31.1194" width="2.30409" height="2.30409" filterUnits="userSpaceOnUse" color-interpolation-filters="sRGB">
<feFlood flood-opacity="0" result="BackgroundImageFix"/>
<feGaussianBlur in="BackgroundImageFix" stdDeviation="0.307833"/>
<feComposite in2="SourceAlpha" operator="in" result="effect1_backgroundBlur_1_1224"/>
<feBlend mode="normal" in="SourceGraphic" in2="effect1_backgroundBlur_1_1224" result="shape"/>
<feColorMatrix in="SourceAlpha" type="matrix" values="0 0 0 0 0 0 0 0 0 0 0 0 0 0 0 0 0 0 127 0" result="hardAlpha"/>
<feOffset dy="0.153916"/>
<feGaussianBlur stdDeviation="0.307833"/>
<feComposite in2="hardAlpha" operator="arithmetic" k2="-1" k3="1"/>
<feColorMatrix type="matrix" values="0 0 0 0 1 0 0 0 0 1 0 0 0 0 1 0 0 0 0.3 0"/>
<feBlend mode="normal" in2="shape" result="effect2_innerShadow_1_1224"/>
<feColorMatrix in="SourceAlpha" type="matrix" values="0 0 0 0 0 0 0 0 0 0 0 0 0 0 0 0 0 0 127 0" result="hardAlpha"/>
<feOffset dy="-0.153916"/>
<feGaussianBlur stdDeviation="0.307833"/>
<feComposite in2="hardAlpha" operator="arithmetic" k2="-1" k3="1"/>
<feColorMatrix type="matrix" values="0 0 0 0 1 0 0 0 0 1 0 0 0 0 1 0 0 0 0.5 0"/>
<feBlend mode="normal" in2="effect2_innerShadow_1_1224" result="effect3_innerShadow_1_1224"/>
<feColorMatrix in="SourceAlpha" type="matrix" values="0 0 0 0 0 0 0 0 0 0 0 0 0 0 0 0 0 0 127 0" result="hardAlpha"/>
<feOffset dy="0.153916"/>
<feGaussianBlur stdDeviation="0.0769582"/>
<feComposite in2="hardAlpha" operator="arithmetic" k2="-1" k3="1"/>
<feColorMatrix type="matrix" values="0 0 0 0 1 0 0 0 0 1 0 0 0 0 1 0 0 0 0.95 0"/>
<feBlend mode="normal" in2="effect3_innerShadow_1_1224" result="effect4_innerShadow_1_1224"/>
</filter>
<filter id="filter12_biii_1_1224" x="13.4682" y="34.0005" width="4.95533" height="4.64344" filterUnits="userSpaceOnUse" color-interpolation-filters="sRGB">
<feFlood flood-opacity="0" result="BackgroundImageFix"/>
<feGaussianBlur in="BackgroundImageFix" stdDeviation="0.307833"/>
<feComposite in2="SourceAlpha" operator="in" result="effect1_backgroundBlur_1_1224"/>
<feBlend mode="normal" in="SourceGraphic" in2="effect1_backgroundBlur_1_1224" result="shape"/>
<feColorMatrix in="SourceAlpha" type="matrix" values="0 0 0 0 0 0 0 0 0 0 0 0 0 0 0 0 0 0 127 0" result="hardAlpha"/>
<feOffset dy="0.153916"/>
<feGaussianBlur stdDeviation="0.307833"/>
<feComposite in2="hardAlpha" operator="arithmetic" k2="-1" k3="1"/>
<feColorMatrix type="matrix" values="0 0 0 0 1 0 0 0 0 1 0 0 0 0 1 0 0 0 0.3 0"/>
<feBlend mode="normal" in2="shape" result="effect2_innerShadow_1_1224"/>
<feColorMatrix in="SourceAlpha" type="matrix" values="0 0 0 0 0 0 0 0 0 0 0 0 0 0 0 0 0 0 127 0" result="hardAlpha"/>
<feOffset dy="-0.153916"/>
<feGaussianBlur stdDeviation="0.307833"/>
<feComposite in2="hardAlpha" operator="arithmetic" k2="-1" k3="1"/>
<feColorMatrix type="matrix" values="0 0 0 0 1 0 0 0 0 1 0 0 0 0 1 0 0 0 0.5 0"/>
<feBlend mode="normal" in2="effect2_innerShadow_1_1224" result="effect3_innerShadow_1_1224"/>
<feColorMatrix in="SourceAlpha" type="matrix" values="0 0 0 0 0 0 0 0 0 0 0 0 0 0 0 0 0 0 127 0" result="hardAlpha"/>
<feOffset dy="0.153916"/>
<feGaussianBlur stdDeviation="0.0769582"/>
<feComposite in2="hardAlpha" operator="arithmetic" k2="-1" k3="1"/>
<feColorMatrix type="matrix" values="0 0 0 0 1 0 0 0 0 1 0 0 0 0 1 0 0 0 0.95 0"/>
<feBlend mode="normal" in2="effect3_innerShadow_1_1224" result="effect4_innerShadow_1_1224"/>
</filter>
<filter id="filter13_f_1_1224" x="35.3534" y="23.6091" width="15.5555" height="16.2251" filterUnits="userSpaceOnUse" color-interpolation-filters="sRGB">
<feFlood flood-opacity="0" result="BackgroundImageFix"/>
<feBlend mode="normal" in="SourceGraphic" in2="BackgroundImageFix" result="shape"/>
<feGaussianBlur stdDeviation="1.58472" result="effect1_foregroundBlur_1_1224"/>
</filter>
<filter id="filter14_f_1_1224" x="37.6149" y="24.4612" width="14.2752" height="15.416" filterUnits="userSpaceOnUse" color-interpolation-filters="sRGB">
<feFlood flood-opacity="0" result="BackgroundImageFix"/>
<feBlend mode="normal" in="SourceGraphic" in2="BackgroundImageFix" result="shape"/>
<feGaussianBlur stdDeviation="1.58472" result="effect1_foregroundBlur_1_1224"/>
</filter>
<filter id="filter15_f_1_1224" x="39.5655" y="26.1759" width="14.9179" height="16.9069" filterUnits="userSpaceOnUse" color-interpolation-filters="sRGB">
<feFlood flood-opacity="0" result="BackgroundImageFix"/>
<feBlend mode="normal" in="SourceGraphic" in2="BackgroundImageFix" result="shape"/>
<feGaussianBlur stdDeviation="1.98905" result="effect1_foregroundBlur_1_1224"/>
</filter>
<filter id="filter16_f_1_1224" x="36.6439" y="28.2178" width="14.9894" height="17.7513" filterUnits="userSpaceOnUse" color-interpolation-filters="sRGB">
<feFlood flood-opacity="0" result="BackgroundImageFix"/>
<feBlend mode="normal" in="SourceGraphic" in2="BackgroundImageFix" result="shape"/>
<feGaussianBlur stdDeviation="1.49179" result="effect1_foregroundBlur_1_1224"/>
</filter>
<filter id="filter17_f_1_1224" x="44.534" y="31.3357" width="5.21764" height="5.47988" filterUnits="userSpaceOnUse" color-interpolation-filters="sRGB">
<feFlood flood-opacity="0" result="BackgroundImageFix"/>
<feBlend mode="normal" in="SourceGraphic" in2="BackgroundImageFix" result="shape"/>
<feGaussianBlur stdDeviation="0.248632" result="effect1_foregroundBlur_1_1224"/>
</filter>
<linearGradient id="paint0_linear_1_1224" x1="51.8297" y1="31.2665" x2="39.5899" y2="38.5596" gradientUnits="userSpaceOnUse">
<stop offset="0.0941878" stop-color="#FFE5DC"/>
<stop offset="0.230705" stop-color="#FFFFE7" stop-opacity="0"/>
</linearGradient>
<linearGradient id="paint1_linear_1_1224" x1="48.8453" y1="34.9098" x2="39.1104" y2="33.2681" gradientUnits="userSpaceOnUse">
<stop stop-color="#FFFFE6"/>
<stop offset="0.360807" stop-color="#D5FFFF"/>
<stop offset="0.977083" stop-color="#D5FFFF" stop-opacity="0"/>
</linearGradient>
<linearGradient id="paint2_linear_1_1224" x1="49.2127" y1="36.4729" x2="39.6856" y2="42.2053" gradientUnits="userSpaceOnUse">
<stop offset="0.0153056" stop-color="#D4FFE7"/>
<stop offset="0.312156" stop-color="#D5FFFF" stop-opacity="0"/>
</linearGradient>
<clipPath id="clip0_1_1224">
<rect width="56.8284" height="56.6939" fill="white" transform="translate(0 0.435303)"/>
</clipPath>
</defs>
</svg>
