<svg width="57" height="57" viewBox="0 0 57 57" fill="none" xmlns="http://www.w3.org/2000/svg">
<g clip-path="url(#clip0_1_1185)">
<g filter="url(#filter0_f_1_1185)">
<path d="M48.0189 39.1661C48.0189 37.2437 49.5773 35.6853 51.4998 35.6853C53.4222 35.6853 54.9806 37.2437 54.9806 39.1661V41.1552C54.9806 43.0776 53.4222 44.636 51.4998 44.636C49.5773 44.636 48.0189 43.0776 48.0189 41.1552V39.1661Z" fill="#FFFFE7"/>
</g>
<path d="M49.3311 38.1344C49.9815 36.2975 52.0028 35.3212 53.8459 35.9538C55.689 36.5864 56.6559 38.5884 56.0056 40.4253L55.0893 43.0134C54.906 43.5311 54.3362 43.8063 53.8167 43.628L49.0236 41.9828C48.504 41.8045 48.2315 41.2402 48.4148 40.7225L49.3311 38.1344Z" fill="url(#paint0_linear_1_1185)"/>
<g filter="url(#filter1_f_1_1185)">
<path d="M45.1563 39.8156C45.6973 37.6532 47.8925 36.3238 50.0595 36.8464C52.2265 37.369 53.5446 39.5456 53.0036 41.7081L52.0715 45.4341C51.5305 47.5965 49.3352 48.9259 47.1682 48.4033C45.0012 47.8807 43.6831 45.704 44.2241 43.5416L45.1563 39.8156Z" fill="url(#paint1_linear_1_1185)"/>
</g>
<g style="mix-blend-mode:luminosity">
<path d="M45.9064 39.0988C46.9278 37.1242 49.3686 36.3276 51.3581 37.3196C53.3477 38.3115 54.1326 40.7164 53.1112 42.6911L51.3217 46.1509C50.3004 48.1256 47.8595 48.9222 45.87 47.9302C43.8804 46.9382 43.0955 44.5333 44.1169 42.5587L45.9064 39.0988Z" fill="url(#paint2_linear_1_1185)"/>
</g>
<g filter="url(#filter2_f_1_1185)">
<path d="M49.9968 37.692C50.5807 37.1979 51.4545 37.2707 51.9486 37.8545L53.4022 39.5721C53.8958 40.1554 53.8231 41.0284 53.2398 41.5221C52.7815 41.9099 52.1254 41.9579 51.6155 41.6409L50.2235 40.7755L49.6095 39.273C49.3826 38.7177 49.5389 38.0795 49.9968 37.692Z" fill="white"/>
</g>
<path d="M44.7539 12.4316L51.6442 24.366C52.2184 25.3605 51.5007 26.6037 50.3523 26.6037H39.1556C38.0072 26.6037 37.2895 25.3605 37.8636 24.366L44.7539 12.4316Z" fill="#2329D6"/>
<g filter="url(#filter3_f_1_1185)">
<path d="M29.5286 32.6584C29.7821 31.8396 31.7751 27.7801 33.3171 24.687C34.2924 22.7306 36.7496 22.0657 38.5871 23.2499C40.4329 24.4394 40.8357 26.9675 39.4325 28.6565C37.36 31.1514 34.6881 34.3055 33.9167 34.9325C32.6039 35.9997 30.9692 36.6178 30.1411 36.2238C29.313 35.8299 29.1082 34.0159 29.5286 32.6584Z" fill="#FFE4DB"/>
</g>
<g filter="url(#filter4_f_1_1185)">
<path d="M31.917 26.479C31.6255 25.1292 32.4835 23.7987 33.8333 23.5072C35.1831 23.2158 36.5136 24.0738 36.8051 25.4236L37.9945 30.9324C38.2859 32.2822 37.428 33.6127 36.0782 33.9041C34.7283 34.1956 33.3978 33.3376 33.1064 31.9878L31.917 26.479Z" fill="#C5EDFE"/>
</g>
<g filter="url(#filter5_f_1_1185)">
<path d="M34.2198 26.1796C34.1753 25.5551 34.6456 25.0128 35.2701 24.9683C35.8946 24.9238 36.437 25.394 36.4814 26.0186L36.7592 29.9193C36.8037 30.5438 36.3335 31.0861 35.709 31.1306C35.0844 31.1751 34.5421 30.7049 34.4976 30.0804L34.2198 26.1796Z" fill="#D4FFFF"/>
</g>
<rect x="23.8429" y="29.2314" width="5.00324" height="5.00324" fill="#F84031"/>
<path d="M39.781 36.0517C39.781 33.992 41.4508 32.3223 43.5105 32.3223C45.5702 32.3223 47.24 33.992 47.24 36.0517V40.7757C47.24 41.325 46.7947 41.7703 46.2455 41.7703H40.7756C40.2263 41.7703 39.781 41.325 39.781 40.7757V36.0517Z" fill="#A9CFFF"/>
<g filter="url(#filter6_biiii_1_1185)">
<path d="M15.6293 27.7469C15.6293 24.4514 18.3009 21.7798 21.5965 21.7798H41.9843C45.2798 21.7798 47.9514 24.4514 47.9514 27.747V40.1785C47.9514 41.2771 47.0609 42.1676 45.9624 42.1676H17.6184C16.5198 42.1676 15.6293 41.2771 15.6293 40.1785V27.7469Z" fill="white" fill-opacity="0.2"/>
</g>
<path d="M20.9869 27.6205H18.8405L16.6942 22.6243L13.117 29.7617L10.9707 25.4793L9.53983 27.6205H8.10895" stroke="#2329D6" stroke-width="0.895075" stroke-linecap="round" stroke-linejoin="round"/>
<circle cx="38.4952" cy="22.7473" r="3.81112" transform="rotate(7.45291 38.4952 22.7473)" stroke="#050121" stroke-width="1.98906" stroke-dasharray="1.3 1.3"/>
<rect x="23.0931" y="30.2334" width="1.49983" height="1.49983" fill="#F84031"/>
<rect x="28.4683" y="32.3222" width="2.98358" height="3.97811" stroke="white" stroke-width="0.994528" stroke-dasharray="1.99 1.99"/>
<rect x="28.4683" y="32.3222" width="2.98358" height="3.97811" stroke="url(#paint3_linear_1_1185)" stroke-width="0.994528" stroke-dasharray="1.99 1.99"/>
<g filter="url(#filter7_f_1_1185)">
<path d="M32.2348 36.9395H31.8591C31.341 36.9395 30.9196 37.3577 30.9196 37.8721V39.7373C30.9196 40.2516 31.341 40.6699 31.8591 40.6699H32.2348C32.5455 40.6699 32.7985 40.4188 32.7985 40.1103V37.499C32.7985 37.1906 32.5455 36.9395 32.2348 36.9395Z" fill="#A9CFFF"/>
</g>
<g filter="url(#filter8_f_1_1185)">
<path d="M30.5039 37.6853H30.3562C30.045 37.6853 29.7926 37.9358 29.7926 38.2449V39.364C29.7926 39.673 30.045 39.9235 30.3562 39.9235H30.5045C30.5322 39.9235 30.5541 39.9 30.5512 39.8727C30.5465 39.8281 30.5441 39.7829 30.5441 39.737C30.5441 38.0332 30.5401 37.8358 30.5506 37.7367C30.5536 37.7092 30.5318 37.6853 30.5039 37.6853Z" fill="#A9CFFF"/>
</g>
<g filter="url(#filter9_f_1_1185)">
<path d="M34.675 30.9707C31.9895 30.9721 29.7926 33.1962 29.7926 35.8622V36.0067C29.7926 36.2498 29.9497 36.4572 30.1684 36.5342V37.2757C30.1684 37.3039 30.1936 37.3259 30.2217 37.3218C30.302 37.3104 30.3713 37.3118 30.4969 37.3123C30.5229 37.3124 30.5441 37.2915 30.5441 37.2657V36.5663H30.732C31.0433 36.5663 31.2957 36.3158 31.2957 36.0067V35.8527C31.2957 33.9969 32.7985 32.4681 34.6678 32.4629C36.537 32.4576 38.0594 33.9658 38.0594 35.8202V36.0067C38.0594 36.3158 38.3117 36.5663 38.623 36.5663H38.8109V37.2656C38.8109 37.2914 38.8322 37.3124 38.8582 37.3123C38.978 37.3118 39.0513 37.3103 39.1334 37.3219C39.1616 37.3259 39.1867 37.3039 39.1867 37.2757V36.5342C39.4053 36.4571 39.5624 36.2498 39.5624 36.0067V35.8202C39.5624 33.1454 37.3696 30.9693 34.675 30.9707Z" fill="#A9CFFF"/>
</g>
<g filter="url(#filter10_f_1_1185)">
<path d="M37.1198 40.6699H37.4955C38.0136 40.6699 38.4349 40.2516 38.4349 39.7373V37.8721C38.4349 37.3577 38.0136 36.9395 37.4955 36.9395H37.1198C36.8091 36.9395 36.5561 37.1906 36.5561 37.499V40.1103C36.5561 40.4188 36.8091 40.6699 37.1198 40.6699Z" fill="#A9CFFF"/>
</g>
<g filter="url(#filter11_f_1_1185)">
<path d="M38.9989 37.6853H38.8506C38.8229 37.6853 38.801 37.7089 38.8039 37.7361C38.8086 37.7807 38.811 37.8259 38.811 37.8718C38.811 39.5757 38.815 39.773 38.8045 39.8721C38.8015 39.8996 38.8233 39.9235 38.8512 39.9235H38.9989C39.3101 39.9235 39.5625 39.673 39.5625 39.364V38.2449C39.5625 37.9358 39.3101 37.6853 38.9989 37.6853Z" fill="#A9CFFF"/>
</g>
<g filter="url(#filter12_f_1_1185)">
<path d="M38.8109 40.3435V40.7631C38.8109 41.4326 38.2642 41.9754 37.5897 41.9754H36.9083C36.8192 41.6333 36.4909 41.3853 36.112 41.4189C35.748 41.4512 35.4565 41.7467 35.431 42.1086C35.4002 42.5439 35.7485 42.908 36.1806 42.908C36.53 42.908 36.8246 42.6699 36.9083 42.3485H37.5897C38.4717 42.3485 39.1867 41.6387 39.1867 40.7631V40.3335C39.1867 40.3052 39.1615 40.2833 39.1333 40.2873C39.0531 40.2988 38.9847 40.2973 38.8582 40.2969C38.8322 40.2968 38.8109 40.3177 38.8109 40.3435Z" fill="#A9CFFF"/>
</g>
<g filter="url(#filter13_biii_1_1185)">
<path d="M32.2348 35.9448H31.8591C31.341 35.9448 30.9196 36.3631 30.9196 36.8774V38.7426C30.9196 39.257 31.341 39.6752 31.8591 39.6752H32.2348C32.5455 39.6752 32.7985 39.4241 32.7985 39.1157V36.5044C32.7985 36.1959 32.5455 35.9448 32.2348 35.9448Z" fill="white" fill-opacity="0.2"/>
</g>
<g filter="url(#filter14_bii_1_1185)">
<path d="M30.5039 36.6909H30.3562C30.045 36.6909 29.7926 36.9414 29.7926 37.2505V38.3696C29.7926 38.6786 30.045 38.9292 30.3562 38.9292H30.5045C30.5322 38.9292 30.5541 38.9056 30.5512 38.8783C30.5465 38.8338 30.5441 38.7885 30.5441 38.7426C30.5441 37.0388 30.5401 36.8414 30.5506 36.7423C30.5536 36.7148 30.5318 36.6909 30.5039 36.6909Z" fill="white" fill-opacity="0.2"/>
</g>
<g filter="url(#filter15_biii_1_1185)">
<path d="M34.675 29.9761C31.9895 29.9775 29.7926 32.2016 29.7926 34.8675V35.0121C29.7926 35.2552 29.9497 35.4625 30.1684 35.5396V36.2811C30.1684 36.3093 30.1936 36.3312 30.2217 36.3272C30.302 36.3157 30.3713 36.3172 30.4969 36.3177C30.5229 36.3178 30.5441 36.2968 30.5441 36.271V35.5717H30.732C31.0433 35.5717 31.2957 35.3212 31.2957 35.0121V34.8581C31.2957 33.0023 32.7985 31.4735 34.6678 31.4682C36.537 31.463 38.0594 32.9712 38.0594 34.8256V35.0121C38.0594 35.3212 38.3117 35.5717 38.623 35.5717H38.8109V36.271C38.8109 36.2968 38.8322 36.3178 38.8582 36.3176C38.978 36.3172 39.0513 36.3157 39.1334 36.3273C39.1616 36.3312 39.1867 36.3093 39.1867 36.2811V35.5395C39.4053 35.4625 39.5624 35.2552 39.5624 35.0121V34.8256C39.5624 32.1508 37.3696 29.9747 34.675 29.9761Z" fill="white" fill-opacity="0.2"/>
</g>
<g filter="url(#filter16_biii_1_1185)">
<path d="M37.1198 39.6752H37.4955C38.0136 39.6752 38.4349 39.257 38.4349 38.7426V36.8774C38.4349 36.3631 38.0136 35.9448 37.4955 35.9448H37.1198C36.8091 35.9448 36.5561 36.1959 36.5561 36.5044V39.1157C36.5561 39.4241 36.8091 39.6752 37.1198 39.6752Z" fill="white" fill-opacity="0.2"/>
</g>
<g filter="url(#filter17_bii_1_1185)">
<path d="M38.9989 36.6909H38.8506C38.8229 36.6909 38.801 36.7145 38.8039 36.7417C38.8086 36.7863 38.811 36.8316 38.811 36.8774C38.811 38.5813 38.815 38.7787 38.8045 38.8777C38.8015 38.9053 38.8233 38.9292 38.8512 38.9292H38.9989C39.3101 38.9292 39.5625 38.6786 39.5625 38.3696V37.2505C39.5625 36.9414 39.3101 36.6909 38.9989 36.6909Z" fill="white" fill-opacity="0.2"/>
</g>
<rect x="13.9234" y="40.2783" width="2.98358" height="3.48084" stroke="#050121" stroke-width="0.994528" stroke-dasharray="1.99 1.99"/>
</g>
<defs>
<filter id="filter0_f_1_1185" x="44.0408" y="31.7072" width="14.9179" height="16.9069" filterUnits="userSpaceOnUse" color-interpolation-filters="sRGB">
<feFlood flood-opacity="0" result="BackgroundImageFix"/>
<feBlend mode="normal" in="SourceGraphic" in2="BackgroundImageFix" result="shape"/>
<feGaussianBlur stdDeviation="1.98905" result="effect1_foregroundBlur_1_1185"/>
</filter>
<filter id="filter1_f_1_1185" x="41.1192" y="33.7491" width="14.9894" height="17.7513" filterUnits="userSpaceOnUse" color-interpolation-filters="sRGB">
<feFlood flood-opacity="0" result="BackgroundImageFix"/>
<feBlend mode="normal" in="SourceGraphic" in2="BackgroundImageFix" result="shape"/>
<feGaussianBlur stdDeviation="1.49179" result="effect1_foregroundBlur_1_1185"/>
</filter>
<filter id="filter2_f_1_1185" x="49.0092" y="36.867" width="5.21766" height="5.47988" filterUnits="userSpaceOnUse" color-interpolation-filters="sRGB">
<feFlood flood-opacity="0" result="BackgroundImageFix"/>
<feBlend mode="normal" in="SourceGraphic" in2="BackgroundImageFix" result="shape"/>
<feGaussianBlur stdDeviation="0.248632" result="effect1_foregroundBlur_1_1185"/>
</filter>
<filter id="filter3_f_1_1185" x="28.1341" y="21.479" width="13.3211" height="16.0467" filterUnits="userSpaceOnUse" color-interpolation-filters="sRGB">
<feFlood flood-opacity="0" result="BackgroundImageFix"/>
<feBlend mode="normal" in="SourceGraphic" in2="BackgroundImageFix" result="shape"/>
<feGaussianBlur stdDeviation="0.591202" result="effect1_foregroundBlur_1_1185"/>
</filter>
<filter id="filter4_f_1_1185" x="29.8895" y="21.4798" width="10.1326" height="14.4518" filterUnits="userSpaceOnUse" color-interpolation-filters="sRGB">
<feFlood flood-opacity="0" result="BackgroundImageFix"/>
<feBlend mode="normal" in="SourceGraphic" in2="BackgroundImageFix" result="shape"/>
<feGaussianBlur stdDeviation="0.985337" result="effect1_foregroundBlur_1_1185"/>
</filter>
<filter id="filter5_f_1_1185" x="33.4286" y="24.1771" width="4.1218" height="7.74475" filterUnits="userSpaceOnUse" color-interpolation-filters="sRGB">
<feFlood flood-opacity="0" result="BackgroundImageFix"/>
<feBlend mode="normal" in="SourceGraphic" in2="BackgroundImageFix" result="shape"/>
<feGaussianBlur stdDeviation="0.394135" result="effect1_foregroundBlur_1_1185"/>
</filter>
<filter id="filter6_biiii_1_1185" x="13.6402" y="19.7907" width="36.3003" height="24.3658" filterUnits="userSpaceOnUse" color-interpolation-filters="sRGB">
<feFlood flood-opacity="0" result="BackgroundImageFix"/>
<feGaussianBlur in="BackgroundImageFix" stdDeviation="0.994528"/>
<feComposite in2="SourceAlpha" operator="in" result="effect1_backgroundBlur_1_1185"/>
<feBlend mode="normal" in="SourceGraphic" in2="effect1_backgroundBlur_1_1185" result="shape"/>
<feColorMatrix in="SourceAlpha" type="matrix" values="0 0 0 0 0 0 0 0 0 0 0 0 0 0 0 0 0 0 127 0" result="hardAlpha"/>
<feOffset dy="0.497264"/>
<feGaussianBlur stdDeviation="0.994528"/>
<feComposite in2="hardAlpha" operator="arithmetic" k2="-1" k3="1"/>
<feColorMatrix type="matrix" values="0 0 0 0 1 0 0 0 0 1 0 0 0 0 1 0 0 0 0.3 0"/>
<feBlend mode="normal" in2="shape" result="effect2_innerShadow_1_1185"/>
<feColorMatrix in="SourceAlpha" type="matrix" values="0 0 0 0 0 0 0 0 0 0 0 0 0 0 0 0 0 0 127 0" result="hardAlpha"/>
<feOffset dy="-0.497264"/>
<feGaussianBlur stdDeviation="0.994528"/>
<feComposite in2="hardAlpha" operator="arithmetic" k2="-1" k3="1"/>
<feColorMatrix type="matrix" values="0 0 0 0 1 0 0 0 0 1 0 0 0 0 1 0 0 0 0.5 0"/>
<feBlend mode="normal" in2="effect2_innerShadow_1_1185" result="effect3_innerShadow_1_1185"/>
<feColorMatrix in="SourceAlpha" type="matrix" values="0 0 0 0 0 0 0 0 0 0 0 0 0 0 0 0 0 0 127 0" result="hardAlpha"/>
<feOffset dy="0.497264"/>
<feGaussianBlur stdDeviation="10.9398"/>
<feComposite in2="hardAlpha" operator="arithmetic" k2="-1" k3="1"/>
<feColorMatrix type="matrix" values="0 0 0 0 1 0 0 0 0 1 0 0 0 0 1 0 0 0 0.45 0"/>
<feBlend mode="normal" in2="effect3_innerShadow_1_1185" result="effect4_innerShadow_1_1185"/>
<feColorMatrix in="SourceAlpha" type="matrix" values="0 0 0 0 0 0 0 0 0 0 0 0 0 0 0 0 0 0 127 0" result="hardAlpha"/>
<feOffset dx="0.497264" dy="0.497264"/>
<feGaussianBlur stdDeviation="0.497264"/>
<feComposite in2="hardAlpha" operator="arithmetic" k2="-1" k3="1"/>
<feColorMatrix type="matrix" values="0 0 0 0 1 0 0 0 0 1 0 0 0 0 1 0 0 0 1 0"/>
<feBlend mode="normal" in2="effect4_innerShadow_1_1185" result="effect5_innerShadow_1_1185"/>
</filter>
<filter id="filter7_f_1_1185" x="28.9306" y="34.9504" width="5.85693" height="7.70858" filterUnits="userSpaceOnUse" color-interpolation-filters="sRGB">
<feFlood flood-opacity="0" result="BackgroundImageFix"/>
<feBlend mode="normal" in="SourceGraphic" in2="BackgroundImageFix" result="shape"/>
<feGaussianBlur stdDeviation="0.994528" result="effect1_foregroundBlur_1_1185"/>
</filter>
<filter id="filter8_f_1_1185" x="27.8035" y="35.6962" width="4.73699" height="6.21639" filterUnits="userSpaceOnUse" color-interpolation-filters="sRGB">
<feFlood flood-opacity="0" result="BackgroundImageFix"/>
<feBlend mode="normal" in="SourceGraphic" in2="BackgroundImageFix" result="shape"/>
<feGaussianBlur stdDeviation="0.994528" result="effect1_foregroundBlur_1_1185"/>
</filter>
<filter id="filter9_f_1_1185" x="27.8035" y="28.9816" width="13.7479" height="10.3297" filterUnits="userSpaceOnUse" color-interpolation-filters="sRGB">
<feFlood flood-opacity="0" result="BackgroundImageFix"/>
<feBlend mode="normal" in="SourceGraphic" in2="BackgroundImageFix" result="shape"/>
<feGaussianBlur stdDeviation="0.994528" result="effect1_foregroundBlur_1_1185"/>
</filter>
<filter id="filter10_f_1_1185" x="34.5671" y="34.9504" width="5.85693" height="7.70858" filterUnits="userSpaceOnUse" color-interpolation-filters="sRGB">
<feFlood flood-opacity="0" result="BackgroundImageFix"/>
<feBlend mode="normal" in="SourceGraphic" in2="BackgroundImageFix" result="shape"/>
<feGaussianBlur stdDeviation="0.994528" result="effect1_foregroundBlur_1_1185"/>
</filter>
<filter id="filter11_f_1_1185" x="36.8146" y="35.6962" width="4.73699" height="6.21639" filterUnits="userSpaceOnUse" color-interpolation-filters="sRGB">
<feFlood flood-opacity="0" result="BackgroundImageFix"/>
<feBlend mode="normal" in="SourceGraphic" in2="BackgroundImageFix" result="shape"/>
<feGaussianBlur stdDeviation="0.994528" result="effect1_foregroundBlur_1_1185"/>
</filter>
<filter id="filter12_f_1_1185" x="33.44" y="38.2978" width="7.73574" height="6.59921" filterUnits="userSpaceOnUse" color-interpolation-filters="sRGB">
<feFlood flood-opacity="0" result="BackgroundImageFix"/>
<feBlend mode="normal" in="SourceGraphic" in2="BackgroundImageFix" result="shape"/>
<feGaussianBlur stdDeviation="0.994528" result="effect1_foregroundBlur_1_1185"/>
</filter>
<filter id="filter13_biii_1_1185" x="28.9306" y="33.9558" width="5.85693" height="7.70858" filterUnits="userSpaceOnUse" color-interpolation-filters="sRGB">
<feFlood flood-opacity="0" result="BackgroundImageFix"/>
<feGaussianBlur in="BackgroundImageFix" stdDeviation="0.994528"/>
<feComposite in2="SourceAlpha" operator="in" result="effect1_backgroundBlur_1_1185"/>
<feBlend mode="normal" in="SourceGraphic" in2="effect1_backgroundBlur_1_1185" result="shape"/>
<feColorMatrix in="SourceAlpha" type="matrix" values="0 0 0 0 0 0 0 0 0 0 0 0 0 0 0 0 0 0 127 0" result="hardAlpha"/>
<feOffset dy="0.497264"/>
<feGaussianBlur stdDeviation="0.994528"/>
<feComposite in2="hardAlpha" operator="arithmetic" k2="-1" k3="1"/>
<feColorMatrix type="matrix" values="0 0 0 0 1 0 0 0 0 1 0 0 0 0 1 0 0 0 0.3 0"/>
<feBlend mode="normal" in2="shape" result="effect2_innerShadow_1_1185"/>
<feColorMatrix in="SourceAlpha" type="matrix" values="0 0 0 0 0 0 0 0 0 0 0 0 0 0 0 0 0 0 127 0" result="hardAlpha"/>
<feOffset dy="-0.497264"/>
<feGaussianBlur stdDeviation="0.994528"/>
<feComposite in2="hardAlpha" operator="arithmetic" k2="-1" k3="1"/>
<feColorMatrix type="matrix" values="0 0 0 0 1 0 0 0 0 1 0 0 0 0 1 0 0 0 0.5 0"/>
<feBlend mode="normal" in2="effect2_innerShadow_1_1185" result="effect3_innerShadow_1_1185"/>
<feColorMatrix in="SourceAlpha" type="matrix" values="0 0 0 0 0 0 0 0 0 0 0 0 0 0 0 0 0 0 127 0" result="hardAlpha"/>
<feOffset dy="-0.497264"/>
<feGaussianBlur stdDeviation="0.248632"/>
<feComposite in2="hardAlpha" operator="arithmetic" k2="-1" k3="1"/>
<feColorMatrix type="matrix" values="0 0 0 0 1 0 0 0 0 1 0 0 0 0 1 0 0 0 0.9 0"/>
<feBlend mode="normal" in2="effect3_innerShadow_1_1185" result="effect4_innerShadow_1_1185"/>
</filter>
<filter id="filter14_bii_1_1185" x="27.8035" y="34.7019" width="4.73699" height="6.21639" filterUnits="userSpaceOnUse" color-interpolation-filters="sRGB">
<feFlood flood-opacity="0" result="BackgroundImageFix"/>
<feGaussianBlur in="BackgroundImageFix" stdDeviation="0.994528"/>
<feComposite in2="SourceAlpha" operator="in" result="effect1_backgroundBlur_1_1185"/>
<feBlend mode="normal" in="SourceGraphic" in2="effect1_backgroundBlur_1_1185" result="shape"/>
<feColorMatrix in="SourceAlpha" type="matrix" values="0 0 0 0 0 0 0 0 0 0 0 0 0 0 0 0 0 0 127 0" result="hardAlpha"/>
<feOffset dy="-0.497264"/>
<feGaussianBlur stdDeviation="0.994528"/>
<feComposite in2="hardAlpha" operator="arithmetic" k2="-1" k3="1"/>
<feColorMatrix type="matrix" values="0 0 0 0 1 0 0 0 0 1 0 0 0 0 1 0 0 0 0.5 0"/>
<feBlend mode="normal" in2="shape" result="effect2_innerShadow_1_1185"/>
<feColorMatrix in="SourceAlpha" type="matrix" values="0 0 0 0 0 0 0 0 0 0 0 0 0 0 0 0 0 0 127 0" result="hardAlpha"/>
<feOffset dy="-0.497264"/>
<feComposite in2="hardAlpha" operator="arithmetic" k2="-1" k3="1"/>
<feColorMatrix type="matrix" values="0 0 0 0 1 0 0 0 0 1 0 0 0 0 1 0 0 0 0.6 0"/>
<feBlend mode="normal" in2="effect2_innerShadow_1_1185" result="effect3_innerShadow_1_1185"/>
</filter>
<filter id="filter15_biii_1_1185" x="27.8035" y="27.987" width="13.7479" height="10.3297" filterUnits="userSpaceOnUse" color-interpolation-filters="sRGB">
<feFlood flood-opacity="0" result="BackgroundImageFix"/>
<feGaussianBlur in="BackgroundImageFix" stdDeviation="0.994528"/>
<feComposite in2="SourceAlpha" operator="in" result="effect1_backgroundBlur_1_1185"/>
<feBlend mode="normal" in="SourceGraphic" in2="effect1_backgroundBlur_1_1185" result="shape"/>
<feColorMatrix in="SourceAlpha" type="matrix" values="0 0 0 0 0 0 0 0 0 0 0 0 0 0 0 0 0 0 127 0" result="hardAlpha"/>
<feOffset dy="0.497264"/>
<feGaussianBlur stdDeviation="0.994528"/>
<feComposite in2="hardAlpha" operator="arithmetic" k2="-1" k3="1"/>
<feColorMatrix type="matrix" values="0 0 0 0 1 0 0 0 0 1 0 0 0 0 1 0 0 0 0.3 0"/>
<feBlend mode="normal" in2="shape" result="effect2_innerShadow_1_1185"/>
<feColorMatrix in="SourceAlpha" type="matrix" values="0 0 0 0 0 0 0 0 0 0 0 0 0 0 0 0 0 0 127 0" result="hardAlpha"/>
<feOffset dy="-0.497264"/>
<feGaussianBlur stdDeviation="0.994528"/>
<feComposite in2="hardAlpha" operator="arithmetic" k2="-1" k3="1"/>
<feColorMatrix type="matrix" values="0 0 0 0 1 0 0 0 0 1 0 0 0 0 1 0 0 0 0.5 0"/>
<feBlend mode="normal" in2="effect2_innerShadow_1_1185" result="effect3_innerShadow_1_1185"/>
<feColorMatrix in="SourceAlpha" type="matrix" values="0 0 0 0 0 0 0 0 0 0 0 0 0 0 0 0 0 0 127 0" result="hardAlpha"/>
<feOffset dy="0.497264"/>
<feGaussianBlur stdDeviation="0.248632"/>
<feComposite in2="hardAlpha" operator="arithmetic" k2="-1" k3="1"/>
<feColorMatrix type="matrix" values="0 0 0 0 1 0 0 0 0 1 0 0 0 0 1 0 0 0 0.95 0"/>
<feBlend mode="normal" in2="effect3_innerShadow_1_1185" result="effect4_innerShadow_1_1185"/>
</filter>
<filter id="filter16_biii_1_1185" x="34.5671" y="33.9558" width="5.85693" height="7.70858" filterUnits="userSpaceOnUse" color-interpolation-filters="sRGB">
<feFlood flood-opacity="0" result="BackgroundImageFix"/>
<feGaussianBlur in="BackgroundImageFix" stdDeviation="0.994528"/>
<feComposite in2="SourceAlpha" operator="in" result="effect1_backgroundBlur_1_1185"/>
<feBlend mode="normal" in="SourceGraphic" in2="effect1_backgroundBlur_1_1185" result="shape"/>
<feColorMatrix in="SourceAlpha" type="matrix" values="0 0 0 0 0 0 0 0 0 0 0 0 0 0 0 0 0 0 127 0" result="hardAlpha"/>
<feOffset dy="0.497264"/>
<feGaussianBlur stdDeviation="0.994528"/>
<feComposite in2="hardAlpha" operator="arithmetic" k2="-1" k3="1"/>
<feColorMatrix type="matrix" values="0 0 0 0 1 0 0 0 0 1 0 0 0 0 1 0 0 0 0.3 0"/>
<feBlend mode="normal" in2="shape" result="effect2_innerShadow_1_1185"/>
<feColorMatrix in="SourceAlpha" type="matrix" values="0 0 0 0 0 0 0 0 0 0 0 0 0 0 0 0 0 0 127 0" result="hardAlpha"/>
<feOffset dy="-0.497264"/>
<feGaussianBlur stdDeviation="0.994528"/>
<feComposite in2="hardAlpha" operator="arithmetic" k2="-1" k3="1"/>
<feColorMatrix type="matrix" values="0 0 0 0 1 0 0 0 0 1 0 0 0 0 1 0 0 0 0.5 0"/>
<feBlend mode="normal" in2="effect2_innerShadow_1_1185" result="effect3_innerShadow_1_1185"/>
<feColorMatrix in="SourceAlpha" type="matrix" values="0 0 0 0 0 0 0 0 0 0 0 0 0 0 0 0 0 0 127 0" result="hardAlpha"/>
<feOffset dy="-0.497264"/>
<feGaussianBlur stdDeviation="0.248632"/>
<feComposite in2="hardAlpha" operator="arithmetic" k2="-1" k3="1"/>
<feColorMatrix type="matrix" values="0 0 0 0 1 0 0 0 0 1 0 0 0 0 1 0 0 0 0.9 0"/>
<feBlend mode="normal" in2="effect3_innerShadow_1_1185" result="effect4_innerShadow_1_1185"/>
</filter>
<filter id="filter17_bii_1_1185" x="36.8146" y="34.7019" width="4.73699" height="6.21639" filterUnits="userSpaceOnUse" color-interpolation-filters="sRGB">
<feFlood flood-opacity="0" result="BackgroundImageFix"/>
<feGaussianBlur in="BackgroundImageFix" stdDeviation="0.994528"/>
<feComposite in2="SourceAlpha" operator="in" result="effect1_backgroundBlur_1_1185"/>
<feBlend mode="normal" in="SourceGraphic" in2="effect1_backgroundBlur_1_1185" result="shape"/>
<feColorMatrix in="SourceAlpha" type="matrix" values="0 0 0 0 0 0 0 0 0 0 0 0 0 0 0 0 0 0 127 0" result="hardAlpha"/>
<feOffset dy="-0.497264"/>
<feGaussianBlur stdDeviation="0.994528"/>
<feComposite in2="hardAlpha" operator="arithmetic" k2="-1" k3="1"/>
<feColorMatrix type="matrix" values="0 0 0 0 1 0 0 0 0 1 0 0 0 0 1 0 0 0 0.5 0"/>
<feBlend mode="normal" in2="shape" result="effect2_innerShadow_1_1185"/>
<feColorMatrix in="SourceAlpha" type="matrix" values="0 0 0 0 0 0 0 0 0 0 0 0 0 0 0 0 0 0 127 0" result="hardAlpha"/>
<feOffset dy="-0.497264"/>
<feComposite in2="hardAlpha" operator="arithmetic" k2="-1" k3="1"/>
<feColorMatrix type="matrix" values="0 0 0 0 1 0 0 0 0 1 0 0 0 0 1 0 0 0 0.6 0"/>
<feBlend mode="normal" in2="effect2_innerShadow_1_1185" result="effect3_innerShadow_1_1185"/>
</filter>
<linearGradient id="paint0_linear_1_1185" x1="56.3049" y1="36.7978" x2="44.0652" y2="44.0909" gradientUnits="userSpaceOnUse">
<stop offset="0.0941878" stop-color="#FFE5DC"/>
<stop offset="0.230705" stop-color="#FFFFE7" stop-opacity="0"/>
</linearGradient>
<linearGradient id="paint1_linear_1_1185" x1="53.3206" y1="40.4411" x2="43.5857" y2="38.7993" gradientUnits="userSpaceOnUse">
<stop stop-color="#FFFFE6"/>
<stop offset="0.360807" stop-color="#D5FFFF"/>
<stop offset="0.977083" stop-color="#D5FFFF" stop-opacity="0"/>
</linearGradient>
<linearGradient id="paint2_linear_1_1185" x1="53.6879" y1="42.0041" x2="44.1609" y2="47.7365" gradientUnits="userSpaceOnUse">
<stop offset="0.0153056" stop-color="#D4FFE7"/>
<stop offset="0.312156" stop-color="#D5FFFF" stop-opacity="0"/>
</linearGradient>
<linearGradient id="paint3_linear_1_1185" x1="29.9601" y1="31.825" x2="29.9601" y2="36.7976" gradientUnits="userSpaceOnUse">
<stop offset="0.60706" stop-color="#FFE2D9"/>
<stop offset="1" stop-color="#E4EBFF"/>
</linearGradient>
<clipPath id="clip0_1_1185">
<rect width="56.8284" height="56.6939" fill="white"/>
</clipPath>
</defs>
</svg>
