<svg width="57" height="58" viewBox="0 0 57 58" fill="none" xmlns="http://www.w3.org/2000/svg">
<path d="M18.9565 24.807L18.7569 26.1236C18.7352 26.2667 18.796 26.4099 18.9135 26.4924C19.0312 26.5752 19.185 26.5825 19.3096 26.512L20.4016 25.8946L21.5087 26.4816C21.7813 26.6282 22.1075 26.3857 22.051 26.0787L21.819 24.7736L22.7279 23.6666C22.9303 23.4228 22.7543 23.0435 22.44 23.0452H21.2423L20.689 21.9004C20.6256 21.7691 20.4929 21.6864 20.3488 21.688C20.2044 21.6896 20.0737 21.775 20.013 21.9076L19.4918 23.0452H18.3052C18.1599 23.0452 18.0277 23.1303 17.9661 23.2636C17.9044 23.3968 17.9245 23.5541 18.0176 23.667L18.9565 24.807Z" fill="#F84031"/>
<path d="M20.2427 27.7108C20.2427 27.3805 19.9733 27.1118 19.6423 27.1118H16.2189C15.8878 27.1118 15.6185 27.3805 15.6185 27.7108V34.9754H20.2427V27.7108H20.2427Z" fill="#2329D6"/>
<path d="M25.3217 31.0657H21.1792V34.9753H25.3217C25.6527 34.9753 25.9221 34.7066 25.9221 34.3764V31.6647C25.9221 31.3344 25.6527 31.0657 25.3217 31.0657Z" fill="#2329D6"/>
<path d="M14.6819 34.9754V29.9846H10.5394C10.2083 29.9846 9.93898 30.2533 9.93898 30.5836V34.3764C9.93898 34.7067 10.2083 34.9754 10.5394 34.9754H14.6819Z" fill="#2329D6"/>
<path d="M16.1597 22.8741L15.9102 24.4966C15.883 24.673 15.959 24.8494 16.1059 24.9512C16.2531 25.0532 16.4454 25.0622 16.6013 24.9753L17.9668 24.2144L19.3513 24.9378C19.6921 25.1186 20.1001 24.8197 20.0294 24.4413L19.7393 22.833L20.8759 21.4687C21.1289 21.1683 20.9089 20.7008 20.5158 20.7029H19.0181L18.3263 19.2921C18.247 19.1303 18.081 19.0283 17.9008 19.0303C17.7202 19.0322 17.5568 19.1375 17.4808 19.3009L16.8292 20.7029H15.3453C15.1636 20.7029 14.9983 20.8078 14.9212 20.972C14.8441 21.1362 14.8693 21.33 14.9856 21.4692L16.1597 22.8741Z" fill="#2329D6"/>
<rect x="34.3574" y="31.875" width="3.99575" height="3.98629" fill="#ED392D"/>
<g filter="url(#filter0_f_1_1364)">
<path d="M29.7002 39.9941C29.9537 39.1753 31.9468 35.1158 33.4887 32.0227C34.464 30.0663 36.9212 29.4014 38.7588 30.5856C40.6045 31.7751 41.0073 34.3032 39.6041 35.9922C37.5316 38.4871 34.8598 41.6412 34.0884 42.2682C32.7755 43.3354 31.1409 43.9534 30.3127 43.5595C29.4846 43.1656 29.2799 41.3516 29.7002 39.9941Z" fill="#FFE4DB"/>
</g>
<g filter="url(#filter1_f_1_1364)">
<path d="M32.0886 33.8147C31.7972 32.4648 32.6552 31.1343 34.005 30.8429C35.3548 30.5515 36.6853 31.4094 36.9767 32.7593L38.1661 38.2681C38.4576 39.6179 37.5996 40.9484 36.2498 41.2398C34.9 41.5313 33.5695 40.6733 33.278 39.3235L32.0886 33.8147Z" fill="#C5EDFE"/>
</g>
<g filter="url(#filter2_f_1_1364)">
<path d="M34.3915 33.5153C34.347 32.8908 34.8172 32.3485 35.4417 32.304C36.0663 32.2595 36.6086 32.7297 36.6531 33.3543L36.9309 37.255C36.9753 37.8795 36.5051 38.4218 35.8806 38.4663C35.2561 38.5108 34.7137 38.0406 34.6692 37.416L34.3915 33.5153Z" fill="#D4FFFF"/>
</g>
<g filter="url(#filter3_biiii_1_1364)">
<ellipse cx="28.5858" cy="29.2177" rx="11.9872" ry="11.9589" fill="white" fill-opacity="0.2"/>
</g>
<g filter="url(#filter4_f_1_1364)">
<path d="M36.3889 41.3094H34.29V40.5069C35.1581 40.4132 35.9949 39.9957 36.7311 39.2853C38.3027 37.7675 39.2411 35.1382 39.2411 32.2517C39.2411 32.0439 39.0723 31.8752 38.8644 31.8752H37.0895C36.8818 31.8752 36.7129 32.0439 36.7129 32.2517V32.7591H31.1141V32.2515C31.1141 32.0438 30.9451 31.875 30.7374 31.875H28.9626C28.7546 31.875 28.5858 32.0438 28.5858 32.2515C28.5858 35.1382 29.5242 37.7674 31.0957 39.2849C31.831 39.995 32.6682 40.4128 33.5363 40.5065V41.3091H31.4374C31.2297 41.3091 31.0608 41.4779 31.0608 41.6856C31.0608 41.8936 31.2297 42.0622 31.4374 42.0622H36.3885C36.597 42.0622 36.7652 41.8936 36.7652 41.6856C36.7652 41.4779 36.5974 41.3094 36.3889 41.3094ZM37.4662 32.628H38.4815C38.4051 35.0671 37.5903 37.3299 36.3102 38.6411C36.3181 38.6268 36.3243 38.6108 36.3318 38.5963C36.4102 38.4459 36.4848 38.2896 36.5561 38.1256C36.5685 38.0964 36.5805 38.0661 36.5931 38.0366C36.6619 37.8726 36.7277 37.704 36.7888 37.5283C36.7934 37.5154 36.7983 37.5027 36.8026 37.4898C36.8659 37.3063 36.9239 37.1154 36.9784 36.9205C36.9892 36.8821 37 36.8442 37.0101 36.8054C37.0623 36.6129 37.1098 36.4158 37.1528 36.214C37.1608 36.1771 37.1682 36.14 37.1756 36.103C37.2182 35.8967 37.257 35.6869 37.2905 35.4724C37.2918 35.4645 37.2934 35.457 37.2942 35.449C37.3282 35.2298 37.3551 35.0056 37.3792 34.7789C37.3839 34.7362 37.3885 34.6941 37.3929 34.6512C37.4139 34.4304 37.4311 34.2066 37.4429 33.98C37.4455 33.9376 37.4469 33.895 37.4488 33.8526C37.4593 33.6155 37.4662 33.3769 37.4662 33.1352V32.628H37.4662ZM29.3452 32.628H30.3605V33.1354C30.3605 33.377 30.3674 33.6156 30.3781 33.8527C30.3802 33.8952 30.3817 33.9378 30.384 33.9802C30.3958 34.2067 30.4126 34.4306 30.4341 34.6514C30.4379 34.6943 30.443 34.7364 30.4473 34.7789C30.4715 35.0058 30.4989 35.2299 30.5327 35.4492C30.5338 35.4571 30.5353 35.4643 30.5366 35.4722C30.5699 35.6875 30.6088 35.8972 30.6514 36.1038C30.6588 36.1403 30.6657 36.1773 30.6735 36.2133C30.7173 36.4159 30.7648 36.6136 30.8168 36.8063C30.8272 36.8444 30.8374 36.8816 30.8484 36.919C30.9032 37.1148 30.9611 37.3065 31.0244 37.4905C31.0283 37.5023 31.0328 37.5132 31.0372 37.5249C31.0989 37.7027 31.1652 37.8734 31.2349 38.0389C31.2466 38.0671 31.2579 38.0961 31.2701 38.1236C31.3418 38.2886 31.4174 38.4466 31.4963 38.598C31.5032 38.6114 31.5095 38.627 31.5164 38.6402C30.2358 37.3297 29.4217 35.067 29.3452 32.628Z" fill="#A9CFFF"/>
</g>
<path d="M34.1331 39.4048C34.6395 39.3567 35.1277 39.1425 35.5571 38.778C36.4738 37.9992 37.0213 36.65 37.0213 35.1689C37.0213 35.0623 36.9228 34.9757 36.8015 34.9757H35.7661C35.645 34.9757 35.5465 35.0623 35.5465 35.1689V35.4292H32.2805V35.1688C32.2805 35.0622 32.1819 34.9756 32.0607 34.9756H31.0254C30.9041 34.9756 30.8057 35.0622 30.8057 35.1688C30.8057 36.65 31.3531 37.9991 32.2698 38.7777C32.6987 39.1421 33.1871 39.3565 33.6935 39.4046C33.6935 39.4046 34.0681 39.4046 34.1331 39.4048ZM35.9859 35.362H36.5782C36.5336 36.6135 36.0583 37.7746 35.3116 38.4474C35.3161 38.4401 35.3198 38.4319 35.3242 38.4244C35.3699 38.3473 35.4134 38.2671 35.455 38.1829C35.4622 38.1679 35.4692 38.1524 35.4766 38.1372C35.5167 38.0531 35.5551 37.9666 35.5908 37.8764C35.5934 37.8698 35.5963 37.8633 35.5988 37.8567C35.6357 37.7625 35.6695 37.6646 35.7013 37.5645C35.7076 37.5448 35.7139 37.5254 35.7199 37.5055C35.7503 37.4067 35.778 37.3056 35.8031 37.202C35.8077 37.1831 35.812 37.164 35.8164 37.145C35.8412 37.0392 35.8639 36.9316 35.8834 36.8215C35.8841 36.8174 35.8851 36.8136 35.8856 36.8095C35.9054 36.697 35.9211 36.582 35.9351 36.4657C35.9379 36.4438 35.9406 36.4221 35.9431 36.4001C35.9554 36.2868 35.9654 36.172 35.9723 36.0557C35.9738 36.0339 35.9746 36.0121 35.9758 35.9903C35.9819 35.8687 35.9859 35.7462 35.9859 35.6222L35.9859 35.362ZM31.2486 35.362H31.8409V35.6223C31.8409 35.7463 31.8449 35.8687 31.8512 35.9904C31.8524 36.0122 31.8532 36.034 31.8546 36.0558C31.8615 36.172 31.8713 36.2869 31.8838 36.4002C31.8861 36.4222 31.889 36.4439 31.8916 36.4657C31.9057 36.5821 31.9216 36.6971 31.9414 36.8096C31.942 36.8137 31.9429 36.8173 31.9436 36.8214C31.963 36.9319 31.9857 37.0395 32.0106 37.1455C32.0149 37.1642 32.0189 37.1832 32.0235 37.2017C32.049 37.3056 32.0767 37.407 32.1071 37.506C32.1131 37.5255 32.1191 37.5446 32.1255 37.5638C32.1575 37.6642 32.1913 37.7626 32.2282 37.857C32.2304 37.8631 32.2331 37.8687 32.2356 37.8747C32.2716 37.9659 32.3103 38.0535 32.351 38.1384C32.3578 38.1529 32.3644 38.1678 32.3715 38.1819C32.4134 38.2666 32.4574 38.3476 32.5034 38.4253C32.5074 38.4322 32.5112 38.4402 32.5152 38.447C31.7681 37.7745 31.2933 36.6135 31.2486 35.362Z" fill="#E9E74C"/>
<g filter="url(#filter5_bii_1_1364)">
<path d="M36.3889 42.1954H34.29V41.3929C35.1581 41.2991 35.9949 40.8816 36.7311 40.1713C38.3027 38.6535 39.2411 36.0242 39.2411 33.1377C39.2411 32.9299 39.0723 32.7612 38.8644 32.7612H37.0895C36.8818 32.7612 36.7129 32.9299 36.7129 33.1377V33.6451H31.1141V33.1375C31.1141 32.9298 30.9451 32.761 30.7374 32.761H28.9626C28.7546 32.761 28.5858 32.9298 28.5858 33.1375C28.5858 36.0242 29.5242 38.6534 31.0957 40.1708C31.831 40.881 32.6682 41.2988 33.5363 41.3925V42.1951H31.4374C31.2297 42.1951 31.0608 42.3639 31.0608 42.5716C31.0608 42.7796 31.2297 42.9482 31.4374 42.9482H36.3885C36.597 42.9482 36.7652 42.7796 36.7652 42.5716C36.7652 42.3639 36.5974 42.1954 36.3889 42.1954ZM37.4662 33.514H38.4815C38.4051 35.9531 37.5903 38.2159 36.3102 39.527C36.3181 39.5128 36.3243 39.4968 36.3318 39.4823C36.4102 39.3319 36.4848 39.1756 36.5561 39.0116C36.5685 38.9824 36.5805 38.9521 36.5931 38.9226C36.6619 38.7586 36.7277 38.59 36.7888 38.4143C36.7934 38.4013 36.7983 38.3887 36.8026 38.3758C36.8659 38.1923 36.9239 38.0014 36.9784 37.8065C36.9892 37.7681 37 37.7302 37.0101 37.6914C37.0623 37.4989 37.1098 37.3018 37.1528 37.0999C37.1608 37.0631 37.1682 37.026 37.1756 36.9889C37.2182 36.7827 37.257 36.5729 37.2905 36.3584C37.2918 36.3505 37.2934 36.343 37.2942 36.335C37.3282 36.1158 37.3551 35.8916 37.3792 35.6649C37.3839 35.6222 37.3885 35.5801 37.3929 35.5372C37.4139 35.3164 37.4311 35.0926 37.4429 34.866C37.4455 34.8236 37.4469 34.781 37.4488 34.7386C37.4593 34.5015 37.4662 34.2629 37.4662 34.0212V33.514H37.4662ZM29.3452 33.514H30.3605V34.0214C30.3605 34.263 30.3674 34.5016 30.3781 34.7387C30.3802 34.7812 30.3817 34.8238 30.384 34.8662C30.3958 35.0927 30.4126 35.3166 30.4341 35.5374C30.4379 35.5803 30.443 35.6224 30.4473 35.6649C30.4715 35.8918 30.4989 36.1159 30.5327 36.3352C30.5338 36.3431 30.5353 36.3503 30.5366 36.3582C30.5699 36.5735 30.6088 36.7832 30.6514 36.9898C30.6588 37.0263 30.6657 37.0632 30.6735 37.0993C30.7173 37.3018 30.7648 37.4995 30.8168 37.6923C30.8272 37.7304 30.8374 37.7676 30.8484 37.805C30.9032 38.0008 30.9611 38.1925 31.0244 38.3765C31.0283 38.3883 31.0328 38.3992 31.0372 38.4109C31.0989 38.5887 31.1652 38.7594 31.2349 38.9249C31.2466 38.9531 31.2579 38.9821 31.2701 39.0096C31.3418 39.1746 31.4174 39.3325 31.4963 39.484C31.5032 39.4974 31.5095 39.5129 31.5164 39.5262C30.2358 38.2157 29.4217 35.953 29.3452 33.514Z" fill="white" fill-opacity="0.2"/>
</g>
<g filter="url(#filter6_f_1_1364)">
<path d="M42.2233 17.162C42.2233 15.2396 43.7818 13.6812 45.7042 13.6812C47.6266 13.6812 49.185 15.2396 49.185 17.162V19.1511C49.185 21.0735 47.6266 22.6319 45.7042 22.6319C43.7818 22.6319 42.2233 21.0735 42.2233 19.1511V17.162Z" fill="#FFFFE7"/>
</g>
<path d="M43.5355 16.1302C44.1859 14.2933 46.2072 13.317 48.0503 13.9496C49.8934 14.5822 50.8603 16.5842 50.21 18.4211L49.2937 21.0092C49.1104 21.527 48.5406 21.8022 48.0211 21.6238L43.228 19.9787C42.7084 19.8004 42.4359 19.2361 42.6192 18.7183L43.5355 16.1302Z" fill="url(#paint0_linear_1_1364)"/>
<g filter="url(#filter7_f_1_1364)">
<path d="M39.3607 17.8115C39.9017 15.649 42.097 14.3196 44.2639 14.8422C46.4309 15.3648 47.749 17.5415 47.208 19.7039L46.2759 23.4299C45.7349 25.5924 43.5396 26.9217 41.3726 26.3991C39.2057 25.8765 37.8875 23.6999 38.4285 21.5374L39.3607 17.8115Z" fill="url(#paint1_linear_1_1364)"/>
</g>
<g style="mix-blend-mode:luminosity">
<path d="M40.1109 17.0947C41.1322 15.12 43.573 14.3234 45.5626 15.3154C47.5521 16.3074 48.337 18.7123 47.3157 20.6869L45.5261 24.1468C44.5048 26.1214 42.064 26.918 40.0744 25.9261C38.0848 24.9341 37.3 22.5292 38.3213 20.5545L40.1109 17.0947Z" fill="url(#paint2_linear_1_1364)"/>
</g>
<g filter="url(#filter8_f_1_1364)">
<path d="M44.2013 15.6878C44.7851 15.1938 45.6589 15.2665 46.153 15.8504L47.6066 17.568C48.1002 18.1513 48.0275 19.0243 47.4442 19.5179C46.9859 19.9058 46.3298 19.9538 45.8199 19.6368L44.4279 18.7713L43.8139 17.2689C43.587 16.7136 43.7434 16.0753 44.2013 15.6878Z" fill="white"/>
</g>
<path d="M23.0457 26.231H27.0238" stroke="white" stroke-width="0.994528" stroke-dasharray="1.99 1.99"/>
<path d="M27.0238 41.6462H31.0019" stroke="url(#paint3_linear_1_1364)" stroke-width="0.994528" stroke-dasharray="1.99 1.99"/>
<circle cx="44.8437" cy="37.5866" r="3.81112" transform="rotate(7.45291 44.8437 37.5866)" stroke="#050121" stroke-width="1.98906" stroke-dasharray="1.3 1.3"/>
<rect x="20.5594" y="40.6518" width="2.98358" height="3.48084" stroke="#050121" stroke-width="0.994528" stroke-dasharray="1.99 1.99"/>
<path d="M39.0649 18.7822C38.874 18.5874 38.6211 18.5875 38.2037 18.5874H38.1973C37.1213 18.5874 35.5399 19.072 34.4326 20.1546C34.4316 20.1556 34.4306 20.1566 34.4296 20.1576L34.2096 20.3781L31.3424 20.6782C30.7909 20.7359 30.3767 21.1981 30.379 21.7531C30.3798 21.9314 30.3804 22.2585 30.3804 22.2586C30.3807 22.4305 30.5075 22.576 30.678 22.6003C30.6888 22.6018 31.6871 22.7504 32.3205 23.3262L31.8638 24.4006C31.8091 24.5294 31.8375 24.6785 31.9359 24.7782L33.0105 25.8676C33.0771 25.9351 33.1666 25.9708 33.2577 25.9708C33.3059 25.9708 33.3545 25.9608 33.4003 25.9401L34.4447 25.4691C34.8546 25.9559 35.1518 26.8454 35.2392 27.1812C35.2776 27.3296 35.4094 27.4351 35.563 27.4403C35.5729 27.4407 35.726 27.4458 35.8904 27.4458C35.9843 27.4458 36.0817 27.4441 36.1582 27.439C36.6832 27.4034 37.1038 27.0001 37.1584 26.48L37.4581 23.6206C37.4591 23.6113 37.4594 23.6021 37.4596 23.593L37.6543 23.4012C37.6558 23.3998 37.657 23.3985 37.6584 23.3971C38.761 22.2747 39.2546 20.7111 39.2546 19.6594C39.2546 19.2331 39.2546 18.9757 39.0649 18.7822ZM31.0723 21.7503C31.0716 21.5773 31.189 21.3897 31.4148 21.3661L33.4344 21.1547L32.1932 22.3982C31.7732 22.1678 31.3472 22.0402 31.073 21.9749C31.0728 21.8954 31.0725 21.8136 31.0723 21.7503ZM33.3351 25.2105L32.5925 24.4578L32.8541 23.8425L33.9408 24.9373L33.3351 25.2105ZM36.4689 26.408C36.4459 26.6272 36.2674 26.7384 36.1113 26.7489C36.0398 26.7538 35.9354 26.7548 35.8361 26.754C35.7527 26.4892 35.5997 26.0571 35.3794 25.6416L36.6838 24.357L36.4689 26.408ZM37.1652 22.9111L35.0109 25.0326L32.7828 22.7877L34.9194 20.6472C35.8818 19.7071 37.293 19.2791 38.1973 19.2791H38.2037C38.3368 19.2793 38.472 19.2791 38.5526 19.2862C38.5613 19.3749 38.5613 19.5294 38.5613 19.6595C38.5613 20.5405 38.1244 21.9334 37.1652 22.9111ZM31.9319 25.8711C32.0685 26.0049 32.0704 26.2239 31.9363 26.3601L30.9743 27.3371C30.9065 27.4061 30.8167 27.4406 30.727 27.4406C30.6393 27.4406 30.5516 27.4076 30.4841 27.3415C30.3475 27.2076 30.3456 26.9887 30.4797 26.8524L31.4417 25.8755C31.5759 25.7392 31.7953 25.7373 31.9319 25.8711ZM30.4819 25.5756C30.3466 25.4405 30.3466 25.2216 30.4819 25.0865L30.7939 24.7753C30.9293 24.6402 31.1488 24.6402 31.2842 24.7753C31.4195 24.9104 31.4195 25.1293 31.2842 25.2644L30.9721 25.5756C30.9045 25.6431 30.8157 25.6769 30.727 25.6769C30.6383 25.6769 30.5496 25.6431 30.4819 25.5756ZM33.0521 26.539C33.1874 26.6741 33.1874 26.893 33.0521 27.0281L32.7401 27.3393C32.6724 27.4068 32.5837 27.4406 32.4949 27.4406C32.4062 27.4406 32.3175 27.4068 32.2498 27.3393C32.1145 27.2043 32.1145 26.9853 32.2498 26.8503L32.5618 26.539C32.6972 26.4039 32.9167 26.4039 33.0521 26.539ZM35.591 23.1237C35.7264 23.2587 35.7264 23.4777 35.591 23.6127C35.5233 23.6803 35.4346 23.714 35.3458 23.714C35.2572 23.714 35.1684 23.6803 35.1007 23.6127L34.2168 22.7309C34.0814 22.5959 34.0814 22.3769 34.2168 22.2418C34.3522 22.1067 34.5717 22.1067 34.707 22.2418L35.591 23.1237ZM37.3989 21.0195C37.5363 21.1526 37.5394 21.3716 37.406 21.5086C37.3381 21.5783 37.2477 21.6134 37.1574 21.6134C37.0703 21.6134 36.9832 21.5809 36.9158 21.5156L36.3092 20.9277C36.1719 20.7947 36.1687 20.5757 36.3021 20.4387C36.4355 20.3017 36.655 20.2985 36.7923 20.4316L37.3989 21.0195ZM36.5705 22.147C36.7059 22.282 36.7059 22.501 36.5705 22.6361C36.5029 22.7036 36.4141 22.7373 36.3254 22.7373C36.2367 22.7373 36.148 22.7036 36.0803 22.6361L35.1963 21.7542C35.061 21.6191 35.061 21.4001 35.1963 21.2651C35.3317 21.1301 35.5512 21.1301 35.6866 21.2651L36.5705 22.147Z" fill="#2329D6"/>
<defs>
<filter id="filter0_f_1_1364" x="28.3057" y="28.8147" width="13.3211" height="16.0467" filterUnits="userSpaceOnUse" color-interpolation-filters="sRGB">
<feFlood flood-opacity="0" result="BackgroundImageFix"/>
<feBlend mode="normal" in="SourceGraphic" in2="BackgroundImageFix" result="shape"/>
<feGaussianBlur stdDeviation="0.591202" result="effect1_foregroundBlur_1_1364"/>
</filter>
<filter id="filter1_f_1_1364" x="30.0611" y="28.8155" width="10.1326" height="14.4518" filterUnits="userSpaceOnUse" color-interpolation-filters="sRGB">
<feFlood flood-opacity="0" result="BackgroundImageFix"/>
<feBlend mode="normal" in="SourceGraphic" in2="BackgroundImageFix" result="shape"/>
<feGaussianBlur stdDeviation="0.985337" result="effect1_foregroundBlur_1_1364"/>
</filter>
<filter id="filter2_f_1_1364" x="33.6003" y="31.5128" width="4.12178" height="7.74475" filterUnits="userSpaceOnUse" color-interpolation-filters="sRGB">
<feFlood flood-opacity="0" result="BackgroundImageFix"/>
<feBlend mode="normal" in="SourceGraphic" in2="BackgroundImageFix" result="shape"/>
<feGaussianBlur stdDeviation="0.394135" result="effect1_foregroundBlur_1_1364"/>
</filter>
<filter id="filter3_biiii_1_1364" x="14.6095" y="15.2697" width="27.9526" height="27.8958" filterUnits="userSpaceOnUse" color-interpolation-filters="sRGB">
<feFlood flood-opacity="0" result="BackgroundImageFix"/>
<feGaussianBlur in="BackgroundImageFix" stdDeviation="0.994528"/>
<feComposite in2="SourceAlpha" operator="in" result="effect1_backgroundBlur_1_1364"/>
<feBlend mode="normal" in="SourceGraphic" in2="effect1_backgroundBlur_1_1364" result="shape"/>
<feColorMatrix in="SourceAlpha" type="matrix" values="0 0 0 0 0 0 0 0 0 0 0 0 0 0 0 0 0 0 127 0" result="hardAlpha"/>
<feOffset dy="0.497264"/>
<feGaussianBlur stdDeviation="0.994528"/>
<feComposite in2="hardAlpha" operator="arithmetic" k2="-1" k3="1"/>
<feColorMatrix type="matrix" values="0 0 0 0 1 0 0 0 0 1 0 0 0 0 1 0 0 0 0.3 0"/>
<feBlend mode="normal" in2="shape" result="effect2_innerShadow_1_1364"/>
<feColorMatrix in="SourceAlpha" type="matrix" values="0 0 0 0 0 0 0 0 0 0 0 0 0 0 0 0 0 0 127 0" result="hardAlpha"/>
<feOffset dy="-0.497264"/>
<feGaussianBlur stdDeviation="0.994528"/>
<feComposite in2="hardAlpha" operator="arithmetic" k2="-1" k3="1"/>
<feColorMatrix type="matrix" values="0 0 0 0 1 0 0 0 0 1 0 0 0 0 1 0 0 0 0.5 0"/>
<feBlend mode="normal" in2="effect2_innerShadow_1_1364" result="effect3_innerShadow_1_1364"/>
<feColorMatrix in="SourceAlpha" type="matrix" values="0 0 0 0 0 0 0 0 0 0 0 0 0 0 0 0 0 0 127 0" result="hardAlpha"/>
<feOffset dy="0.497264"/>
<feGaussianBlur stdDeviation="10.9398"/>
<feComposite in2="hardAlpha" operator="arithmetic" k2="-1" k3="1"/>
<feColorMatrix type="matrix" values="0 0 0 0 1 0 0 0 0 1 0 0 0 0 1 0 0 0 0.45 0"/>
<feBlend mode="normal" in2="effect3_innerShadow_1_1364" result="effect4_innerShadow_1_1364"/>
<feColorMatrix in="SourceAlpha" type="matrix" values="0 0 0 0 0 0 0 0 0 0 0 0 0 0 0 0 0 0 127 0" result="hardAlpha"/>
<feOffset dx="0.497264" dy="0.497264"/>
<feGaussianBlur stdDeviation="0.497264"/>
<feComposite in2="hardAlpha" operator="arithmetic" k2="-1" k3="1"/>
<feColorMatrix type="matrix" values="0 0 0 0 1 0 0 0 0 1 0 0 0 0 1 0 0 0 1 0"/>
<feBlend mode="normal" in2="effect4_innerShadow_1_1364" result="effect5_innerShadow_1_1364"/>
</filter>
<filter id="filter4_f_1_1364" x="26.5967" y="29.8859" width="14.6334" height="14.1654" filterUnits="userSpaceOnUse" color-interpolation-filters="sRGB">
<feFlood flood-opacity="0" result="BackgroundImageFix"/>
<feBlend mode="normal" in="SourceGraphic" in2="BackgroundImageFix" result="shape"/>
<feGaussianBlur stdDeviation="0.994528" result="effect1_foregroundBlur_1_1364"/>
</filter>
<filter id="filter5_bii_1_1364" x="27.5913" y="31.7665" width="12.6444" height="12.1763" filterUnits="userSpaceOnUse" color-interpolation-filters="sRGB">
<feFlood flood-opacity="0" result="BackgroundImageFix"/>
<feGaussianBlur in="BackgroundImageFix" stdDeviation="0.497264"/>
<feComposite in2="SourceAlpha" operator="in" result="effect1_backgroundBlur_1_1364"/>
<feBlend mode="normal" in="SourceGraphic" in2="effect1_backgroundBlur_1_1364" result="shape"/>
<feColorMatrix in="SourceAlpha" type="matrix" values="0 0 0 0 0 0 0 0 0 0 0 0 0 0 0 0 0 0 127 0" result="hardAlpha"/>
<feOffset dy="0.623588"/>
<feGaussianBlur stdDeviation="1.24718"/>
<feComposite in2="hardAlpha" operator="arithmetic" k2="-1" k3="1"/>
<feColorMatrix type="matrix" values="0 0 0 0 1 0 0 0 0 1 0 0 0 0 1 0 0 0 0.3 0"/>
<feBlend mode="normal" in2="shape" result="effect2_innerShadow_1_1364"/>
<feColorMatrix in="SourceAlpha" type="matrix" values="0 0 0 0 0 0 0 0 0 0 0 0 0 0 0 0 0 0 127 0" result="hardAlpha"/>
<feOffset dy="0.623588"/>
<feGaussianBlur stdDeviation="0.311794"/>
<feComposite in2="hardAlpha" operator="arithmetic" k2="-1" k3="1"/>
<feColorMatrix type="matrix" values="0 0 0 0 1 0 0 0 0 1 0 0 0 0 1 0 0 0 0.95 0"/>
<feBlend mode="normal" in2="effect2_innerShadow_1_1364" result="effect3_innerShadow_1_1364"/>
</filter>
<filter id="filter6_f_1_1364" x="38.2452" y="9.70304" width="14.9179" height="16.9069" filterUnits="userSpaceOnUse" color-interpolation-filters="sRGB">
<feFlood flood-opacity="0" result="BackgroundImageFix"/>
<feBlend mode="normal" in="SourceGraphic" in2="BackgroundImageFix" result="shape"/>
<feGaussianBlur stdDeviation="1.98905" result="effect1_foregroundBlur_1_1364"/>
</filter>
<filter id="filter7_f_1_1364" x="35.3236" y="11.7449" width="14.9894" height="17.7513" filterUnits="userSpaceOnUse" color-interpolation-filters="sRGB">
<feFlood flood-opacity="0" result="BackgroundImageFix"/>
<feBlend mode="normal" in="SourceGraphic" in2="BackgroundImageFix" result="shape"/>
<feGaussianBlur stdDeviation="1.49179" result="effect1_foregroundBlur_1_1364"/>
</filter>
<filter id="filter8_f_1_1364" x="43.2137" y="14.8628" width="5.21765" height="5.47988" filterUnits="userSpaceOnUse" color-interpolation-filters="sRGB">
<feFlood flood-opacity="0" result="BackgroundImageFix"/>
<feBlend mode="normal" in="SourceGraphic" in2="BackgroundImageFix" result="shape"/>
<feGaussianBlur stdDeviation="0.248632" result="effect1_foregroundBlur_1_1364"/>
</filter>
<linearGradient id="paint0_linear_1_1364" x1="50.5093" y1="14.7936" x2="38.2696" y2="22.0867" gradientUnits="userSpaceOnUse">
<stop offset="0.0941878" stop-color="#FFE5DC"/>
<stop offset="0.230705" stop-color="#FFFFE7" stop-opacity="0"/>
</linearGradient>
<linearGradient id="paint1_linear_1_1364" x1="47.525" y1="18.4369" x2="37.7901" y2="16.7952" gradientUnits="userSpaceOnUse">
<stop stop-color="#FFFFE6"/>
<stop offset="0.360807" stop-color="#D5FFFF"/>
<stop offset="0.977083" stop-color="#D5FFFF" stop-opacity="0"/>
</linearGradient>
<linearGradient id="paint2_linear_1_1364" x1="47.8924" y1="20" x2="38.3653" y2="25.7324" gradientUnits="userSpaceOnUse">
<stop offset="0.0153056" stop-color="#D4FFE7"/>
<stop offset="0.312156" stop-color="#D5FFFF" stop-opacity="0"/>
</linearGradient>
<linearGradient id="paint3_linear_1_1364" x1="29.0129" y1="41.6462" x2="29.0129" y2="42.6462" gradientUnits="userSpaceOnUse">
<stop stop-color="#E4EBFF"/>
<stop offset="0.60706" stop-color="#FFE2D9"/>
</linearGradient>
</defs>
</svg>
