<svg width="16" height="17" viewBox="0 0 16 17" fill="none" xmlns="http://www.w3.org/2000/svg">
<rect width="16" height="16" transform="translate(0 0.97876)" fill="#2D365C"/>
<path d="M17.0181 9.01319V8.97267M4.25451 19.1314H8.50903H12.7635M4.25451 19.1314H0V14.6164V12.3589H4.25451M4.25451 19.1314H12.7635M4.25451 19.1314V12.3589M12.7635 19.1314H17.0181V14.6164V12.3589M12.7635 19.1314V8.97267M4.25451 12.3589V5.51697H12.7635V8.97267M17.0181 12.3589V10.1014V8.97267M17.0181 12.3589V8.97267M17.0181 8.97267H12.7635" stroke="white" stroke-width="0.567268"/>
<rect x="1.70187" y="13.0658" width="1.04746" height="1.30933" fill="white"/>
<rect x="14.3997" y="12.804" width="1.04746" height="1.30933" fill="white"/>
<rect x="6.67642" y="12.804" width="1.04746" height="1.30933" fill="white"/>
<rect x="9.29437" y="12.804" width="1.04746" height="1.30933" fill="white"/>
<rect x="14.3997" y="10.3168" width="1.04746" height="1.30933" fill="white"/>
<rect x="6.67642" y="10.3168" width="1.04746" height="1.30933" fill="white"/>
<rect x="6.67642" y="7.82947" width="1.04746" height="1.30933" fill="white"/>
<rect x="9.29437" y="10.3168" width="1.04746" height="1.30933" fill="white"/>
<rect x="9.29437" y="7.82947" width="1.04746" height="1.30933" fill="white"/>
<rect x="1.70187" y="15.5531" width="1.04746" height="1.30933" fill="white"/>
<rect x="14.3997" y="15.2915" width="1.04746" height="1.30933" fill="white"/>
<rect x="6.67642" y="15.2915" width="1.04746" height="1.30933" fill="white"/>
<rect x="9.29437" y="15.2915" width="1.04746" height="1.30933" fill="white"/>
</svg>
