<svg width="24" height="24" viewBox="0 0 24 24" fill="none" xmlns="http://www.w3.org/2000/svg">
<path fill-rule="evenodd" clip-rule="evenodd" d="M12.001 16.541C11.587 16.541 11.251 16.205 11.251 15.791V3.75C11.251 3.336 11.587 3 12.001 3C12.415 3 12.751 3.336 12.751 3.75V15.791C12.751 16.205 12.415 16.541 12.001 16.541Z" fill="white"/>
<path fill-rule="evenodd" clip-rule="evenodd" d="M12.001 16.541C11.802 16.541 11.61 16.462 11.47 16.32L8.554 13.393C8.262 13.099 8.263 12.624 8.556 12.332C8.85 12.04 9.324 12.04 9.616 12.334L12.001 14.729L14.386 12.334C14.678 12.04 15.152 12.04 15.446 12.332C15.739 12.624 15.74 13.099 15.448 13.393L12.532 16.32C12.392 16.462 12.2 16.541 12.001 16.541Z" fill="white"/>
<mask id="mask0_1_1101" style="mask-type:luminance" maskUnits="userSpaceOnUse" x="2" y="7" width="20" height="15">
<path fill-rule="evenodd" clip-rule="evenodd" d="M2.0002 7.73242H22V21.4764H2.0002V7.73242Z" fill="white"/>
</mask>
<g mask="url(#mask0_1_1101)">
<path fill-rule="evenodd" clip-rule="evenodd" d="M17.5752 21.4764H6.4352C3.9902 21.4764 2.0002 19.4874 2.0002 17.0414V12.1564C2.0002 9.71642 3.9852 7.73242 6.4262 7.73242H7.3672C7.7812 7.73242 8.1172 8.06842 8.1172 8.48242C8.1172 8.89642 7.7812 9.23242 7.3672 9.23242H6.4262C4.8122 9.23242 3.5002 10.5434 3.5002 12.1564V17.0414C3.5002 18.6604 4.8162 19.9764 6.4352 19.9764H17.5752C19.1872 19.9764 20.5002 18.6634 20.5002 17.0514V12.1674C20.5002 10.5484 19.1832 9.23242 17.5662 9.23242H16.6342C16.2202 9.23242 15.8842 8.89642 15.8842 8.48242C15.8842 8.06842 16.2202 7.73242 16.6342 7.73242H17.5662C20.0112 7.73242 22.0002 9.72242 22.0002 12.1674V17.0514C22.0002 19.4914 20.0142 21.4764 17.5752 21.4764Z" fill="white"/>
</g>
</svg>
