<svg width="24" height="24" viewBox="0 0 24 24" fill="none" xmlns="http://www.w3.org/2000/svg">
<path d="M15.58 11.3899C15.7228 11.5271 15.912 11.6056 16.11 11.6099C16.3084 11.6076 16.4983 11.5288 16.64 11.3899L19.57 8.45993C19.6401 8.38861 19.6946 8.30347 19.73 8.20993C19.8096 8.02827 19.8096 7.82159 19.73 7.63993C19.6921 7.55068 19.6378 7.46929 19.57 7.39993L16.64 4.46993C16.453 4.26928 16.1714 4.18668 15.9057 4.25454C15.64 4.32241 15.4325 4.52991 15.3646 4.79564C15.2968 5.06137 15.3793 5.34296 15.58 5.52993L17.23 7.17993H10.14C7.26812 7.17993 4.94 9.50805 4.94 12.3799V14.6599C4.95021 17.4319 7.16863 19.6903 9.94 19.7499H17.12C17.3233 19.7553 17.5202 19.679 17.6668 19.538C17.8134 19.3971 17.8974 19.2033 17.9 18.9999C17.9 18.5896 17.5703 18.2554 17.16 18.2499H10C8.00127 18.1903 6.41369 16.5495 6.42 14.5499V12.3799C6.42 10.3365 8.07655 8.67993 10.12 8.67993H17.21L15.56 10.3299C15.273 10.6282 15.282 11.1027 15.58 11.3899Z" fill="#7C7F99"/>
</svg>
