<svg width="24" height="24" viewBox="0 0 24 24" fill="none" xmlns="http://www.w3.org/2000/svg">
<path d="M14.59 7.18007H7.5L9.15 5.53007C9.29294 5.39078 9.37357 5.19966 9.37357 5.00007C9.37357 4.80049 9.29294 4.60936 9.15 4.47007C8.85718 4.17762 8.38281 4.17762 8.09 4.47007L5.16 7.40007C5.09221 7.46943 5.03795 7.55082 5 7.64007C4.93001 7.82363 4.93001 8.02652 5 8.21007C5.03539 8.30361 5.08988 8.38876 5.16 8.46007L8.09 11.3901C8.23284 11.5272 8.422 11.6058 8.62 11.6101C8.81841 11.6078 9.00828 11.529 9.15 11.3901C9.29294 11.2508 9.37357 11.0597 9.37357 10.8601C9.37357 10.6605 9.29294 10.4694 9.15 10.3301L7.5 8.68007H14.59C16.6335 8.68007 18.29 10.3366 18.29 12.3801V14.5501C18.3019 16.5443 16.7232 18.1851 14.73 18.2501H6.83C6.41578 18.2501 6.08 18.5859 6.08 19.0001C6.08 19.4143 6.41578 19.7501 6.83 19.7501H14.76C17.5604 19.658 19.7778 17.3519 19.76 14.5501V12.3801C19.76 9.51987 17.4502 7.19657 14.59 7.18007Z" fill="white"/>
</svg>
